<svg width="77" height="77" viewBox="0 0 77 77" fill="none" xmlns="http://www.w3.org/2000/svg">
<path d="M38.5 0C17.2642 0 0 17.2642 0 38.5C0 59.7358 17.2642 77 38.5 77C59.7358 77 77 59.7358 77 38.5C77 17.2642 59.7358 0 38.5 0ZM54.8726 32.9884L38.2568 50.82C37.2844 51.8739 35.9874 52.4409 34.6096 52.4409C33.2318 52.4409 31.854 51.8733 30.9624 50.82L22.1272 41.4177C20.2632 39.3914 20.3441 36.2304 22.3703 34.3663C24.3966 32.5023 27.5577 32.5832 29.4218 34.6094L34.5282 40.1207L47.4969 26.1797C49.361 24.1534 52.5221 24.0724 54.5484 25.9366C56.656 27.8006 56.7367 30.9621 54.8726 32.9884Z" fill="#182056"/>
</svg>
