<svg width="1920" height="692" viewBox="0 0 1920 692" fill="none" xmlns="http://www.w3.org/2000/svg">
<path fill-rule="evenodd" clip-rule="evenodd" d="M0 0L40 46.1407C80 92.9701 160 185.252 240 211.421C320 238.279 400 198.336 480 192.138C560 185.252 640 211.421 720 178.365C800 145.309 880 53.0274 960 53.0274C1040 53.0274 1120 145.309 1200 152.196C1280 159.082 1360 79.1968 1440 59.9141C1520 39.9427 1600 79.1968 1680 79.1968C1760 79.1968 1840 39.9427 1880 19.9714L1920 0V317.476H1880C1840 317.476 1760 317.476 1680 317.476C1600 317.476 1520 317.476 1440 317.476C1360 317.476 1280 317.476 1200 317.476C1120 317.476 1040 317.476 960 317.476C880 317.476 800 317.476 720 317.476C640 317.476 560 317.476 480 317.476C400 317.476 320 317.476 240 317.476C160 317.476 80 317.476 40 317.476H0V0Z" fill="#F8F9FB"/>
<path fill-rule="evenodd" clip-rule="evenodd" d="M1920 691.476L1880 645.335C1840 598.505 1760 506.224 1680 480.055C1600 453.197 1520 493.139 1440 499.337C1360 506.224 1280 480.055 1200 513.111C1120 546.167 1040 638.448 960 638.448C880 638.448 800 546.167 720 539.28C640 532.393 560 612.279 480 631.562C400 651.533 320 612.279 240 612.279C160 612.279 80.0002 651.533 40.0002 671.504L0.000244141 691.476V374H40.0002C80.0002 374 160 374 240 374C320 374 400 374 480 374C560 374 640 374 720 374C800 374 880 374 960 374C1040 374 1120 374 1200 374C1280 374 1360 374 1440 374C1520 374 1600 374 1680 374C1760 374 1840 374 1880 374H1920V691.476Z" fill="#F8F9FB"/>
<path d="M1920 243H0.000244141V425H1920V243Z" fill="#F8F9FB"/>
</svg>
