<svg width="83" height="76" viewBox="0 0 83 76" fill="none" xmlns="http://www.w3.org/2000/svg">
<path d="M26.5789 9.50318C26.5789 14.7522 22.3236 19.007 17.0751 19.007C11.8266 19.007 7.57129 14.7523 7.57129 9.50318C7.57129 4.25466 11.8266 0 17.0751 0C22.3236 0 26.5789 4.25466 26.5789 9.50318Z" fill="#182056"/>
<path d="M29.1717 26.4366C27.4439 23.4993 24.1607 21.5986 20.5321 21.5986H13.4474C8.35024 21.5986 4.03047 25.4002 3.42539 30.4974L2.47501 38.7048C2.38884 39.7413 3.08007 40.7784 4.11668 41.0376C8.17726 41.9018 12.497 42.3333 16.9897 42.3333C19.2359 42.3333 21.4825 42.2471 23.6423 41.988L24.5065 34.9032C25.0248 31.4477 26.7527 28.5098 29.1716 26.4366L29.1717 26.4366Z" fill="#182056"/>
<path d="M74.615 9.50318C74.615 14.7522 70.3597 19.007 65.1112 19.007C59.8627 19.007 55.6074 14.7523 55.6074 9.50318C55.6074 4.25466 59.8627 0 65.1112 0C70.3597 0 74.615 4.25466 74.615 9.50318Z" fill="#182056"/>
<path d="M65.1123 42.247C69.605 42.247 73.9248 41.8149 77.9854 40.9514C79.0219 40.6922 79.7131 39.7418 79.627 38.6185L78.6766 30.4111C77.9854 25.3996 73.7518 21.5986 68.6546 21.5986H61.5699C57.9413 21.5986 54.745 23.4993 53.0166 26.4366C55.5218 28.5103 57.2501 31.4476 57.5956 34.9032L58.4598 41.9879C60.6196 42.1603 62.8662 42.2471 65.1124 42.2471L65.1123 42.247Z" fill="#182056"/>
<path d="M44.6365 26.3506H37.5518C32.4546 26.3506 28.1349 30.1521 27.5298 35.2493L26.5794 43.4567C26.4932 44.4933 27.0977 45.5304 28.2211 45.7895C32.2816 46.6537 36.6014 47.0852 41.0941 47.0852C45.5868 47.0852 49.9066 46.6531 53.9672 45.7895C55.0038 45.5304 55.695 44.58 55.6089 43.4567L54.6585 35.2493C54.0534 30.1521 49.7336 26.3506 44.6365 26.3506H44.6365Z" fill="#182056"/>
<path d="M50.5974 14.2548C50.5974 19.5033 46.3422 23.7586 41.0936 23.7586C35.8451 23.7586 31.5898 19.5033 31.5898 14.2548C31.5898 9.00626 35.8451 4.75098 41.0936 4.75098C46.3422 4.75098 50.5974 9.00626 50.5974 14.2548Z" fill="#182056"/>
<path d="M22.9508 56.0699L16.9894 55.5517C16.4711 55.4655 15.9528 55.2063 15.7799 54.6875L13.5337 49.245C13.0155 48.0355 11.3739 48.0355 10.8556 49.245L8.52281 54.7743C8.34985 55.2926 7.83157 55.6385 7.31331 55.6385L1.35187 56.07C0.0561884 56.1562 -0.462739 57.7978 0.487672 58.5752L4.98039 62.4628C5.41249 62.8081 5.58545 63.327 5.41249 63.9315L4.03002 69.72C3.77088 71.0156 5.06658 71.9661 6.18991 71.2748L11.2871 68.1645C11.7192 67.9054 12.3236 67.9054 12.7557 68.1645L17.8529 71.2748C18.9762 71.966 20.3581 70.9294 20.0128 69.72L18.8039 63.9321C18.7177 63.4138 18.8901 62.8088 19.236 62.4634L23.7287 58.5758C24.7653 57.7978 24.247 56.1567 22.9507 56.07L22.9508 56.0699Z" fill="#182056"/>
<path d="M51.893 60.5631L45.9316 60.0448C45.4133 59.9586 44.895 59.6995 44.722 59.1806L42.3892 53.6513C41.8709 52.4418 40.2293 52.4418 39.7111 53.6513L37.3783 59.1806C37.2053 59.6989 36.687 60.0448 36.1688 60.0448L30.2073 60.5631C28.9117 60.6492 28.3927 62.2908 29.3431 63.0682L33.8359 66.9558C34.268 67.3012 34.4409 67.82 34.268 68.4245L32.8855 74.213C32.6264 75.5087 33.922 76.4591 35.0454 75.7678L40.1425 72.6576C40.5746 72.3984 41.1791 72.3984 41.6112 72.6576L46.7084 75.7678C47.8317 76.459 49.2135 75.4225 48.8683 74.213L47.4858 68.4245C47.3996 67.9062 47.572 67.3012 47.9179 66.9558L52.4106 63.0682C53.7075 62.2908 53.1886 60.6491 51.8929 60.5631H51.893Z" fill="#182056"/>
<path d="M81.6129 58.662C82.5633 57.7978 82.045 56.2429 80.7487 56.1568L74.7873 55.6385C74.269 55.5523 73.7507 55.2932 73.5778 54.7743L71.3317 49.245C70.8134 48.0355 69.1718 48.0355 68.6535 49.245L66.3207 54.7743C66.1478 55.2926 65.6295 55.6385 65.1112 55.6385L59.2366 56.07C57.941 56.1562 57.422 57.7978 58.3724 58.5752L62.8652 62.4628C63.2973 62.8081 63.4702 63.327 63.2972 63.9315L61.9148 69.72C61.6556 71.0156 62.9513 71.9661 64.0747 71.2748L69.1718 68.1645C69.6039 67.9054 70.2084 67.9054 70.6405 68.1645L75.7377 71.2748C76.861 71.966 78.2428 70.9294 77.8976 69.72L76.688 63.9321C76.6019 63.4138 76.7742 62.8088 77.1201 62.4634L81.6129 58.662Z" fill="#182056"/>
</svg>
