<svg width="51" height="50" viewBox="0 0 51 50" fill="none" xmlns="http://www.w3.org/2000/svg">
<path d="M39.5222 0H5.22966C2.34628 0 0 2.30449 0 5.13743V37.7389C0 40.5719 2.34586 42.8768 5.22966 42.8768H33.5519C34.921 45.9491 37.4482 48.507 40.7745 49.6612C41.1081 49.7847 41.5336 49.8041 41.9455 49.6691C46.7593 48.0154 50.4224 43.1938 50.4518 37.1151L50.4599 32.801V32.7935C50.4599 31.8918 49.7318 31.1299 48.8139 31.0598C47.1869 30.9324 45.8286 30.5405 44.7511 30.0908L44.7515 5.13787C44.7515 2.30534 42.4052 0.000851957 39.5218 0.000851957L39.5222 0ZM35.2076 5.60173C35.2076 6.44681 34.5102 7.13204 33.6495 7.13204C32.7893 7.13204 32.0918 6.44687 32.0918 5.60173C32.0918 4.75664 32.7892 4.07141 33.6495 4.07141C34.5102 4.07141 35.2076 4.75659 35.2076 5.60173ZM30.2741 5.60173C30.2741 6.44681 29.5767 7.13204 28.716 7.13204C27.8558 7.13204 27.1582 6.44687 27.1582 5.60173C27.1582 4.75664 27.8557 4.07141 28.716 4.07141C29.5767 4.07141 30.2741 4.75659 30.2741 5.60173ZM6.15121 4.09523H18.8532C19.7002 4.09523 20.3868 4.76971 20.3868 5.60173C20.3868 6.43375 19.7002 7.10823 18.8532 7.10823H6.15121C5.30425 7.10823 4.61766 6.43374 4.61766 5.60173C4.61766 4.7697 5.30426 4.09523 6.15121 4.09523ZM38.583 4.07148C39.4432 4.07148 40.141 4.75665 40.141 5.60179C40.141 6.44688 39.4436 7.1321 38.583 7.1321C37.7227 7.1321 37.0252 6.44693 37.0252 5.60179C37.0252 4.7567 37.7226 4.07148 38.583 4.07148ZM43.7498 37.7292C43.7341 38.4753 43.3146 39.1831 42.6341 39.5872L42.9351 41.6471C42.9734 42.0433 42.6522 42.2998 42.3573 42.2998H40.4422C40.1045 42.2998 39.8084 41.978 39.8724 41.6471L40.1734 39.5951C39.4929 39.1751 39.0654 38.4678 39.0496 37.6829C39.0415 36.3379 40.1021 35.296 41.3999 35.296C42.7054 35.296 43.7578 36.3374 43.7578 37.6203C43.7578 37.6358 43.7498 37.7133 43.7498 37.7292Z" fill="#182056"/>
<path d="M24.2364 26.538C23.9825 26.3872 23.6086 26.2416 23.123 26.1046V28.4131C24.126 28.3149 24.6139 27.9064 24.6139 27.1674C24.6143 26.8954 24.4906 26.69 24.2363 26.538L24.2364 26.538Z" fill="white"/>
<path d="M20.7568 23.326C20.7568 23.6427 20.8749 23.8794 21.1183 24.0504C21.3532 24.2159 21.6957 24.3623 22.1381 24.4862V22.1255C21.7327 22.1948 21.4019 22.3274 21.1537 22.5205C20.8866 22.7275 20.7568 22.9912 20.7568 23.326L20.7568 23.326Z" fill="white"/>
<path d="M22.7418 14.4056C16.7007 14.4056 11.7861 19.2426 11.7861 25.1772C11.7861 31.1118 16.7004 35.9295 22.7418 35.9295C28.773 35.9295 33.6872 31.1119 33.6872 25.1772C33.6872 19.2425 28.773 14.4056 22.7418 14.4056ZM15.7711 26.304C15.1284 26.304 14.6243 25.8092 14.6243 25.1775C14.6243 24.5557 15.1284 24.0313 15.7711 24.0313C16.4138 24.0313 16.9279 24.5557 16.9279 25.1775C16.9279 25.8089 16.4134 26.304 15.7711 26.304ZM23.1222 29.6848V30.4309C23.1222 30.5663 23.0755 30.6815 22.9836 30.7721C22.8909 30.8628 22.7697 30.9091 22.6234 30.9091C22.4864 30.9091 22.3704 30.8659 22.2785 30.7808C22.1846 30.6937 22.137 30.5762 22.137 30.4309V29.6848C21.286 29.6195 20.4778 29.4291 19.7331 29.1172C19.6147 29.0689 19.5147 28.9877 19.437 28.8777C19.3576 28.7668 19.3177 28.6449 19.3177 28.5163C19.3177 28.35 19.3757 28.2044 19.4901 28.0821C19.6695 27.8897 19.966 27.8418 20.2199 27.9514C20.8279 28.217 21.4726 28.3734 22.1374 28.4169V25.8595C20.6667 25.4676 19.4035 24.9218 19.4035 23.4097C19.4035 21.9531 20.5809 21.0102 22.1374 20.8467V20.1097C22.1374 19.9755 22.1834 19.8591 22.274 19.7645C22.4574 19.5738 22.7841 19.5722 22.9776 19.7622C23.0739 19.8572 23.1226 19.9739 23.1226 20.1093V20.8289C23.887 20.8693 24.578 21.0035 25.1788 21.2291C25.4528 21.3249 25.5987 21.5295 25.5987 21.8197C25.5987 21.9752 25.5439 22.1181 25.4359 22.244C25.3223 22.3754 25.1724 22.4423 24.9894 22.4423C24.9246 22.4423 24.8456 22.4237 24.7493 22.3853C24.2468 22.2116 23.6992 22.1067 23.1223 22.0742V24.7267C24.7211 25.109 25.9541 25.6204 25.9541 27.2394C25.9541 28.4174 25.037 29.5344 23.1223 29.6848L23.1222 29.6848ZM29.6924 26.304C29.0598 26.304 28.5457 25.8092 28.5457 25.1775C28.5457 24.5557 29.0599 24.0313 29.6924 24.0313C30.3452 24.0313 30.8493 24.5557 30.8493 25.1775C30.8493 25.8089 30.3452 26.304 29.6924 26.304Z" fill="white"/>
</svg>
