<svg width="51" height="50" viewBox="0 0 51 50" fill="none" xmlns="http://www.w3.org/2000/svg">
<path d="M3.41499 20.6415C4.53988 19.5365 3.81686 18.3527 2.61124 18.2733C0.602451 18.1153 -0.522474 16.0632 1.08442 14.3266C2.85215 12.7481 5.02179 13.8531 5.102 15.8265C5.18215 17.0103 6.38776 17.7211 7.51269 16.6161L10.1643 14.0112C10.968 13.2217 12.2533 13.2217 13.057 14.0112L15.7086 16.6161C16.8335 17.7211 18.0385 17.0109 18.0385 15.8265C18.1993 13.8532 20.2883 12.7481 22.0561 14.406C23.663 16.1425 22.5381 18.2739 20.5292 18.3527C19.3242 18.4314 18.6007 19.6158 19.7255 20.6415L22.4573 23.3252C23.261 24.1147 23.261 25.3773 22.4573 26.1668L20.5292 28.0609C20.2881 27.4294 19.9664 26.8772 19.4844 26.403C17.7967 24.7451 15.306 24.8245 13.458 26.4818L13.2977 26.6392C11.6101 28.4546 11.53 30.9808 13.2176 32.5593C13.6996 33.0329 14.2623 33.3489 14.9052 33.5857L13.0573 35.401C12.2536 36.1906 10.8877 36.1906 10.0844 35.401L7.43283 32.7962C6.30794 31.6911 5.18298 32.3226 5.10292 33.5857C4.94206 35.5591 2.85307 36.6642 1.08534 35.0063C-0.521554 33.2697 0.603312 31.1383 2.53138 31.0596C3.73642 30.9808 4.37933 29.8758 3.25442 28.7707L0.60281 26.1659C-0.200937 25.3763 -0.200937 24.1137 0.60281 23.3243L3.41499 20.6415ZM14.5031 9.74842C13.6993 10.538 13.6993 11.8798 14.5031 12.6689L16.351 14.4842C16.592 13.8527 16.9138 13.3004 17.3958 12.8263C19.0027 11.2477 21.5742 11.2478 23.4222 12.905L23.5825 13.0625C25.2701 14.8779 25.3502 17.404 23.6626 18.9826C23.1806 19.4561 22.6179 19.7722 21.9749 20.0089L23.9035 21.9035C24.7073 22.6931 25.9925 22.6931 26.7962 21.9035L29.528 19.2199C30.6529 18.1148 31.7778 18.8251 31.8579 20.0094C32.0188 21.9828 34.1077 23.0879 35.8755 21.5093C37.4824 19.7728 36.3575 17.7206 34.4294 17.5626C33.2244 17.4839 32.5009 16.2995 33.6257 15.2738L36.2773 12.6689C37.081 11.8794 37.081 10.6168 36.2773 9.82729L33.6257 7.22245C32.5008 6.1174 33.2238 4.93363 34.4294 4.85428C36.4382 4.69625 37.5632 2.64411 35.9563 0.90755C34.1885 -0.670999 32.0189 0.434028 31.9387 2.40745C31.8585 3.59124 30.6529 4.30202 29.528 3.19702L26.8764 0.592178C26.0726 -0.197393 24.7874 -0.197393 23.9837 0.592178L21.3321 3.19702C20.2072 4.30207 19.0823 3.67054 19.0022 2.48673C18.8413 0.513371 16.7524 -0.591713 14.9846 1.06619C13.3777 2.80275 14.5026 4.85491 16.4307 5.01292C17.6357 5.09166 18.2786 6.19671 17.2344 7.30174L14.5031 9.74842ZM37.4033 16.7736C39.0102 18.3521 39.0102 20.8783 37.3232 22.6937L37.1629 22.8512C35.3149 24.5091 32.7434 24.5877 31.1365 22.9299C30.6545 22.4564 30.3327 21.9036 30.0917 21.272L28.1632 23.1666C27.3594 23.9561 27.3594 25.2187 28.1632 26.0082L30.895 28.6918C32.0199 29.7969 31.2968 30.902 30.0912 30.9806C28.0824 31.1387 26.9575 33.1908 28.5644 34.9274C30.3321 36.5059 32.4211 35.4009 32.582 33.5068C32.6621 32.323 33.8677 31.6123 34.9119 32.7173L37.5635 35.3221C38.3672 36.1117 39.6525 36.1117 40.4562 35.3221L43.1078 32.7173C44.2327 31.6122 45.4377 32.3225 45.5185 33.5068C45.6793 35.4802 47.7683 36.5853 49.536 35.0067C51.1429 33.2702 50.0181 31.1388 48.0092 31.06C46.8042 30.9813 46.0806 29.7969 47.2055 28.6918L49.8571 26.087C50.6608 25.2974 50.6608 24.0348 49.8571 23.2453L47.2055 20.6405C46.0806 19.5354 46.7235 18.4303 47.9285 18.3517C49.9373 18.1937 51.0622 16.1415 49.3745 14.405C47.6068 12.8264 45.5178 13.9314 45.357 15.8255C45.2768 17.0093 44.1519 17.6409 43.0271 16.6151L40.3755 14.0102C39.5717 13.2207 38.2058 13.2207 37.4026 14.0102L35.5546 15.8256C36.3584 15.9842 36.9211 16.3002 37.4032 16.7737L37.4033 16.7736ZM16.2708 44.5585C14.262 44.7166 13.1371 46.7687 14.744 48.5053C16.5117 50.0838 18.6814 48.9788 18.7616 47.0054C18.8417 45.8216 20.0473 45.1108 21.1723 46.2158L23.8239 48.8206C24.6276 49.6102 25.9129 49.6102 26.7165 48.8206L29.3682 46.2158C30.493 45.1107 31.618 45.7423 31.6981 46.9261C31.8589 48.8995 33.9479 50.0045 35.7156 48.3466C37.3225 46.6101 36.1977 44.5579 34.2696 44.3999C33.0646 44.3212 32.4217 43.2161 33.4659 42.1111L36.1175 39.5062C36.9212 38.7167 36.9212 37.3749 36.1175 36.5858L34.2695 34.7705C34.0285 35.402 33.7068 35.9542 33.2248 36.4284C31.6179 38.0069 29.0463 38.0069 27.1984 36.3496L27.0381 36.1921C25.3504 34.3768 25.2704 31.8506 26.9579 30.2721C27.44 29.7985 28.0027 29.4825 28.6456 29.2457L26.717 27.3512C25.9133 26.5616 24.628 26.5616 23.8244 27.3512L21.0926 30.0348C19.9677 31.1399 18.8427 30.4296 18.7626 29.2452C18.6018 27.2719 16.5128 26.1668 14.7451 27.7453C13.1382 29.4819 14.263 31.5341 16.1911 31.6921C17.3962 31.7708 18.1197 32.9551 16.9949 33.9809L14.3432 36.5857C13.5395 37.3753 13.5395 38.6379 14.3432 39.4274L16.9949 42.0322C18.1993 43.2953 17.4763 44.479 16.2707 44.5584L16.2708 44.5585Z" fill="#182056"/>
</svg>
