<svg width="50" height="50" viewBox="0 0 50 50" fill="none" xmlns="http://www.w3.org/2000/svg">
<path d="M40.3226 23.3871V4.03226C40.3226 1.80876 38.5138 0 36.2903 0H4.03226C1.80876 0 0 1.80876 0 4.03226V23.3871C0 25.6106 1.80876 27.4194 4.03226 27.4194H36.2903C38.5138 27.4194 40.3226 25.6106 40.3226 23.3871ZM38.7097 10.4839H1.6129V6.45161H38.7097V10.4839ZM4.03226 1.6129H36.2903C37.6242 1.6129 38.7097 2.69834 38.7097 4.03226V4.83871H1.6129V4.03226C1.6129 2.69834 2.69834 1.6129 4.03226 1.6129Z" fill="#182056"/>
<path d="M32.2581 14.5161C31.5614 14.5161 30.8856 14.6684 30.2419 14.9708C29.5993 14.6684 28.9225 14.5161 28.2258 14.5161C25.5573 14.5161 23.3871 16.6864 23.3871 19.3548C23.3871 22.0233 25.5573 24.1936 28.2258 24.1936C28.9225 24.1936 29.5993 24.0413 30.2419 23.7388C30.8857 24.0413 31.5614 24.1936 32.2581 24.1936C34.9265 24.1936 37.0968 22.0233 37.0968 19.3548C37.0968 16.6864 34.9265 14.5161 32.2581 14.5161ZM32.2581 22.5806C31.7026 22.5806 31.1604 22.4291 30.6477 22.1306L30.2419 21.8944L29.8362 22.1306C29.3235 22.4291 28.7823 22.5806 28.2257 22.5806C26.4469 22.5806 24.9999 21.1337 24.9999 19.3548C24.9999 17.5759 26.4469 16.129 28.2257 16.129C28.7824 16.129 29.3234 16.2806 29.8362 16.5791L30.2419 16.8152L30.6477 16.5791C31.1603 16.2806 31.7025 16.129 32.2581 16.129C34.037 16.129 35.4839 17.5759 35.4839 19.3548C35.4839 21.1337 34.037 22.5806 32.2581 22.5806Z" fill="#182056"/>
<path d="M39.5161 29.0323C36.2741 29.0323 33.3716 30.512 31.4477 32.8316C29.4646 30.4389 26.5298 29.0323 23.3871 29.0323C17.6065 29.0323 12.9032 33.7356 12.9032 39.5161C12.9032 45.2967 17.6065 50 23.3871 50C26.5298 50 29.4646 48.5934 31.4477 46.2006C33.3716 48.5203 36.2741 50 39.5161 50C45.2967 50 50 45.2967 50 39.5161C50 33.7356 45.2967 29.0323 39.5161 29.0323ZM23.3871 48.3871C18.4959 48.3871 14.5161 44.4074 14.5161 39.5161C14.5161 34.6249 18.4959 30.6452 23.3871 30.6452C26.1985 30.6452 28.8073 31.9805 30.4814 34.2234C29.5669 35.7791 29.0323 37.5846 29.0323 39.5161C29.0323 41.4477 29.5669 43.2532 30.4814 44.8088C28.8073 47.0518 26.1985 48.3871 23.3871 48.3871Z" fill="#182056"/>
<path d="M37.9032 35.4839H41.129C42.0187 35.4839 42.7419 36.2072 42.7419 37.0968H44.3548C44.3548 35.3179 42.9079 33.871 41.129 33.871H40.3226V32.2581H38.7097V33.871H37.9032C36.1243 33.871 34.6774 35.3179 34.6774 37.0968C34.6774 38.8757 36.1243 40.3226 37.9032 40.3226H41.129C42.0187 40.3226 42.7419 41.0459 42.7419 41.9355C42.7419 42.8251 42.0187 43.5484 41.129 43.5484H37.9032C37.0136 43.5484 36.2903 42.8251 36.2903 41.9355H34.6774C34.6774 43.7144 36.1243 45.1613 37.9032 45.1613H38.7097V46.7742H40.3226V45.1613H41.129C42.9079 45.1613 44.3548 43.7144 44.3548 41.9355C44.3548 40.1566 42.9079 38.7097 41.129 38.7097H37.9032C37.0136 38.7097 36.2903 37.9864 36.2903 37.0968C36.2903 36.2072 37.0136 35.4839 37.9032 35.4839Z" fill="white"/>
<path d="M41.9355 17.7419C41.9355 17.2965 42.2965 16.9355 42.7419 16.9355C43.1873 16.9355 43.5484 17.2965 43.5484 17.7419C43.5484 18.1873 43.1873 18.5484 42.7419 18.5484C42.2965 18.5484 41.9355 18.1873 41.9355 17.7419Z" fill="#182056"/>
<path d="M45.1613 17.7419C45.1613 17.2965 46.201 17.0732 46.6463 17.0732C46.6463 16.6278 47.0917 17.0732 46.6463 17.0732C46.6463 17.5186 46.4131 18.5484 45.9677 18.5484C45.5224 18.5484 45.1613 18.1873 45.1613 17.7419Z" fill="#182056"/>
<path d="M45.1613 20.9677C45.1613 20.5224 45.5224 20.1613 45.9677 20.1613C46.4131 20.1613 46.7742 20.5224 46.7742 20.9677C46.7742 21.4131 46.4131 21.7742 45.9677 21.7742C45.5224 21.7742 45.1613 21.4131 45.1613 20.9677Z" fill="#182056"/>
<path d="M45.1613 24.1936C45.1613 23.7482 45.5224 23.3871 45.9677 23.3871C46.4131 23.3871 46.7742 23.7482 46.7742 24.1936C46.7742 24.6389 46.4131 25 45.9677 25C45.5224 25 45.1613 24.6389 45.1613 24.1936Z" fill="#182056"/>
<path d="M45.1613 27.4194C45.1613 26.974 45.5224 26.6129 45.9677 26.6129C46.4131 26.6129 46.7742 26.974 46.7742 27.4194C46.7742 27.8647 46.4131 28.2258 45.9677 28.2258C45.5224 28.2258 45.1613 27.8647 45.1613 27.4194Z" fill="#182056"/>
<path d="M4.83871 29.8387C4.83871 29.3933 5.19977 29.0323 5.64516 29.0323C6.09055 29.0323 6.45161 29.3933 6.45161 29.8387C6.45161 30.2841 6.09055 30.6452 5.64516 30.6452C5.19977 30.6452 4.83871 30.2841 4.83871 29.8387Z" fill="#182056"/>
<path d="M4.83871 33.0645C4.83871 32.6191 5.19977 32.2581 5.64516 32.2581C6.09055 32.2581 6.45161 32.6191 6.45161 33.0645C6.45161 33.5099 6.09055 33.871 5.64516 33.871C5.19977 33.871 4.83871 33.5099 4.83871 33.0645Z" fill="#182056"/>
<path d="M4.83871 36.2903C4.83871 35.8449 5.19977 35.4839 5.64516 35.4839C6.09055 35.4839 6.45161 35.8449 6.45161 36.2903C6.45161 36.7357 6.09055 37.0968 5.64516 37.0968C5.19977 37.0968 4.83871 36.7357 4.83871 36.2903Z" fill="#182056"/>
<path d="M4.83871 39.5161C4.83871 39.0707 5.19977 38.7097 5.64516 38.7097C6.09055 38.7097 6.45161 39.0707 6.45161 39.5161C6.45161 39.9615 6.09055 40.3226 5.64516 40.3226C5.19977 40.3226 4.83871 39.9615 4.83871 39.5161Z" fill="#182056"/>
<path d="M4.83871 42.7419C4.83871 42.2965 5.19977 41.9355 5.64516 41.9355C6.09055 41.9355 6.45161 42.2965 6.45161 42.7419C6.45161 43.1873 6.09055 43.5484 5.64516 43.5484C5.19977 43.5484 4.83871 43.1873 4.83871 42.7419Z" fill="#182056"/>
<path d="M5.18293 46.3415C5.18293 45.8961 5.19977 45.1613 5.64516 45.1613C6.09055 45.1613 6.45161 45.5224 6.45161 45.9677C6.45161 46.4131 5.62832 46.3415 5.18293 46.3415C4.73754 46.3415 5.18293 46.7869 5.18293 46.3415Z" fill="#182056"/>
<path d="M8.06452 45.9677C8.06452 45.5224 8.42558 45.1613 8.87097 45.1613C9.31636 45.1613 9.67742 45.5224 9.67742 45.9677C9.67742 46.4131 9.31636 46.7742 8.87097 46.7742C8.42558 46.7742 8.06452 46.4131 8.06452 45.9677Z" fill="#182056"/>
<path d="M11.2903 45.9677C11.2903 45.5224 11.6514 45.1613 12.0968 45.1613C12.5422 45.1613 12.9032 45.5224 12.9032 45.9677C12.9032 46.4131 12.5422 46.7742 12.0968 46.7742C11.6514 46.7742 11.2903 46.4131 11.2903 45.9677Z" fill="#182056"/>
<path d="M27.2083 36.9183C27.0747 35.5875 25.9487 35.1357 24.5298 35.0011L24.5179 33.1561L23.4193 33.1504L23.4309 34.9468C23.1421 34.9453 22.8469 34.9496 22.5537 34.954L22.5422 33.1457L21.4443 33.1398L21.4557 34.9843C21.2179 34.988 20.9843 34.9913 20.7566 34.9903L20.7564 34.9845L19.2412 34.976L19.2492 36.1754C19.2492 36.1754 20.0603 36.1639 20.0469 36.1791C20.4919 36.1816 20.6385 36.4465 20.682 36.6746L20.6956 38.7765C20.7263 38.7768 20.7664 38.7783 20.8118 38.7849C20.7752 38.7848 20.736 38.7843 20.6957 38.7845L20.7144 41.729C20.6958 41.872 20.6149 42.0999 20.304 42.0988C20.3182 42.1116 19.5054 42.0943 19.5054 42.0943L19.2958 43.4344L20.7254 43.4419C20.9915 43.4436 21.2533 43.4496 21.5103 43.4527L21.5227 45.3187L22.6201 45.3247L22.6082 43.4784C22.9096 43.4864 23.2012 43.4904 23.4859 43.4916L23.4972 45.3294L24.5957 45.3351L24.5841 43.4724C26.4304 43.3739 27.72 42.905 27.8691 41.1329C27.9896 39.7059 27.3285 39.0653 26.2785 38.8024C26.9133 38.4742 27.3077 37.8921 27.2083 36.9183ZM25.697 40.9002C25.7065 42.2947 23.3698 42.1237 22.6253 42.1205L22.6097 39.6481C23.3545 39.6522 25.6877 39.4457 25.697 40.9002ZM25.1637 37.4093C25.1715 38.678 23.2226 38.5196 22.6024 38.5164L22.5881 36.274C23.2082 36.2773 25.155 36.086 25.1637 37.4093Z" fill="#182056"/>
</svg>
