<svg width="502" height="105" viewBox="0 0 502 105" fill="none" xmlns="http://www.w3.org/2000/svg">
<g clip-path="url(#clip0_439_19)">
<path d="M266.537 44.333V60.833C269.218 57.233 273.09 55.433 278.154 55.433C280.537 55.433 282.622 55.733 284.41 56.633C286.495 57.233 288.282 58.433 289.772 59.933C291.559 61.433 292.75 63.233 293.644 65.333C294.538 67.433 294.836 70.133 294.836 73.133C294.836 76.433 294.24 79.433 293.048 82.433C291.857 85.133 290.07 87.533 287.389 89.333C284.708 91.133 281.729 92.033 277.856 92.033C272.494 92.033 268.622 90.233 266.239 86.933V91.133H255.813V44.333H266.537ZM226.918 54.533C247.174 54.533 245.387 76.433 245.387 76.433H217.981C219.173 80.633 222.747 83.633 227.812 83.633C234.067 83.633 237.344 80.033 237.344 80.033L243.302 86.033C240.323 89.033 236.152 91.733 227.812 91.733C215.002 91.733 208.151 83.033 208.151 74.033C208.151 65.033 212.917 54.533 226.918 54.533ZM477.439 54.233C486.078 54.233 491.738 57.533 491.738 57.533L487.865 65.333C476.248 59.333 471.184 63.533 471.184 65.633C471.184 67.733 473.269 68.033 481.312 69.533C489.355 71.033 492.929 74.333 492.929 79.733C492.929 85.133 488.163 91.133 476.844 91.133C465.524 91.133 460.46 87.533 460.46 87.533L464.034 80.033C472.971 85.733 483.099 83.933 483.099 80.633C483.099 78.233 479.822 77.633 476.248 77.033L474.758 76.733C474.163 76.733 473.269 76.433 472.673 76.433C468.205 75.833 461.353 73.133 461.353 66.233C461.056 59.033 468.801 54.233 477.439 54.233ZM426.799 41.633V69.833L441.991 55.433H454.204L439.31 69.833L455.694 91.433H443.48L432.161 76.733L426.799 81.833V91.433H416.671V41.633H426.799ZM390.755 54.233C397.904 54.233 404.16 57.833 407.734 63.233L399.095 68.333C397.606 65.333 394.329 63.233 390.755 63.233C385.393 63.233 381.222 67.433 381.222 72.833C381.222 78.233 385.393 82.433 390.755 82.433C394.329 82.433 397.308 80.633 398.798 77.633L407.436 82.433C403.862 87.533 397.904 91.133 390.755 91.133C379.733 91.133 371.094 82.733 371.094 72.533C370.796 62.333 379.733 54.233 390.755 54.233ZM343.987 54.233C355.008 54.233 363.647 62.633 363.647 72.833C363.647 83.033 354.711 91.433 343.987 91.433C332.965 91.433 324.326 83.033 324.326 72.833C324.028 62.333 332.965 54.233 343.987 54.233ZM164.958 55.133V90.833H153.936V55.133H164.958ZM144.404 44.333V53.333H119.977V65.333H141.425V74.033H119.977V90.833H108.955V44.333H144.404ZM188.491 59.633C188.491 59.633 192.363 53.633 200.406 54.533V64.433C200.406 64.433 191.767 62.333 188.491 71.333V91.133H178.065V55.133H187.895L188.491 59.633ZM313.602 41.633V90.833H302.581V41.633H313.602ZM275.175 63.233C269.218 63.233 266.239 66.833 266.239 74.333C266.239 77.033 267.132 79.433 268.622 81.533C270.111 83.333 272.494 84.233 275.771 84.233C277.856 84.233 279.644 83.633 280.835 82.733C282.027 81.533 282.92 80.333 283.516 78.833C284.112 77.333 284.41 75.533 284.41 74.033C284.41 71.033 283.814 68.333 282.324 66.533C280.537 64.133 278.154 63.233 275.175 63.233ZM343.987 62.933C338.625 62.933 334.454 67.133 334.454 72.533C334.454 77.933 338.625 82.133 343.987 82.133C349.349 82.133 353.519 77.933 353.519 72.533C353.221 67.433 349.051 62.933 343.987 62.933ZM226.918 62.033C221.556 62.033 218.577 65.333 217.683 69.533H235.557C235.557 68.633 233.769 62.033 226.918 62.033ZM159.596 38.333C163.17 38.333 166.149 41.033 166.149 44.333C166.149 47.633 163.17 50.333 159.596 50.333C156.021 50.333 153.042 47.633 153.042 44.333C153.042 41.033 156.021 38.333 159.596 38.333Z" fill="#212121"/>
<path d="M72.3861 30C74.1734 30 75.3649 31.2 75.3649 33V102C75.3649 103.8 74.1734 105 72.3861 105H2.97885C1.19154 105 0 103.8 0 102V33C0 31.2 1.19154 30 2.97885 30H72.3861ZM37.8314 50.7L16.9795 84H58.9813L37.8314 50.7Z" fill="#212121"/>
</g>
<path d="M383.8 23.24C381.56 23.24 379.88 22.744 378.76 21.752C377.656 20.76 377.04 19.4 376.912 17.672H379.984C380.112 18.68 380.448 19.464 380.992 20.024C381.536 20.568 382.472 20.84 383.8 20.84C384.76 20.84 385.536 20.6 386.128 20.12C386.736 19.624 387.04 18.984 387.04 18.2C387.04 17.4 386.792 16.816 386.296 16.448C385.8 16.08 384.856 15.784 383.464 15.56C381.336 15.272 379.792 14.76 378.832 14.024C377.888 13.272 377.416 12.112 377.416 10.544C377.416 9.12 377.968 7.944 379.072 7.016C380.176 6.088 381.616 5.624 383.392 5.624C385.248 5.624 386.712 6.048 387.784 6.896C388.856 7.728 389.472 8.96 389.632 10.592H386.704C386.544 9.696 386.2 9.048 385.672 8.648C385.144 8.232 384.384 8.024 383.392 8.024C382.448 8.024 381.72 8.232 381.208 8.648C380.696 9.048 380.44 9.592 380.44 10.28C380.44 11.016 380.672 11.568 381.136 11.936C381.616 12.304 382.568 12.592 383.992 12.8C386.12 13.088 387.672 13.608 388.648 14.36C389.624 15.096 390.112 16.288 390.112 17.936C390.112 19.456 389.528 20.72 388.36 21.728C387.192 22.736 385.672 23.24 383.8 23.24ZM398.002 23.24C396.13 23.24 394.602 22.664 393.418 21.512C392.234 20.36 391.642 18.808 391.642 16.856V16.664C391.642 14.744 392.226 13.184 393.394 11.984C394.578 10.784 396.074 10.184 397.882 10.184C399.578 10.184 400.986 10.712 402.106 11.768C403.242 12.824 403.81 14.408 403.81 16.52V17.36H394.618C394.666 18.56 394.986 19.48 395.578 20.12C396.17 20.76 397.002 21.08 398.074 21.08C399.77 21.08 400.73 20.44 400.954 19.16H403.762C403.554 20.472 402.946 21.48 401.938 22.184C400.93 22.888 399.618 23.24 398.002 23.24ZM394.666 15.416H400.93C400.786 13.336 399.77 12.296 397.882 12.296C397.018 12.296 396.298 12.576 395.722 13.136C395.162 13.68 394.81 14.44 394.666 15.416ZM411.42 23.24C409.58 23.24 408.06 22.672 406.86 21.536C405.676 20.384 405.084 18.832 405.084 16.88V16.688C405.084 14.736 405.692 13.168 406.908 11.984C408.124 10.784 409.628 10.184 411.42 10.184C412.956 10.184 414.252 10.568 415.308 11.336C416.38 12.088 416.996 13.272 417.156 14.888H414.348C414.124 13.304 413.164 12.512 411.468 12.512C410.46 12.512 409.636 12.88 408.996 13.616C408.372 14.352 408.06 15.36 408.06 16.64V16.832C408.06 18.176 408.364 19.208 408.972 19.928C409.596 20.648 410.452 21.008 411.54 21.008C412.34 21.008 413.02 20.776 413.58 20.312C414.156 19.832 414.484 19.168 414.564 18.32H417.228C417.116 19.792 416.54 20.984 415.5 21.896C414.46 22.792 413.1 23.24 411.42 23.24ZM423.449 23.24C422.137 23.24 421.089 22.848 420.305 22.064C419.521 21.28 419.129 20.088 419.129 18.488V10.448H422.033V18.152C422.033 19.096 422.233 19.792 422.633 20.24C423.033 20.688 423.657 20.912 424.505 20.912C425.337 20.912 426.033 20.648 426.593 20.12C427.153 19.592 427.433 18.856 427.433 17.912V10.448H430.337V23H427.433V21.032C427.097 21.688 426.585 22.224 425.897 22.64C425.225 23.04 424.409 23.24 423.449 23.24ZM433.3 23V10.448H436.204V12.8C437.036 11.12 438.396 10.272 440.284 10.256V12.968C438.924 12.984 437.9 13.256 437.212 13.784C436.54 14.312 436.204 15.208 436.204 16.472V23H433.3ZM447.645 23.24C445.773 23.24 444.245 22.664 443.061 21.512C441.877 20.36 441.285 18.808 441.285 16.856V16.664C441.285 14.744 441.869 13.184 443.037 11.984C444.221 10.784 445.717 10.184 447.525 10.184C449.221 10.184 450.629 10.712 451.749 11.768C452.885 12.824 453.453 14.408 453.453 16.52V17.36H444.261C444.309 18.56 444.629 19.48 445.221 20.12C445.813 20.76 446.645 21.08 447.717 21.08C449.413 21.08 450.373 20.44 450.597 19.16H453.405C453.197 20.472 452.589 21.48 451.581 22.184C450.573 22.888 449.261 23.24 447.645 23.24ZM444.309 15.416H450.573C450.429 13.336 449.413 12.296 447.525 12.296C446.661 12.296 445.941 12.576 445.365 13.136C444.805 13.68 444.453 14.44 444.309 15.416ZM460.271 23.24C458.639 23.24 457.311 22.688 456.287 21.584C455.263 20.464 454.751 18.912 454.751 16.928V16.736C454.751 14.752 455.279 13.168 456.335 11.984C457.391 10.784 458.743 10.184 460.391 10.184C462.247 10.184 463.583 10.912 464.399 12.368V4.64H467.303V23H464.399V20.888C464.047 21.544 463.487 22.104 462.719 22.568C461.967 23.016 461.151 23.24 460.271 23.24ZM460.991 20.936C462.047 20.936 462.895 20.584 463.535 19.88C464.175 19.176 464.495 18.144 464.495 16.784V16.592C464.495 15.232 464.199 14.208 463.607 13.52C463.015 12.816 462.183 12.464 461.111 12.464C460.039 12.464 459.207 12.832 458.615 13.568C458.023 14.288 457.727 15.32 457.727 16.664V16.856C457.727 18.184 458.023 19.2 458.615 19.904C459.223 20.592 460.015 20.936 460.991 20.936ZM482.521 23.24C481.561 23.24 480.721 23.032 480.001 22.616C479.297 22.2 478.769 21.656 478.417 20.984V23H475.513V4.64H478.417V12.464C478.785 11.824 479.337 11.288 480.073 10.856C480.825 10.408 481.641 10.184 482.521 10.184C484.137 10.184 485.465 10.76 486.505 11.912C487.561 13.048 488.089 14.6 488.089 16.568V16.76C488.089 18.744 487.569 20.32 486.529 21.488C485.505 22.656 484.169 23.24 482.521 23.24ZM481.801 20.936C482.873 20.936 483.689 20.584 484.249 19.88C484.825 19.176 485.113 18.152 485.113 16.808V16.616C485.113 15.272 484.801 14.248 484.177 13.544C483.569 12.824 482.769 12.464 481.777 12.464C480.737 12.464 479.897 12.824 479.257 13.544C478.633 14.248 478.321 15.272 478.321 16.616V16.808C478.321 18.168 478.625 19.2 479.233 19.904C479.857 20.592 480.713 20.936 481.801 20.936ZM491.261 27.296L493.541 21.728L488.573 10.448H491.717L495.053 18.536L498.125 10.448H500.957L494.117 27.296H491.261Z" fill="#212121"/>
<defs>
<clipPath id="clip0_439_19">
<rect width="493" height="75" fill="white" transform="translate(0 30)"/>
</clipPath>
</defs>
</svg>
