<svg width="1920" height="318" viewBox="0 0 1920 318" fill="none" xmlns="http://www.w3.org/2000/svg">
<path fill-rule="evenodd" clip-rule="evenodd" d="M1920 0L1880 46.1407C1840 92.9701 1760 185.252 1680 211.421C1600 238.279 1520 198.336 1440 192.138C1360 185.252 1280 211.421 1200 178.365C1120 145.309 1040 53.0274 960 53.0274C880 53.0274 800 145.309 720 152.196C640 159.082 560 79.1968 480 59.9141C400 39.9427 320 79.1968 240 79.1968C160 79.1968 80 39.9427 40 19.9714L0 0V317.476H40C80 317.476 160 317.476 240 317.476C320 317.476 400 317.476 480 317.476C560 317.476 640 317.476 720 317.476C800 317.476 880 317.476 960 317.476C1040 317.476 1120 317.476 1200 317.476C1280 317.476 1360 317.476 1440 317.476C1520 317.476 1600 317.476 1680 317.476C1760 317.476 1840 317.476 1880 317.476H1920V0Z" fill="#F8F9FB"/>
</svg>
