<svg width="601" height="570" viewBox="0 0 601 570" fill="none" xmlns="http://www.w3.org/2000/svg">
<g filter="url(#filter0_d_22_5555)">
<path d="M33.7544 211.074L21.6536 196.355L20.085 252.906L33.7544 211.074Z" fill="white" fill-opacity="0.04"/>
<path d="M22.3259 299.387L10.4492 278.913V291.308L22.3259 299.387Z" fill="white" fill-opacity="0.6"/>
<path d="M22.7744 299.608L10.5615 278.803L28.2645 280.02L22.7744 299.608Z" fill="white" fill-opacity="0.31"/>
<path d="M40.5889 291.197L29.0483 280.241L64.2303 285.332L40.5889 291.197Z" fill="white" fill-opacity="0.31"/>
<path d="M42.3822 263.752L10.5615 278.249L14.1469 264.084L20.0853 253.46L42.3822 263.752Z" fill="white" fill-opacity="0.31"/>
<path d="M35.2103 234.204L20.6445 251.8L24.9022 238.409L29.384 224.022L35.2103 234.204Z" fill="white" fill-opacity="0.31"/>
<path d="M33.6431 211.074L20.1978 252.243L20.758 239.294L21.5423 196.134L33.6431 211.074Z" fill="white" fill-opacity="0.31"/>
<path d="M33.7557 160.942L17.061 170.459L24.3439 149.101L33.7557 160.942Z" fill="white" fill-opacity="0.31"/>
<path d="M19.3013 163.377L16.9483 170.127L14.2593 159.171L18.2929 164.262L19.3013 163.377Z" fill="white" fill-opacity="0.31"/>
<path d="M18.4044 164.151L14.0347 158.95L21.3176 144.121L28.3764 155.187L18.4044 164.151Z" fill="white" fill-opacity="0.6"/>
<path d="M14.1461 158.507L11.2329 147.219L21.3169 144.121L14.1461 158.507Z" fill="white" fill-opacity="0.6"/>
<path d="M24.2308 130.951L29.1608 138.034L27.256 140.137L26.3597 142.682L11.3457 146.887L24.2308 130.951Z" fill="white" fill-opacity="0.6"/>
<path d="M37.7878 95.3162L70.6168 110.92L35.771 113.244L37.7878 95.3162Z" fill="white" fill-opacity="0.6"/>
<path d="M23.4463 131.394L15.2671 141.907L8.54443 142.35L23.4463 131.394Z" fill="white" fill-opacity="0.6"/>
<path d="M50.0016 153.527L34.0913 160.278L33.8672 142.793L50.0016 153.527Z" fill="white" fill-opacity="0.31"/>
<path d="M53.362 136.374L52.2416 145.67L32.6338 141.022L53.362 136.374Z" fill="white" fill-opacity="0.31"/>
<path d="M58.5161 88.0124L37.5637 95.0951L35.9951 79.6017L58.5161 88.0124Z" fill="white" fill-opacity="0.31"/>
<path d="M42.3814 97.4192L37.5635 95.0952L44.1741 72.4084L42.3814 97.4192Z" fill="white" fill-opacity="0.31"/>
<path d="M44.0621 70.3058L35.8828 79.6019L34.4263 51.7137L44.0621 70.3058Z" fill="white" fill-opacity="0.31"/>
<path d="M44.3994 71.0801L34.3154 51.3814L45.4078 39.4293L44.3994 71.0801Z" fill="white" fill-opacity="0.31"/>
<path d="M44.1753 70.0843L34.3154 51.3816L45.0717 56.3616L53.0269 60.1243L44.1753 70.0843Z" fill="white" fill-opacity="0.31"/>
<path d="M49.3283 26.1494L50.7849 38.9868L52.9137 59.6816L45.6309 38.9868L49.3283 26.1494Z" fill="white" fill-opacity="0.31"/>
<path d="M62.9971 63.6657L60.5321 77.8311L53.1372 60.3457L62.9971 63.6657Z" fill="white" fill-opacity="0.31"/>
<path d="M77.4526 68.7562L58.7412 88.1229L62.9989 63.5548L77.4526 68.7562Z" fill="white" fill-opacity="0.31"/>
<path d="M77.6762 68.6457L109.497 65.6577L76.7799 80.1551L70.7295 75.8391L77.6762 68.6457Z" fill="white" fill-opacity="0.31"/>
<path d="M86.416 48.947L138.965 36.5522L111.626 51.603L86.416 48.947Z" fill="white" fill-opacity="0.31"/>
<path d="M176.947 93.6563L152.858 68.7562L193.194 40.0934L176.947 93.6563Z" fill="white" fill-opacity="0.31"/>
<path d="M178.291 75.3963L161.148 65.2149L178.291 54.3695V75.3963Z" fill="white" fill-opacity="0.31"/>
<path d="M171.793 68.6458L127.759 72.9618L154.202 63.4445L171.793 68.6458Z" fill="white" fill-opacity="0.31"/>
<path d="M210.562 61.6737L185.464 65.879L187.481 59.4603L210.562 61.6737Z" fill="white" fill-opacity="0.31"/>
<path d="M251.234 87.4591L177.284 92.9924L182.55 75.3964L251.234 87.4591Z" fill="white" fill-opacity="0.31"/>
<path d="M214.707 72.1869L286.415 93.6563L229.16 109.039L221.653 97.6403L214.707 72.1869Z" fill="white" fill-opacity="0.31"/>
<path d="M302.662 112.913L318.46 131.947L276.779 158.286L302.662 112.913Z" fill="white" fill-opacity="0.31"/>
<path d="M313.306 118.557L352.97 133.054L301.542 139.694L313.306 118.557Z" fill="white" fill-opacity="0.31"/>
<path d="M298.627 85.2458L313.193 118.889L309.72 121.545L291.008 96.9766L298.627 85.2458Z" fill="white" fill-opacity="0.31"/>
<path d="M311.737 99.9645L322.157 109.371L302.998 112.249L311.737 99.9645Z" fill="white" fill-opacity="0.31"/>
<path d="M362.381 111.252L347.479 113.908L323.614 109.371L362.381 111.252Z" fill="white" fill-opacity="0.31"/>
<path d="M290.897 97.5299L306.135 117.007L281.709 111.917L290.897 97.5299Z" fill="white" fill-opacity="0.31"/>
<path d="M298.517 85.0245L287.761 93.3245L271.738 72.6298L298.517 85.0245Z" fill="white" fill-opacity="0.31"/>
<path d="M257.956 30.1335L219.637 45.959L235.659 30.1335H257.956Z" fill="white" fill-opacity="0.31"/>
<path d="M298.515 25.1536L331.344 30.0229L272.857 26.9242L298.515 25.1536Z" fill="white" fill-opacity="0.31"/>
<path d="M193.418 8L212.466 14.972L174.931 8.88534L193.418 8Z" fill="white" fill-opacity="0.31"/>
<path d="M309.496 55.6974L323.165 63.3335L245.294 53.1521L309.496 55.6974Z" fill="white" fill-opacity="0.31"/>
<path d="M241.486 52.7095L252.019 63.5549L201.15 54.2588L241.486 52.7095Z" fill="white" fill-opacity="0.31"/>
<path d="M291.456 44.7413L287.087 50.828L272.073 48.9467L291.456 44.7413Z" fill="white" fill-opacity="0.31"/>
<path d="M311.96 46.7334L339.411 52.3774L308.823 49.0574L311.96 46.7334Z" fill="white" fill-opacity="0.31"/>
<path d="M77.5639 68.535L63.2222 63.555L65.4631 51.3816L77.5639 68.535Z" fill="white" fill-opacity="0.31"/>
<path d="M70.5046 110.146L51.2329 101.182L58.5158 88.7871L70.5046 110.146Z" fill="white" fill-opacity="0.31"/>
<path d="M34.539 131.947L24.0068 130.841L25.2393 125.086L34.539 131.947Z" fill="white" fill-opacity="0.31"/>
<path d="M39.3569 119.995L24.0068 130.841L33.8667 118.557L39.3569 119.995Z" fill="white" fill-opacity="0.31"/>
<path d="M60.8692 142.129L35.6592 132.279L53.8104 136.374L60.8692 142.129Z" fill="white" fill-opacity="0.31"/>
<path d="M33.9788 132.722V160.168L27.3682 140.247L33.9788 132.722Z" fill="white" fill-opacity="0.31"/>
<path d="M64.2307 274.486L28.3765 279.798L47.424 266.408L64.2307 274.486Z" fill="white" fill-opacity="0.31"/>
<path d="M38.0128 312.003L23.1108 299.94L39.2452 300.272L38.0128 312.003Z" fill="white" fill-opacity="0.6"/>
<path d="M64.0066 307.908L45.1831 310.564L57.8441 300.272L64.0066 307.908Z" fill="white" fill-opacity="0.6"/>
<path d="M57.8445 300.272L39.4692 300.051L64.4552 285.553L57.8445 300.272Z" fill="white" fill-opacity="0.31"/>
<path d="M100.309 271.72L93.5864 256.227L109.721 238.298L100.309 271.72Z" fill="white" fill-opacity="0.6"/>
<path d="M69.6087 261.539L64.6787 254.345L78.6843 195.36V236.749L69.6087 261.539Z" fill="white" fill-opacity="0.6"/>
<path d="M78.7973 194.363L78.125 165.59L97.5087 170.349L78.7973 194.363Z" fill="white" fill-opacity="0.31"/>
<path d="M78.0122 165.148L71.0654 152.864L99.8609 157.844L78.0122 165.148Z" fill="white" fill-opacity="0.31"/>
<path d="M78.0127 165.147L83.9511 144.121L96.2759 137.259L107.929 132.39L97.1723 148.326L78.0127 165.147Z" fill="white" fill-opacity="0.31"/>
<path d="M100.758 165.811L89.6655 152.531L125.968 139.362L100.758 165.811Z" fill="white" fill-opacity="0.31"/>
<path d="M123.95 125.971L105.351 117.339L112.185 107.933L117.115 100.628L111.065 95.3165L126.303 87.3484L153.082 68.9777L155.883 87.7911L153.082 111.917L160.14 125.971L137.283 123.094L142.437 131.947L123.95 125.971Z" fill="white" fill-opacity="0.31"/>
<path d="M112.859 153.085L144.568 158.508L137.957 147.662L126.305 139.473L112.859 153.085Z" fill="white" fill-opacity="0.31"/>
<path d="M163.951 133.275L126.528 138.919L138.405 146.998L158.461 157.622L163.951 133.275Z" fill="white" fill-opacity="0.31"/>
<path d="M181.653 128.959L164.398 133.054L158.459 157.622L187.031 134.492L181.653 128.959Z" fill="white" fill-opacity="0.31"/>
<path d="M110.281 161.053L114.763 167.029L121.373 161.053L125.407 155.962H116.443L110.281 161.053Z" fill="white" fill-opacity="0.31"/>
<path d="M144.118 158.508L121.485 161.385L130.449 165.258L144.118 158.508Z" fill="white" fill-opacity="0.31"/>
<path d="M110.842 173.226L100.758 166.143L97.6206 170.127L110.842 173.226Z" fill="white" fill-opacity="0.31"/>
<path d="M92.5791 194.695L114.428 185.953L130.562 195.027L92.5791 194.695Z" fill="white" fill-opacity="0.31"/>
<path d="M146.247 173.447L114.426 185.953L130.561 195.027L146.247 173.447Z" fill="white" fill-opacity="0.31"/>
<path d="M110.504 173.669L109.496 184.403L121.037 180.751L110.504 173.669Z" fill="white" fill-opacity="0.31"/>
<path d="M123.615 182.19L146.248 173.337L134.259 173.115L130.337 165.59L110.169 173.337L123.615 182.19Z" fill="white" fill-opacity="0.31"/>
<path d="M79.0209 194.917L94.4831 204.877L87.4243 219.928L81.0377 229.777L78.5728 228.892L79.0209 194.917Z" fill="white" fill-opacity="0.31"/>
<path d="M78.5728 218.599L119.245 226.9L78.5728 230.22V218.599Z" fill="white" fill-opacity="0.31"/>
<path d="M78.7974 194.253L97.5088 170.238L109.722 173.226L78.7974 194.253Z" fill="white" fill-opacity="0.6"/>
<path d="M79.2441 194.363L110.168 173.115L109.272 184.514L79.2441 194.363Z" fill="white" fill-opacity="0.6"/>
<path d="M79.2441 194.363L109.16 184.846L106.583 212.292L79.2441 194.363Z" fill="white" fill-opacity="0.6"/>
<path d="M79.0205 194.917H129.441L106.583 212.291L79.0205 194.917Z" fill="white" fill-opacity="0.6"/>
<path d="M129.776 194.695L160.7 186.285L165.518 189.937L154.874 199.454L146.695 197.794L140.756 204.545L129.776 194.695Z" fill="white" fill-opacity="0.6"/>
<path d="M166.864 173.779L187.592 168.357L160.589 186.174L166.864 173.779Z" fill="white" fill-opacity="0.6"/>
<path d="M165.52 183.075L187.369 168.689L168.769 184.846L165.52 183.075Z" fill="white" fill-opacity="0.31"/>
<path d="M140.758 180.53L146.36 173.558L160.478 186.285L140.758 180.53Z" fill="white" fill-opacity="0.31"/>
<path d="M146.584 173.005L158.685 157.733L164.959 152.642L166.192 173.78L146.584 173.005Z" fill="white" fill-opacity="0.6"/>
<path d="M165.855 170.792L165.183 152.531L183.11 137.813L188.152 168.136L165.855 170.792Z" fill="white" fill-opacity="0.6"/>
<path d="M188.264 168.246L183.222 137.702L187.144 134.492L197.9 139.03L205.183 147.108L188.264 168.246Z" fill="white" fill-opacity="0.31"/>
<path d="M205.295 147.219L198.124 139.03L213.25 134.603L205.295 147.219Z" fill="white" fill-opacity="0.31"/>
<path d="M213.363 134.382L191.626 126.525L200.141 110.921L219.189 112.249L213.363 134.382Z" fill="white" fill-opacity="0.31"/>
<path d="M193.978 525.037V539.977L178.292 534.776L193.978 525.037Z" fill="white" fill-opacity="0.31"/>
<path d="M174.482 511.204L179.524 518.508L170.672 516.184L174.482 511.204Z" fill="white" fill-opacity="0.31"/>
<path d="M172.018 503.457L170.673 515.963L156.22 513.085L172.018 503.457Z" fill="white" fill-opacity="0.31"/>
<path d="M171.233 503.125L153.53 505.338L151.85 500.358L171.233 503.125Z" fill="white" fill-opacity="0.31"/>
<path d="M189.16 506.998L166.975 494.161L186.807 493.165L189.16 506.998Z" fill="white" fill-opacity="0.31"/>
<path d="M142.886 484.975L134.707 466.273L160.253 483.426L152.073 484.975L157.676 490.841L142.886 484.975Z" fill="white" fill-opacity="0.31"/>
<path d="M151.177 484.754L147.704 463.285L160.253 483.426L151.177 484.754Z" fill="white" fill-opacity="0.31"/>
<path d="M135.491 465.72L145.351 454.985L153.979 467.38L135.491 465.72Z" fill="white" fill-opacity="0.31"/>
<path d="M127.983 451.776L146.919 449.673L145.126 454.21L127.983 451.776Z" fill="white" fill-opacity="0.31"/>
<path d="M120.254 432.741L126.193 419.239L126.305 432.741H120.254Z" fill="white" fill-opacity="0.31"/>
<path d="M107.256 420.899L110.394 399.43L126.08 418.686L107.256 420.899Z" fill="white" fill-opacity="0.31"/>
<path d="M110.394 399.208L126.304 396.22L137.284 414.038L110.394 399.208Z" fill="white" fill-opacity="0.31"/>
<path d="M94.708 383.715L109.386 373.645L118.686 377.518L105.24 392.901L99.8621 399.209L94.708 383.715Z" fill="white" fill-opacity="0.31"/>
<path d="M94.708 383.715L109.386 373.645L111.739 374.641L103.672 392.79L105.128 393.011L99.8621 399.209L94.708 383.715Z" fill="white" fill-opacity="0.31"/>
<path d="M108.824 367.115L112.97 370.878L95.3789 383.272L108.824 367.115Z" fill="white" fill-opacity="0.31"/>
<path d="M119.804 370.878L133.474 383.605L109.272 373.312L119.804 370.878Z" fill="white" fill-opacity="0.31"/>
<path d="M134.818 348.412L133.698 365.234L119.804 369.439L113.53 362.688L134.818 348.412Z" fill="white" fill-opacity="0.31"/>
<path d="M131.906 281.791L148.265 263.863L151.626 271.167L144.119 275.261L162.943 290.201L131.906 281.791Z" fill="white" fill-opacity="0.31"/>
<path d="M187.032 224.908L196.668 205.43L198.013 219.264L207.536 214.505L198.797 233.983L187.032 224.908Z" fill="white" fill-opacity="0.31"/>
<path d="M207.872 214.173L197.115 205.098L204.286 190.711L207.872 214.173Z" fill="white" fill-opacity="0.31"/>
<path d="M196.779 192.371L199.356 200.782L197.339 205.098L195.21 203.66L196.779 192.371Z" fill="white" fill-opacity="0.31"/>
<path d="M175.826 353.503L161.933 367.668L151.513 360.143L135.378 348.412L175.826 353.503Z" fill="white" fill-opacity="0.31"/>
<path d="M200.365 357.93L174.371 388.031L168.544 368.886L200.365 357.93Z" fill="white" fill-opacity="0.31"/>
<path d="M217.733 350.404L210.45 384.6L198.237 376.743L217.733 350.404Z" fill="white" fill-opacity="0.31"/>
<path d="M200.589 358.04L198.236 376.743L190.505 368.885L200.589 358.04Z" fill="white" fill-opacity="0.31"/>
<path d="M211.121 348.08L224.567 352.286L200.701 358.04L211.121 348.08Z" fill="white" fill-opacity="0.31"/>
<path d="M232.97 348.302L231.961 368.997L216.387 360.475L232.97 348.302Z" fill="white" fill-opacity="0.31"/>
<path d="M239.692 355.384L224.454 360.696L222.885 355.384H239.692Z" fill="white" fill-opacity="0.31"/>
<path d="M251.681 347.416L235.322 350.736L225.798 343.322L251.681 347.416Z" fill="white" fill-opacity="0.31"/>
<path d="M252.13 366.451L231.962 368.996L240.365 355.384L252.13 366.451Z" fill="white" fill-opacity="0.31"/>
<path d="M276.331 353.946L252.018 366.451L257.62 347.306L276.331 353.946Z" fill="white" fill-opacity="0.31"/>
<path d="M317.34 335.464L280.365 353.392L254.259 332.255L317.34 335.464Z" fill="white" fill-opacity="0.31"/>
<path d="M329.326 302.486L317.786 334.579L310.727 277.807L329.326 302.486Z" fill="white" fill-opacity="0.31"/>
<path d="M396.106 93.8778L352.409 98.5258L363.389 87.6804L396.106 93.8778Z" fill="white" fill-opacity="0.31"/>
<path d="M469.384 59.792L429.608 102.62L425.687 91.7748L469.384 59.792Z" fill="white" fill-opacity="0.31"/>
<path d="M584.788 96.2019L575.264 100.075L512.968 98.6366L584.788 96.2019Z" fill="white" fill-opacity="0.31"/>
<path d="M493.921 180.973L560.028 220.038L462.549 184.735L493.921 180.973Z" fill="white" fill-opacity="0.31"/>
<path d="M404.061 141.133L467.479 159.061L392.521 145.559L354.426 133.607L404.061 141.133Z" fill="white" fill-opacity="0.31"/>
<path d="M345.687 130.398L403.502 126.082L353.642 133.054L345.687 130.398Z" fill="white" fill-opacity="0.31"/>
<path d="M359.356 76.7242L299.188 84.8029L311.625 76.7242H359.356Z" fill="white" fill-opacity="0.31"/>
<path d="M353.417 60.1242L341.316 58.7962L354.425 54.0375L353.417 60.1242Z" fill="white" fill-opacity="0.31"/>
<path d="M381.093 49.0575L347.367 66.5429L377.395 49.0575H381.093Z" fill="white" fill-opacity="0.31"/>
<path d="M320.364 261.76L279.356 278.36L314.762 256.559L320.364 261.76Z" fill="white" fill-opacity="0.31"/>
<path d="M310.168 276.811L277.563 263.42L285.855 257.997L310.168 276.811Z" fill="white" fill-opacity="0.31"/>
<path d="M277.003 263.088L248.32 251.357L266.135 231.216L277.003 263.088Z" fill="white" fill-opacity="0.31"/>
<path d="M252.017 269.839L248.32 251.357L266.695 231.105L252.017 269.839Z" fill="white" fill-opacity="0.31"/>
<path d="M276.443 353.946L266.135 375.083L267.031 350.515L276.443 353.946Z" fill="white" fill-opacity="0.31"/>
<path d="M267.03 384.601L238.123 402.971L252.352 366.672L267.03 384.601Z" fill="white" fill-opacity="0.31"/>
<path d="M263.334 403.192L240.925 416.251L238.348 402.86L263.334 403.192Z" fill="white" fill-opacity="0.31"/>
<path d="M238.123 402.971L221.653 434.511L227.143 395.335L238.123 402.971Z" fill="white" fill-opacity="0.31"/>
<path d="M264.23 483.869L252.69 508.437L239.805 481.324L264.23 483.869Z" fill="white" fill-opacity="0.31"/>
<path d="M273.642 494.604L269.608 507.773L252.802 508.548L273.642 494.604Z" fill="white" fill-opacity="0.31"/>
<path d="M285.295 497.259L287.424 502.35L274.539 494.714L285.295 497.259Z" fill="white" fill-opacity="0.31"/>
<path d="M260.98 477.782L264.23 483.537L253.137 478.778L260.98 477.782Z" fill="white" fill-opacity="0.31"/>
<path d="M298.404 517.511L289.328 532.341L270.168 508.105L298.404 517.511Z" fill="white" fill-opacity="0.31"/>
<path d="M289.776 532.784L312.185 538.096L320.252 532.009L330.336 541.637L316.33 557.462L289.776 532.784Z" fill="white" fill-opacity="0.31"/>
<path d="M374.706 510.097L359.244 502.904L404.846 497.813L374.706 510.097Z" fill="white" fill-opacity="0.31"/>
<path d="M495.49 469.593L473.417 456.092H495.49V469.593Z" fill="white" fill-opacity="0.31"/>
<path d="M387.591 427.097L362.605 436.393L371.008 415.587L387.591 427.097Z" fill="white" fill-opacity="0.6"/>
<path d="M389.832 413.042L371.233 415.366L383.558 398.323L389.832 413.042Z" fill="white" fill-opacity="0.31"/>
<path d="M363.95 436.393L391.625 431.745L387.815 426.986L403.613 405.185L395.994 436.393H363.95Z" fill="white" fill-opacity="0.6"/>
<path d="M403.614 405.185L405.854 416.805L390.504 412.71L403.614 405.185Z" fill="white" fill-opacity="0.6"/>
<path d="M337.283 354.942L374.034 385.043L376.611 400.094L349.944 388.031L337.283 354.942Z" fill="white" fill-opacity="0.6"/>
<path d="M353.305 358.594L385.798 380.506L353.305 369.882V358.594Z" fill="white" fill-opacity="0.6"/>
<path d="M386.246 381.391L393.417 393.675L383.894 398.213L386.246 381.391Z" fill="white" fill-opacity="0.6"/>
<path d="M386.246 380.838L404.845 383.162L395.882 398.213L386.246 380.838Z" fill="white" fill-opacity="0.6"/>
<path d="M383.894 398.102L386.246 381.391L393.529 393.565L399.02 391.13L403.837 404.631L383.894 398.102Z" fill="white" fill-opacity="0.31"/>
<path d="M409.215 323.733L405.518 364.791L402.157 380.395L386.358 364.791L409.215 323.733Z" fill="white" fill-opacity="0.31"/>
<path d="M376.163 344.982L386.022 364.57L360.364 355.606L376.163 344.982Z" fill="white" fill-opacity="0.31"/>
<path d="M380.421 325.394L395.547 291.197L404.286 290.091L405.855 301.379L380.421 325.394Z" fill="white" fill-opacity="0.31"/>
<path d="M386.358 364.791H405.518L402.157 380.395L386.358 364.791Z" fill="white" fill-opacity="0.31"/>
<path d="M419.412 299.055L472.745 304.146L421.877 312.224L419.412 299.055Z" fill="white" fill-opacity="0.31"/>
<path d="M488.766 232.433L545.685 235.753L515.209 239.184L488.766 232.433Z" fill="white" fill-opacity="0.31"/>
<path d="M436.106 273.712L459.524 268.068L461.765 276.811L436.106 273.712Z" fill="white" fill-opacity="0.31"/>
<path d="M474.425 303.039L499.635 269.949L504.117 273.823L474.425 303.039Z" fill="white" fill-opacity="0.31"/>
<path d="M419.411 299.055L421.988 312.446L408.878 316.43L419.411 299.055Z" fill="white" fill-opacity="0.31"/>
<path d="M405.966 230.552L432.856 224.133L421.652 311.892L405.966 230.552Z" fill="white" fill-opacity="0.31"/>
<path d="M329.664 169.021L405.518 218.378L380.42 225.24L329.664 169.021Z" fill="white" fill-opacity="0.31"/>
<path d="M321.709 156.405L359.692 168.357L348.151 171.566L321.709 156.405Z" fill="white" fill-opacity="0.31"/>
<path d="M319.581 154.523L334.034 148.437L389.72 146.113L319.581 154.523Z" fill="white" fill-opacity="0.31"/>
<path d="M317.788 335.575L352.858 358.04L320.813 351.4L317.788 335.575Z" fill="white" fill-opacity="0.31"/>
<path d="M320.812 351.511L333.361 365.676L307.143 367.336L320.812 351.511Z" fill="white" fill-opacity="0.31"/>
<path d="M325.293 393.343L311.176 401.422L286.19 365.455L325.293 393.343Z" fill="white" fill-opacity="0.31"/>
<path d="M325.293 393.343L311.176 401.422L286.19 365.455L325.293 393.343Z" fill="white" fill-opacity="0.31"/>
<path d="M306.919 367.337L311.4 401.312L300.868 367.337H306.919Z" fill="white" fill-opacity="0.31"/>
<path d="M346.806 414.148L317.674 405.738L325.069 393.343L346.806 414.148Z" fill="white" fill-opacity="0.31"/>
<path d="M366.862 405.184L325.294 393.343L351.736 389.359L366.862 405.184Z" fill="white" fill-opacity="0.31"/>
<path d="M359.917 417.247L347.144 414.259L366.527 405.517L359.917 417.247Z" fill="white" fill-opacity="0.31"/>
<path d="M346.919 413.817L331.681 409.611L345.687 396.22L346.919 413.817Z" fill="white" fill-opacity="0.31"/>
<path d="M362.157 436.171L318.235 406.291L357.003 425.215L362.157 436.171Z" fill="white" fill-opacity="0.6"/>
<path d="M286.863 556.688L315.771 529.464L295.267 562L286.863 556.688Z" fill="white" fill-opacity="0.31"/>
<path d="M305.575 512.199L298.292 516.958L288.32 503.125L305.575 512.199Z" fill="white" fill-opacity="0.6"/>
<path d="M313.194 508.769L324.959 516.848L305.799 512.2L313.194 508.769Z" fill="white" fill-opacity="0.6"/>
<path d="M313.082 519.836L316.443 527.914L298.852 517.401L313.082 519.836Z" fill="white" fill-opacity="0.6"/>
<path d="M325.855 517.18L329.329 524.705L313.53 519.725L325.855 517.18Z" fill="white" fill-opacity="0.6"/>
<path d="M321.484 522.381L329.215 524.927L331.344 542.412L316.778 528.247L321.484 522.381Z" fill="white" fill-opacity="0.6"/>
<path d="M217.507 527.029L226.134 526.144L231.624 531.677L245.182 545.621L230.84 542.523L226.134 542.08L217.507 527.029Z" fill="white" fill-opacity="0.31"/>
<path d="M255.826 550.269L262.661 547.281L266.246 548.056L263.893 551.818L265.014 554.142L259.636 559.454L249.552 556.577L244.51 553.81L255.826 550.269Z" fill="white" fill-opacity="0.31"/>
<path d="M221.653 434.843L208.88 432.63L209.328 407.619L221.653 434.843Z" fill="white" fill-opacity="0.31"/>
<path d="M201.373 490.509L233.418 511.757L211.793 513.638L217.732 527.472L211.793 523.045L211.121 527.472L196.667 514.413L201.373 490.509Z" fill="white" fill-opacity="0.31"/>
<path d="M227.031 395.667L208.88 432.63L204.174 398.102L227.031 395.667Z" fill="white" fill-opacity="0.31"/>
<path d="M168.207 369.218L167.647 377.186L159.58 371.874L168.207 369.218Z" fill="white" fill-opacity="0.31"/>
<path d="M156.107 370.988L161.709 367.89L164.286 373.202L156.555 378.846L156.107 370.988Z" fill="white" fill-opacity="0.31"/>
<path d="M174.145 388.474L168.431 401.422L161.708 385.486L174.145 388.474Z" fill="white" fill-opacity="0.31"/>
<path d="M133.81 365.234L155.883 370.878L133.81 383.605V365.234Z" fill="white" fill-opacity="0.31"/>
<path d="M118.012 378.957L133.698 383.937L126.303 396.11L118.012 378.957Z" fill="white" fill-opacity="0.61"/>
<path d="M213.362 134.382L191.626 126.525L175.155 121.102L189.945 96.4232L221.43 97.7512L200.141 110.921L205.967 121.102L213.362 134.382Z" fill="white" fill-opacity="0.31"/>
<path d="M189.945 96.4233L200.141 110.921L175.155 120.549L173.698 130.177L164.286 127.742L160.253 126.082L152.858 112.359L165.183 111.585L154.09 104.613L155.547 83.2539L160.029 81.1512L153.082 68.7565L176.835 93.3246L189.945 96.4233Z" fill="white" fill-opacity="0.31"/>
<path d="M70.8406 263.862L69.4961 261.538L78.2356 237.413V251.468L70.8406 263.862Z" fill="white" fill-opacity="0.6"/>
<path d="M80.9259 230.109L89.7774 248.258L83.1668 243.5L78.4609 251.025V236.86L80.9259 230.109Z" fill="white" fill-opacity="0.6"/>
<path d="M78.1242 274.819L71.0654 263.863L78.3483 252.021L78.1242 274.819Z" fill="white" fill-opacity="0.6"/>
<path d="M64.9022 274.265L70.9526 264.084L64.9022 254.788V274.265Z" fill="white" fill-opacity="0.6"/>
<path d="M34.4267 259.989L42.718 263.862L63.2222 254.898L34.4267 259.989Z" fill="white" fill-opacity="0.6"/>
<path d="M47.5366 266.408L42.4946 264.084L21.9905 272.827L28.1529 279.577L47.5366 266.408Z" fill="white" fill-opacity="0.6"/>
<path d="M119.245 227.564L100.646 279.356L100.422 279.135V271.831L109.946 237.967L119.245 227.564Z" fill="white" fill-opacity="0.31"/>
<path d="M89.8895 259.547L87.2005 278.139L77.2285 276.589L89.8895 259.547Z" fill="white" fill-opacity="0.31"/>
<path d="M89.8889 259.436L100.085 279.909L84.7349 266.076L89.8889 259.436Z" fill="white" fill-opacity="0.31"/>
<path d="M75.2109 257.333L83.1661 243.61L90.0008 248.59L81.2613 230.22L118.572 227.01L105.351 231.105L99.1885 237.634L95.491 244.938L109.497 238.409L93.6983 256.226L89.7767 258.772V259.325L84.7347 266.186L75.2109 257.333Z" fill="white" fill-opacity="0.31"/>
<path d="M99.188 237.966H109.608L95.6025 244.717L99.188 237.966Z" fill="white" fill-opacity="0.31"/>
<path d="M112.41 229.113L109.721 237.745L105.239 231.437L112.41 229.113Z" fill="white" fill-opacity="0.31"/>
<path d="M129.329 209.525L119.245 226.9L113.643 225.572L115.099 221.477L111.066 217.714L106.808 212.624L129.329 209.525Z" fill="white" fill-opacity="0.31"/>
<path d="M89.6646 305.363L64.2305 308.24L67.8159 303.371L89.6646 305.363Z" fill="white" fill-opacity="0.31"/>
<path d="M57.9562 300.161L64.903 285.221L55.7153 283.893L64.903 274.708L91.1214 305.141L76.3315 301.489L71.7377 303.592L67.7041 303.371L68.2643 300.161H57.9562Z" fill="white" fill-opacity="0.6"/>
<path d="M64.7915 274.597L100.31 280.573L97.3964 296.731L91.346 305.141L64.7915 274.597Z" fill="white" fill-opacity="0.6"/>
<path d="M14.2757 263.562L10.3418 278.66M14.2757 263.562L20.1205 253.237M14.2757 263.562L22.1551 272.776M14.2757 263.562L64.7429 254.459M10.3418 278.66V291.316L22.8181 299.865M10.3418 278.66L28.3256 279.992M10.3418 278.66L15.7369 287.83M10.3418 278.66L21.6941 273.006M22.8181 299.865L38.1043 312.299M22.8181 299.865L28.3256 279.992M22.8181 299.865L15.7369 287.83M22.8181 299.865L39.2283 300.198M38.1043 312.299L44.3987 310.744M38.1043 312.299L39.2283 300.198M44.3987 310.744L64.2933 308.08M44.3987 310.744L57.8865 300.198M64.2933 308.08L64.4286 308.066M64.2933 308.08L67.6653 303.417M91.3814 305.304L97.451 297.089L100.373 280.326M91.3814 305.304L64.4286 308.066M91.3814 305.304L64.7429 274.664M91.3814 305.304L71.5992 303.73M91.3814 305.304L76.2076 301.53L71.5992 303.73M100.373 280.326L119.594 226.815M100.373 280.326L90.0659 259.314M100.373 280.326L87.2227 278.236M100.373 280.326L74.9146 257.456M100.373 280.326L93.7418 256.235M100.373 280.326V271.999M119.594 226.815L125.888 215.491L128.923 209.496M119.594 226.815L109.927 238.028M119.594 226.815L119.339 226.896M128.923 209.496L140.725 204.834M128.923 209.496L127.462 201.836M128.923 209.496L106.668 212.494M140.725 204.834L146.569 197.729M140.725 204.834L129.934 194.509M146.569 197.729L154.662 199.616L165.565 189.957M146.569 197.729L130.496 165.423M146.569 197.729L109.957 173.093M165.565 189.957L168.712 185.073M165.565 189.957L160.507 186.294M168.712 185.073L188.494 167.976M168.712 185.073L160.507 186.294M168.712 185.073L153.088 175.525M188.494 167.976L196.924 191.623M188.494 167.976L166.689 173.749M188.494 167.976L188.148 168.203M196.924 191.623L195.35 203.391M196.924 191.623L200.746 205.5L205.354 147.105M195.35 203.391L196.924 205.5M195.35 203.391L239.973 192.289L235.346 204.297M195.35 203.391L235.14 204.834M195.35 203.391L197.19 204.964M196.924 205.5L187.033 224.928M196.924 205.5L197.19 204.964M187.033 224.928L149.042 262.785L131.733 281.88M187.033 224.928L198.947 234.031L193.102 252.016M187.033 224.928L193.102 252.016M187.033 224.928L207.939 214.159M131.733 281.88L136.229 282.879M131.733 281.88L151.74 271.444M131.733 281.88L163.542 290.539M136.229 282.879L128.024 297.089M136.229 282.879L142.186 273.887M128.024 297.089C128.024 297.089 132.271 328.282 134.992 348.268M128.024 297.089L140.387 305.304M128.024 297.089L204.118 331.283M134.992 348.268C126.477 353.948 113.187 362.811 113.187 362.811M134.992 348.268C153.779 329.365 183.099 299.865 183.099 299.865M134.992 348.268C161.987 341.635 204.118 331.283 204.118 331.283M134.992 348.268L140.387 305.304M134.992 348.268C151.058 350.306 176.13 353.486 176.13 353.486M134.992 348.268L161.856 367.807M134.992 348.268L133.643 365.143M113.187 362.811L108.803 366.919M113.187 362.811L119.931 369.584L133.643 365.143M113.187 362.811L133.643 365.143M108.803 366.919L94.8658 369.584L100.149 371.804M108.803 366.919L94.8658 383.794M108.803 366.919L113.187 370.805M108.803 366.919L100.149 371.804M100.149 371.804L94.8658 383.794M94.8658 383.794L97.3229 391.509M94.8658 383.794L113.187 370.805M106.78 421.207L126.338 418.764M106.78 421.207L110.152 399.225M106.78 421.207L99.78 399.225M126.338 418.764L119.931 432.752H126.338M126.338 418.764L110.152 399.225M126.338 418.764L156.46 419.652M126.338 418.764V432.752M126.338 418.764L147.581 426.424M126.338 432.752L127.799 451.847M126.338 432.752L147.581 426.424M126.338 432.752L169.948 446.852M126.338 432.752L158.596 434.751M127.799 451.847L145.333 454.401M127.799 451.847L146.875 449.586M145.333 454.401L134.88 465.836M145.333 454.401L146.875 449.586M145.333 454.401L154.437 467.612L134.88 465.836M145.333 454.401L169.948 446.852M134.88 465.836L135.239 466.707M134.88 465.836L160.601 483.598M158.596 491.481L166.576 494.034M158.596 491.481L160.601 483.598M158.596 491.481L157.922 491.202M166.576 494.034L189.281 507.467L187.37 493.146M166.576 494.034L187.37 493.146M187.37 493.146L169.948 446.852M187.37 493.146L160.601 483.598M169.948 446.852L168.375 433.752L165.902 414.546L156.46 419.652M169.948 446.852L158.596 434.751M169.948 446.852L146.875 449.586M169.948 446.852L160.601 483.598M169.948 446.852L156.46 419.652M156.46 419.652L149.829 409.106M156.46 419.652L147.581 426.424M156.46 419.652L154.437 455.844L146.875 449.586M156.46 419.652L146.875 449.586M156.46 419.652L137.915 414.546M149.829 409.106L168.375 401.668M149.829 409.106L137.915 414.546M149.829 409.106L142.748 397.893M168.375 401.668L174.219 388.345M168.375 401.668L142.748 397.893M168.375 401.668L161.856 385.681M174.219 388.345L190.517 369.028M174.219 388.345L168.375 369.028M174.219 388.345L161.856 385.681M190.517 369.028L198.16 376.8M190.517 369.028L200.645 357.816M198.16 376.8L200.645 357.816M198.16 376.8L201.593 386.458M198.16 376.8L210.66 384.904M198.16 376.8L210.66 359.737M204.118 397.893V393.563L201.593 386.458M204.118 397.893L207.49 424.426L208.951 432.752M204.118 397.893L227.098 395.562M208.951 432.752H211.986L206.478 459.73M208.951 432.752V406.996M208.951 432.752L221.652 434.751M208.951 432.752L227.098 395.562M206.478 459.73L201.308 490.703M206.478 459.73L221.652 434.751M206.478 459.73H234.69M206.478 459.73L239.748 481.156M201.308 490.703L196.812 514.35L197.374 514.871M201.308 490.703L239.748 481.156M201.308 490.703L233.454 511.686M201.308 490.703L217.718 526.895M230.756 542.549L226.148 541.993L217.493 527.339L211.648 523.232L211.199 527.672L197.374 514.871M230.756 542.549L233.454 511.686M230.756 542.549L252.674 508.577M230.756 542.549L238.736 544.294M245.48 545.768L255.821 550.209M245.48 545.768L238.736 544.294M245.48 545.768L226.148 526.007L217.718 526.895M255.821 550.209L244.469 553.761L249.414 556.648M255.821 550.209L265.263 554.205M255.821 550.209L262.565 547.211M255.821 550.209L249.414 556.648M255.821 550.209L259.643 559.534M249.414 556.648L259.643 559.534M259.643 559.534L265.263 554.205M265.263 554.205L263.801 551.874L266.611 547.988L262.565 547.211M262.565 547.211L252.674 508.577M252.674 508.577L269.759 507.911M252.674 508.577L233.454 511.686M252.674 508.577L238.736 544.294M252.674 508.577L264.476 483.709M252.674 508.577L239.748 481.156M252.674 508.577L273.917 494.367M269.759 507.911L289.428 532.557M269.759 507.911L273.917 494.367M269.759 507.911L298.258 517.257M289.428 532.557L300.556 543.326M289.428 532.557L331.353 542.549M289.428 532.557L298.533 517.348M289.428 532.557L302.86 545.102M300.556 543.326L286.731 556.648M300.556 543.326L331.353 542.549M300.556 543.326L316.292 528.934M300.556 543.326L329.442 524.897M286.731 556.648L295.273 561.977M286.731 556.648L316.292 557.647M295.273 561.977L316.292 557.647M295.273 561.977L316.292 528.934M316.292 557.647L302.86 545.102M592.793 510.798V428.978M592.793 510.798L579.193 479.935M592.793 510.798L496.018 470.054M592.793 428.978L566.604 395.895M592.793 428.978L522.094 402.112M566.604 395.895L581.553 375.134L503.099 390.455M566.604 395.895L561.322 375.134M566.604 395.895L522.094 402.112M566.604 395.895L503.099 390.455M566.604 395.895L526.927 436.416M566.604 395.895L579.193 479.935M503.099 390.455L476.011 367.918M503.099 390.455L526.927 436.416M503.099 390.455L456.228 404.998M476.011 367.918L444.427 344.716L435.097 273.776M476.011 367.918L404.975 383.128M476.011 367.918L445.326 357.483L405.986 364.699H386.316M435.097 273.776L440.155 258.677L440.185 257.567M435.097 273.776L409.695 354.874M435.097 273.776L380.528 325.704M435.097 273.776L411.044 256.679M435.097 273.776L374.065 270.001M435.097 273.776L461.961 276.995L459.825 267.892L436.221 273.776M441.841 196.285L328.993 168.642M441.841 196.285L440.185 257.567M441.841 196.285L342.256 205.056M328.993 168.642L342.256 205.056M328.993 168.642L380.528 225.456M328.993 168.642L405.761 218.822M342.256 205.056L318.877 154.876M342.256 205.056L267.061 230.479M342.256 205.056L351.36 296.534M342.256 205.056L333.714 259.787M342.256 205.056L341.219 204.297M318.877 154.876L333.376 148.829M318.877 154.876L392.498 145.662M318.877 154.876L348.101 171.862L360.127 168.642M318.877 154.876L317.303 155.011M334.051 148.548L313.145 118.573M334.051 148.548L333.376 148.829M334.051 148.548L392.498 145.662M313.145 118.573L306.625 117.463L302.691 112.411M313.145 118.573L254.248 192.289M313.145 118.573L238.287 121.016M313.145 118.573L304.827 96.2588L281.336 112.134M313.145 118.573L298.645 84.935M313.145 118.573L276.278 158.54M313.145 118.573L306.625 117.254M313.145 118.573L303.703 176.857M313.145 118.573L301.23 140M313.145 118.573L353.496 133.117M264.701 63.6197L267.467 67.1722M267.467 67.1722L287.759 93.2336M267.467 67.1722L266.274 66.8901M252.449 63.6197L221.764 97.702M252.449 63.6197L281.336 112.134M252.449 63.6197L287.358 93.525M252.449 63.6197L298.645 84.935M252.449 63.6197L266.274 66.8901M252.449 63.6197L200.071 54.1254M252.449 63.6197C254.248 63.9457 225.848 62.4233 211.424 61.6214M252.449 63.6197L178.436 67.3307M252.449 63.6197L241.659 52.629M102.397 36.4204L65.4173 51.0747M102.397 36.4204L111.613 51.6298M102.397 36.4204L159.945 54.0722M102.397 36.4204L116.109 27.5391L136.004 18.6577L118.582 28.7602L102.397 36.4204ZM102.397 36.4204L200.071 54.1254M65.4173 51.0747L55.9758 38.9738H45.5227M65.4173 51.0747L58.6733 88.2655M65.4173 51.0747L77.5564 68.6155M65.4173 51.0747L110.152 65.285M65.4173 51.0747L86.0987 48.8544M65.4173 51.0747L159.945 54.0722M45.5227 38.9738L34.2828 51.0747M45.5227 38.9738L44.6235 71.3909M45.5227 38.9738L53.0534 60.1782M45.5227 38.9738L49.4566 25.4297L53.0534 60.1782M34.2828 51.0747V60.1782L36.0811 79.3842M34.2828 51.0747L53.0534 60.1782M34.2828 51.0747L44.6235 71.3909M36.0811 79.3842L37.6547 95.2596M36.0811 79.3842L58.6733 88.2655M36.0811 79.3842L53.0534 60.1782M37.6547 95.2596L36.0811 114.022H43.7243M37.6547 95.2596L58.6733 88.2655M37.6547 95.2596L44.6235 71.3909M37.6547 95.2596L42.2631 97.3874M43.7243 114.022L34.2828 132.006M43.7243 114.022L59.6849 116.908M43.7243 114.022L58.6733 88.2655M34.2828 132.006L27.314 140.222M34.2828 132.006L59.6849 116.908M34.2828 132.006L74.634 128.565M34.2828 132.006L53.503 136.225M34.2828 132.006L24.1669 130.785M34.2828 132.006L34.6018 132.128M27.314 140.222L16.9733 170.418M27.314 140.222L33.9456 160.538M16.9733 170.418L21.3569 209.496M16.9733 170.418L29.3372 174.97M16.9733 170.418L14.1014 158.762M21.3569 209.496L20.1205 253.237M21.3569 209.496V195.841M21.3569 209.496L35.182 234.031M21.3569 209.496L78.6804 194.509M20.1205 253.237L64.7429 274.664M20.1205 253.237L35.182 234.031M20.1205 253.237L28.1766 279.818M20.1205 253.237L33.496 210.94L21.3569 195.841M28.3256 279.992L15.7369 287.83M28.3256 279.992L39.2283 300.198M28.3256 279.992L28.1766 279.818M28.3256 279.992L64.7429 285.321M28.3256 279.992L40.3523 291.316L64.7429 285.321M28.3256 279.992L35.182 234.031M22.1551 272.776L28.1766 279.818M22.1551 272.776L21.6941 273.006M39.2283 300.198L64.7429 285.321M39.2283 300.198H57.8865M39.2283 300.198L64.7429 274.664M28.1766 279.818L64.7429 254.459M28.1766 279.818L64.7429 274.664M64.7429 254.459L21.6941 273.006M64.7429 254.459V274.664M64.7429 254.459L43.7243 213.382M64.7429 254.459L35.182 234.031M64.7429 254.459L78.6804 194.509M64.7429 254.459L78.2722 275.156M64.7429 274.664L80.9283 230.035M64.7429 274.664L77.2192 276.646M64.7429 274.664L74.9146 257.456M64.7429 285.321L57.8865 300.198M57.8865 300.198L64.4286 308.066M57.8865 300.198H68.2272L67.6653 303.417M67.6653 303.417L71.5992 303.73M35.182 234.031L21.3569 195.841M35.182 234.031L78.6804 194.509M35.182 234.031L80.9283 230.035M35.182 234.031L43.5835 213.722M43.7243 213.382L77.8936 165.423M43.7243 213.382L21.3569 195.841M43.7243 213.382L80.9283 230.035M43.7243 213.382L43.5835 213.722M43.7243 213.382L87.2227 220.376M21.3569 195.841L29.3372 174.97M21.3569 195.841L46.9838 181.958M21.3569 195.841L77.8936 194.527M29.3372 174.97L33.9456 160.538M29.3372 174.97L46.9838 181.958M29.3372 174.97L78.6804 194.509M33.9456 160.538L56.2006 176.968M33.9456 160.538L50.131 153.433M33.9456 160.538L28.438 155.209M33.9456 160.538V118.351M56.2006 176.968L46.9838 181.958M56.2006 176.968L77.8936 165.423M56.2006 176.968L78.6804 194.509M77.8936 165.423L78.6804 194.509M77.8936 165.423L71.0372 152.767M77.8936 165.423L83.9631 144.218M77.8936 165.423L129.934 194.509M77.8936 165.423L97.1138 148.548M77.8936 165.423L100.149 157.873L71.0372 152.767M77.8936 165.423L109.957 173.093M78.6804 194.509L78.2722 275.156M78.6804 194.509L129.784 194.953M78.6804 194.509L106.668 212.494M78.6804 194.509L109.957 173.093M78.6804 194.509L100.823 165.978M78.6804 194.509L77.8936 194.527M80.9283 230.035L89.8078 248.464L83.1763 243.479M80.9283 230.035L87.2227 220.376M80.9283 230.035L119.339 226.896M43.5835 213.722L83.1763 243.479M43.5835 213.722L146.569 173.194M83.1763 243.479L74.9146 257.456M90.0659 259.314L89.8078 258.788L93.7418 256.235M90.0659 259.314L87.2227 278.236M90.0659 259.314C89.8756 258.926 82.682 268.928 78.2722 275.156M87.2227 278.236L77.2192 276.646M77.2192 276.646C77.5463 276.182 77.8993 275.683 78.2722 275.156M93.7418 256.235L100.373 271.999M93.7418 256.235L109.633 238.359M100.373 271.999L109.927 238.028M109.927 238.028L95.5402 244.911L99.0246 238.028M109.927 238.028H99.0246M109.927 238.028L105.319 231.367M109.927 238.028L109.633 238.359M99.0246 238.028L105.319 231.367M105.319 231.367L119.339 226.896M109.633 238.359L113.749 224.928L114.985 221.486L111.051 217.823M111.051 217.823L94.1914 226.815L87.2227 220.376M111.051 217.823L87.2227 220.376M111.051 217.823L106.668 212.494M87.2227 220.376L119.339 226.896M87.2227 220.376L110.377 173.194M146.569 173.194L146.028 173.093M146.569 173.194L140.725 180.683M146.569 173.194L158.484 157.873M129.934 194.509L129.784 194.953M129.934 194.509L140.725 180.683M129.934 194.509L160.507 186.294M127.462 201.836L129.784 194.953M127.462 201.836L106.668 212.494M50.131 153.433L71.0372 152.767M50.131 153.433L61.7638 142.485M50.131 153.433L31.4728 141.221M71.0372 152.767L62.0453 142.22M62.0453 142.22L74.634 128.565M62.0453 142.22L61.7638 142.485M74.634 128.565L96.5518 137.113M74.634 128.565L106.33 122.903L108.466 132.006M74.634 128.565L108.466 132.006M74.634 128.565L59.6849 116.908M74.634 128.565L76.9944 80.3833M74.634 128.565L31.4728 141.221M74.634 128.565L131.058 112.134M96.5518 137.113L61.7638 142.485M96.5518 137.113L105.656 117.352M96.5518 137.113L83.9631 144.218M96.5518 137.113L97.1138 148.548M96.5518 137.113L108.466 132.006M61.7638 142.485L83.9631 144.218M61.7638 142.485L53.503 136.225M61.7638 142.485L34.6018 132.128M108.466 132.006L110.939 137.113L123.752 126.011M108.466 132.006L123.752 126.011M108.466 132.006L97.1138 148.548M59.6849 116.908L70.4752 110.999M71.0372 110.691L92.8426 104.03M71.0372 110.691L70.4752 110.999M71.0372 110.691L58.6733 88.2655M71.0372 110.691L70.993 110.652M92.8426 104.03L105.656 117.352M92.8426 104.03L89.0211 98.5902M92.8426 104.03L126.45 87.4884M92.8426 104.03L131.058 112.134M105.656 117.352L70.4752 110.999M105.656 117.352L126.45 87.4884M105.656 117.352L123.752 126.011M105.656 117.352L145.445 121.016L137.322 122.886M70.4752 110.999L70.993 110.652M76.9944 80.3833L89.0211 98.5902M76.9944 80.3833L76.7134 80.7022M76.9944 80.3833L77.5564 68.6155M89.0211 98.5902H57.2121M89.0211 98.5902L70.993 110.652M57.2121 98.5902L66.4289 92.3732M57.2121 98.5902L58.6733 88.2655M57.2121 98.5902L70.993 110.652M66.4289 92.3732L58.6733 88.2655M66.4289 92.3732L53.0534 60.1782M66.4289 92.3732L76.4324 81.0211M31.4728 141.221L28.438 155.209M31.4728 141.221L52.379 145.662L53.503 136.225M31.4728 141.221L53.503 136.225M31.4728 141.221L24.1669 130.785M31.4728 141.221L9.77979 142.22M31.4728 141.221L21.3511 144.163M31.4728 141.221L33.9456 118.351M28.438 155.209L18.3221 164.09L14.1014 158.762M28.438 155.209L21.3511 144.163M58.6733 88.2655L77.5564 68.6155M70.993 110.652L42.2631 97.3874M53.0534 60.1782L76.7134 80.7022M53.0534 60.1782L77.5564 68.6155M77.5564 68.6155L110.152 65.285M77.5564 68.6155L131.058 112.134M129.784 194.953L106.668 212.494M106.668 212.494L110.377 173.194M110.377 173.194L109.957 173.093M109.957 173.093L114.873 167.31M109.957 173.093L130.496 165.423M109.957 173.093L140.725 180.683M109.957 173.093H146.028M114.873 167.31L121.392 161.426M114.873 167.31L109.957 161.426M114.873 167.31L146.028 173.093M121.392 161.426H109.957M121.392 161.426L130.496 165.423M121.392 161.426L144.771 158.428M121.392 161.426L125.776 155.764M121.392 161.426L116.671 155.764M109.957 161.426L116.671 155.764M146.569 173.093L144.771 158.428M144.771 158.428L130.496 165.423M144.771 158.428L138.364 147.882M144.771 158.428L121.392 145.328L110.377 152.767L144.771 158.428ZM138.364 147.882L126.45 139M138.364 147.882L122.853 150.213L126.45 139M138.364 147.882L132.07 151.823M125.776 155.764H116.671M125.776 155.764L132.07 151.823M125.776 155.764L131.957 145.995L132.07 151.823M126.45 139L89.3583 152.767L100.823 165.978M126.45 139L100.823 165.978M126.45 139L138.364 147.105L158.484 157.873M126.45 139L163.766 133.077M100.823 165.978L121.842 180.683L77.8936 194.527M160.507 186.294L153.088 175.525M160.507 186.294L146.028 173.093M160.507 186.294L140.725 180.683M160.507 186.294L166.689 173.749M160.507 186.294L188.148 168.203M153.088 175.525L166.689 173.749M146.028 173.093L188.148 168.203M146.028 173.093L166.014 173.728M166.689 173.749L166.014 173.728M188.148 168.203L205.354 147.105M188.148 168.203L227.272 144.329M188.148 168.203L181.638 129.009M188.148 168.203L267.061 230.479M205.354 147.105L227.272 144.329M205.354 147.105L197.936 139M205.354 147.105L213.288 135.032M205.354 147.105L181.638 144.329H227.272M227.272 144.329L213.672 134.449M227.272 144.329L238.287 121.016M227.272 144.329L200.746 165.09M227.272 144.329L207.939 214.159M227.272 144.329L235.346 204.297M227.272 144.329L253.873 191.623M227.272 144.329L197.19 204.964M213.672 134.449H187.033M213.672 134.449L197.936 139M213.672 134.449L200.071 110.802M213.672 134.449L175.119 121.016M213.672 134.449L213.288 135.032M213.672 134.449L238.287 121.016M187.033 134.449L197.936 139M187.033 134.449L181.638 129.009M187.033 134.449L158.484 157.873M187.033 134.449L200.071 110.802M126.45 87.4884L76.4324 81.0211M126.45 87.4884H156.236M126.45 87.4884L131.058 112.134M126.45 87.4884L153.088 68.6155M126.45 87.4884L166.014 112.134H153.088M126.45 87.4884L112.923 69.0595M76.4324 81.0211L76.7134 80.7022M110.152 65.285L76.7134 80.7022M110.152 65.285L86.0987 48.8544M110.152 65.285L111.613 51.6298M110.152 65.285L159.945 54.0722M110.152 65.285L173.208 42.4154L174.444 54.0722L111.613 51.6298M110.152 65.285L148.817 69.0595H112.923M110.152 65.285L112.923 69.0595M86.0987 48.8544L111.613 51.6298M86.0987 48.8544L139.713 36.4204L111.613 51.6298M111.613 51.6298L173.208 28.2052L217.156 41.0832L111.613 51.6298ZM44.6235 71.3909L42.2631 97.3874M131.058 112.134L123.752 126.011M131.058 112.134L156.236 87.4884M131.058 112.134H153.088M131.058 112.134L137.322 122.886M123.752 126.011L142.635 132.006M123.752 126.011L137.322 122.886M142.635 132.006L137.322 122.886M142.635 132.006L164.216 127.788L160.17 126.011M156.236 87.4884L153.088 112.134M156.236 87.4884L155.569 83.4918M153.088 112.134L149.155 122.126L160.17 126.011M153.088 112.689L160.17 126.011M160.17 126.011L138.589 122.903L137.322 122.886M153.088 68.6155L193.552 39.6399L186.257 63.3977M153.088 68.6155L176.917 93.8164M153.088 68.6155L153.163 69.0595M176.917 93.8164L177.096 93.2336M176.917 93.8164L178.4 75.8154M155.569 83.4918L159.945 81.1604L153.163 69.0595M155.569 83.4918L153.163 69.0595M24.1669 130.785L9.77979 141.221L11.2294 147.105M24.1669 130.785L23.8708 131.159M24.1669 130.785L39.4531 120.017L33.9456 118.351M11.2294 147.105L14.1014 158.762M11.2294 147.105L21.3511 144.163M11.2294 147.105L23.8708 131.159M14.1014 158.762L21.3511 144.163M34.6018 132.128L25.1784 124.679L23.8708 131.159M23.8708 131.159L33.9456 118.351M158.484 157.873L164.216 133.006M164.216 133.006L181.638 129.009M164.216 133.006L163.766 133.077M181.638 129.009L164.216 132.006L166.014 173.728M200.071 110.802L189.843 96.2588M200.071 110.802L175.119 121.016M200.071 110.802L221.764 97.702M200.071 110.802L219.065 112.111M175.119 121.016L189.843 96.2588M189.843 96.2588L221.764 97.702M221.764 97.702L281.336 112.134M221.764 97.702L238.287 121.016M221.764 97.702L211.933 63.3977M219.404 112.134L213.288 135.032M219.404 112.134L237.275 120.54M219.404 112.134L219.065 112.111M238.287 121.016L235.346 204.297M238.287 121.016L254.248 192.289M238.287 121.016L237.275 120.54M238.287 121.016L287.358 93.525M238.287 121.016L276.278 158.54M200.746 165.09L163.766 133.077M200.746 165.09L207.939 214.159M207.939 214.159L198.947 234.697M207.939 214.159L197.19 204.964M235.14 204.834L235.346 204.297M235.14 204.834L193.102 252.016M235.14 204.834L254.248 192.289M235.14 204.834L247.728 252.016M267.061 230.479L285.157 246.132M267.061 230.479L247.728 252.016M267.061 230.479L252.449 270.001M267.061 230.479L266.049 230.541M198.947 234.697L235.346 204.297M198.947 234.697L266.049 230.541M198.947 234.697L252.449 270.001M198.947 234.697L197.19 204.964M193.102 252.016L148.255 262.785L151.74 271.444M193.102 252.016L183.099 299.865M193.102 252.016L252.449 270.001M193.102 252.016L151.74 271.444M193.102 252.016L246.942 251.128M254.248 192.289L303.703 176.857M254.248 192.289L253.873 191.623M254.248 192.289L247.728 252.016M237.275 120.54L281.336 112.134M281.336 112.134L211.424 61.6214M281.336 112.134L298.645 84.935M281.336 112.134L306.625 117.254M219.065 112.111L286.956 93.8164M286.956 93.8164L287.358 93.525M286.956 93.8164L298.645 84.935M287.759 93.2336L287.358 93.525M287.759 93.2336L302.691 112.411M287.759 93.2336L321.462 100.922M287.358 93.525L186.257 63.3977M211.424 61.6214L178.436 67.3307M211.424 61.6214L200.071 54.1254M211.424 61.6214L211.933 63.3977M211.424 61.6214L193.552 60.1162M298.645 84.935L321.462 100.922M298.645 84.935L352.259 98.7012M298.645 84.935L311.796 76.8308H360.127L298.645 84.935ZM298.645 84.935L296.397 72.8341L266.274 66.8901M302.691 112.411C305.277 108.618 310.717 100.766 311.796 99.7003L322.474 109.359M302.691 112.411L322.474 109.359M302.691 112.411L276.278 158.54M322.474 109.359L363.387 111.135L347.089 113.911L322.474 109.359ZM321.462 100.922L352.259 98.7012M352.259 98.7012L363.387 87.4884L396.769 93.8164L352.259 98.7012ZM276.278 158.54L318.877 132.117M276.278 158.54L303.703 176.857M276.278 158.54L317.303 155.011M318.877 132.117L306.625 117.254M318.877 132.117L405.761 125.9L353.496 133.117M318.877 132.117L353.496 133.117M303.703 176.857L341.219 204.297M333.376 148.829L301.23 140M301.23 140L353.496 133.117M353.496 133.117L392.498 145.662M353.496 133.117L404.188 141.221M177.096 93.2336L252.449 87.4884L178.491 74.7214L178.4 75.8154M177.096 93.2336L186.257 63.3977M160.655 65.285L153.988 63.3977L127.462 73.1672L172.421 68.6155L160.655 65.285ZM160.655 65.285L178.491 54.0722L178.471 58.8459M160.655 65.285L178.4 75.8154M178.4 75.8154L178.436 67.3307M178.471 58.8459L178.436 67.3307M178.471 58.8459L193.552 60.1162M200.071 54.1254L219.404 60.2892L211.933 63.3977M200.071 54.1254L244.132 44.5247L193.552 60.1162M200.071 54.1254L193.552 60.1162M200.071 54.1254L241.659 52.629M253.873 191.623L284.79 245.492M285.157 246.132L247.728 252.016M285.157 246.132L296.172 252.016M285.157 246.132L284.79 245.492M247.728 252.016L241.996 299.865M252.449 270.001L317.753 335.39M252.449 270.001L183.099 299.865M252.449 270.001L151.74 271.444M252.449 270.001L241.996 299.865M317.753 335.39L310.672 276.995M317.753 335.39L333.714 259.787M317.753 335.39L351.36 296.534M317.753 335.39L360.127 355.706M317.753 335.39L353.271 358.26M317.753 335.39L320.641 350.711M317.753 335.39L183.099 299.865M317.753 335.39L241.996 299.865M317.753 335.39L280.324 353.486M317.753 335.39L254.023 332.393M317.753 335.39L380.896 326.072M317.753 335.39L329.33 302.418M310.672 276.995L277.177 263.4M310.672 276.995L284.79 245.492M310.672 276.995L329.33 302.418M310.672 276.995L285.157 257.567L329.33 302.418M246.942 251.128L239.973 281.769L241.996 299.865M246.942 251.128L277.177 263.4M246.942 251.128L163.542 290.539M241.996 299.865L277.177 263.4M241.996 299.865L332.702 260.235M241.996 299.865L151.74 271.444M241.996 299.865L204.118 331.283M241.996 299.865H183.099M241.996 299.865L163.542 290.539M241.996 299.865L270.77 302.341M241.996 299.865L254.023 332.393M241.996 299.865L250.876 344.827M241.996 299.865L351.36 296.534M266.049 230.541L277.177 263.4M277.177 263.4L296.172 252.016M277.177 263.4L271.669 302.418M296.172 252.016L351.36 296.534M333.714 259.787L332.702 260.235M333.714 259.787L374.065 270.001M333.714 259.787L351.525 297.644M351.36 296.534L341.219 204.297M351.36 296.534L409.695 322.734M351.36 296.534L386.316 364.699M351.36 296.534L380.528 325.704M351.36 296.534L374.065 270.001M351.36 296.534L404.413 290.317M351.36 296.534L351.525 297.644M332.702 260.235L405.761 230.541M405.761 230.541L341.219 204.297M405.761 230.541V218.822M405.761 230.541L438.535 256.679M405.761 230.541L363.275 220.598L405.761 218.822M405.761 230.541L433.636 223.707L421.947 312.521M405.761 230.541L421.947 312.521M341.219 204.297L380.528 225.456M360.127 355.706L386.316 364.699M360.127 355.706L353.271 358.26M360.127 355.706L409.695 322.734M360.127 355.706L351.525 297.644M353.271 358.26L333.714 365.809M353.271 358.26L337.029 354.874M353.271 358.26V370.361M353.271 358.26L386.316 381.129M320.788 351.488L306.963 367.252M320.788 351.488L320.641 350.711M320.788 351.488L337.029 354.874M306.963 367.252L332.702 365.864M306.963 367.252H300.668M306.963 367.252L311.683 402.334M333.714 365.809L320.641 350.711M333.714 365.809L332.702 365.864M353.271 370.361L332.702 365.864M353.271 370.361L360.127 372.595M337.029 354.874L349.787 387.901M337.029 354.874L369.41 381.129M349.787 387.901L376.65 400.224L375.357 392.564M349.787 387.901L322.249 376.134L279.65 381.018M349.787 387.901L351.81 389.154M374.065 384.904L369.41 381.129M374.065 384.904L390.138 412.88M374.065 384.904L375.357 392.564M386.316 381.129L360.127 372.595M386.316 381.129V364.699M386.316 381.129L404.975 383.128M386.316 381.129L396.095 398.226L404.975 383.128M386.316 381.129L383.844 398.226M386.316 381.129H369.41M386.316 364.699L360.127 372.595M386.316 364.699L409.695 322.734M386.316 364.699L404.975 383.128M409.695 322.734L408.845 317.516M409.695 322.734L380.528 325.704M409.695 322.734L421.947 312.521M409.695 322.734L405.986 361.368M409.695 354.874L441.504 342.828L415.652 318.293L409.695 354.874ZM409.695 354.874L380.896 326.072M380.528 325.704L410.651 257.567M380.528 325.704L380.896 326.072M380.528 325.704L404.413 290.317M380.528 325.704L408.845 317.516M411.044 256.679L440.185 257.567M411.044 256.679L410.651 257.567M374.065 270.001L404.413 290.317M404.413 290.317L440.185 257.567M404.413 290.317L408.682 316.517M440.185 257.567L397.331 249.796L425.768 208.386M440.185 257.567L425.768 208.386M440.185 257.567L438.535 256.679M440.185 257.567L468.143 222.819L405.761 218.822M425.768 208.386L410.651 257.567M438.535 256.679L405.761 218.822M438.535 256.679L380.528 225.456M405.761 218.822L380.528 225.456M151.74 271.444L183.099 299.865M183.099 299.865L204.118 331.283M183.099 299.865L140.387 305.304M183.099 299.865L176.13 353.486M183.099 299.865L254.023 332.393M142.186 273.887L140.387 305.304M142.186 273.887L163.542 290.539M140.387 305.304L168.375 369.028M204.118 331.283L163.542 290.539M204.118 331.283L138.477 335.39L163.542 290.539M204.118 331.283L176.13 353.486M204.118 331.283L254.023 332.393M204.118 331.283L250.876 344.827M204.118 331.283L225.586 343.383M204.118 331.283L210.974 348.046M204.118 331.283L200.645 357.816M176.13 353.486L200.645 357.816M176.13 353.486C176.13 353.486 167.43 362.214 161.856 367.807M176.13 353.486L133.643 365.143M254.023 332.393L267.061 350.539M254.023 332.393L272.445 347.167M271.669 302.418L302.916 310.078M271.669 302.418L270.77 302.341M302.916 310.078L297.746 361.368M302.916 310.078L218.167 349.489M297.746 361.368L300.668 367.252M297.746 361.368L270.77 302.341M297.746 361.368L240.31 355.262M297.746 361.368L276.615 353.911M300.668 367.252L311.683 402.334M280.324 353.486L276.615 353.911M280.324 353.486L272.445 347.167M250.876 344.827L257.507 347.167M225.586 343.383L210.974 348.046M225.586 343.383L252.224 347.38L235.477 350.933M225.586 343.383L235.477 350.933M210.974 348.046L218.167 349.489M210.974 348.046L200.645 357.816M210.974 348.046L225.024 352.487L200.645 357.816M218.167 349.489L210.66 384.904M218.167 349.489L210.66 359.737M392.498 145.662L404.188 141.221M392.498 145.662L468.143 159.206L404.188 141.221M360.127 168.642L317.303 155.011M360.127 168.642L463.116 184.734M360.127 168.642L354.62 171.862L462.186 184.851M462.186 184.851L560.984 220.598L493.995 180.854L463.116 184.734M462.186 184.851L463.116 184.734M408.845 317.516L408.682 316.517M408.682 316.517L421.947 312.521M408.682 316.517L418.8 298.976M421.947 312.521L473.538 304.083M419.586 298.976L473.538 304.083M473.538 304.083L499.502 269.779L504.11 273.776L473.538 304.083ZM168.375 369.028L200.645 357.816M168.375 369.028L167.7 377.355L159.495 371.804L168.375 369.028ZM161.856 367.807L164.328 373.247L156.46 378.798V370.805M161.856 367.807L156.46 370.805M110.152 399.225L137.915 414.546M110.152 399.225L124.989 396.579M126.338 396.339L137.915 414.546M126.338 396.339L133.643 383.794M126.338 396.339L117.795 378.798M126.338 396.339L124.989 396.579M137.915 414.546L142.748 397.893M137.915 414.546L133.643 383.794M142.748 397.893L161.856 385.681M142.748 397.893L133.643 383.794M161.856 385.681L133.643 383.794M133.643 383.794L117.795 378.798M133.643 383.794L119.931 370.805L108.803 373.247L133.643 383.794ZM133.643 383.794V365.143M133.643 383.794L156.46 370.805M117.795 378.798L99.78 399.225M99.78 399.225L124.989 396.579M99.78 399.225L97.3229 391.509M124.989 396.579L103.521 392.645M97.3229 391.509L103.521 392.645M113.187 370.805L103.521 392.645M133.643 365.143L156.46 370.805M147.581 426.424L158.596 434.751M158.596 434.751L146.875 449.586M160.601 483.598L150.953 484.931L147.581 463.171L160.601 483.598ZM135.239 466.707L142.748 484.931L157.922 491.202M135.239 466.707L157.922 491.202M172.196 503.137L153.426 505.469L151.852 500.029L172.196 503.137ZM172.196 503.137L156.46 512.907L170.735 516.126M172.196 503.137L170.735 516.126M170.735 516.126L174.557 510.687L179.727 518.68L170.735 516.126ZM241.659 52.629L309.548 55.6264L323.935 63.3977L241.659 52.629ZM522.094 402.112L404.975 383.128M526.927 436.416L579.193 479.935M526.927 436.416L456.228 404.998M579.193 479.935L496.018 470.054M496.018 470.054L401.153 525.674L405.84 497.456M496.018 470.054L472.976 455.844M496.018 470.054V455.844H472.976M496.018 470.054L405.986 498.364M456.228 404.998L472.976 455.844M456.228 404.998L408.682 428.978M456.228 404.998L444.427 358.26M456.228 404.998L455.329 404.761M472.976 455.844L503.099 411.77M472.976 455.844L395.983 436.416M472.976 455.844L405.986 498.364M503.099 411.77L444.427 358.26M503.099 411.77L405.986 361.368M503.099 411.77L401.153 390.455M444.427 358.26L408.682 428.978M408.682 428.978L361.886 436.71M408.682 428.978L395.983 436.416M408.682 428.978L405.986 416.766M408.682 428.978L393.234 422.65L405.986 416.766M408.682 428.978L394.746 427.424L390.138 412.88M408.682 428.978L390.138 412.88M405.986 361.368L404.234 371.915M401.153 390.455L455.329 404.761M401.153 390.455L404.234 371.915M395.983 436.416L405.84 497.456M395.983 436.416H362.488M395.983 436.416L403.851 404.665M395.983 436.416L387.553 426.979M405.986 498.364L405.84 497.456M405.84 497.456L374.739 510.131L358.779 503.026M405.84 497.456L358.779 503.026M405.84 497.456L362.488 436.416M331.353 542.549L329.442 524.897M331.353 542.549L316.741 528.227M316.741 528.227L316.292 528.934M316.741 528.227L313.145 519.79M316.741 528.227L298.258 517.257M316.741 528.227L325.846 517.257M329.442 524.897L325.846 517.257M329.442 524.897L313.145 519.79M329.442 524.897L302.86 545.102M358.779 503.026L362.488 436.416M358.779 503.026L289.428 472.052M362.488 436.416L356.755 425.203M362.488 436.416L370.805 415.323M362.488 436.416L361.886 436.71M362.488 436.416L347.539 430.421L356.755 425.203M362.488 436.416L328.164 412.88M289.428 472.052L299.657 411.77M289.428 472.052L256.608 420.874M289.428 472.052L260.991 477.714M289.428 472.052L289.645 472.386L285.382 497.365M289.428 472.052L317.405 406.219M289.428 472.052L361.886 436.71M299.657 411.77L317.641 405.664M299.657 411.77L256.608 420.874M299.657 411.77L279.65 381.018M317.641 405.664L279.65 381.018M317.641 405.664L346.977 414.212M317.641 405.664L317.405 406.219M317.641 405.664L356.755 425.203M317.641 405.664L328.164 412.88M256.608 420.874L260.991 477.714M256.608 420.874L249.639 438.969L208.951 406.996M256.608 420.874L247.054 453.291M256.608 420.874L247.054 431.753M256.608 420.874L240.984 416.324M256.608 420.874L239.748 440.302M256.608 420.874L263.577 403M256.608 420.874L227.098 395.562M260.991 477.714L247.054 453.291M260.991 477.714L234.69 459.73M260.991 477.714L285.382 497.365M260.991 477.714L252.786 478.714L264.476 483.709M260.991 477.714L264.476 483.709M208.951 406.996L240.984 416.324M208.951 406.996L221.652 434.751M247.054 453.291L221.652 434.751M247.054 453.291V431.753M247.054 453.291L234.69 459.73M221.652 434.751L247.054 431.753M221.652 434.751L227.159 395.117M221.652 434.751L238.174 403M221.652 434.751L234.69 459.73M221.652 434.751L239.748 440.302M239.748 440.302L240.984 416.324M239.748 440.302L234.69 459.73M240.984 416.324L238.174 403M240.984 416.324L263.577 403M238.174 403H263.577M238.174 403L267.173 384.904M238.174 403L252.224 366.475M238.174 403L227.159 395.117M263.577 403L262.453 400.224M263.577 403L227.159 395.117M262.453 400.224L267.173 384.904M262.453 400.224L258.069 378.798M267.173 384.904L266.049 375.356M267.173 384.904L252.224 366.475M267.173 384.904L227.098 395.562M266.049 375.356L258.069 378.798M266.049 375.356L276.615 353.911M266.049 375.356L267.061 350.539M258.069 378.798L227.098 395.562M252.224 366.475L240.31 355.262M252.224 366.475L231.993 369.028M252.224 366.475L257.507 347.167M252.224 366.475L276.615 353.911M234.69 459.73L239.748 481.156M239.748 481.156L264.476 483.709M227.098 395.562L201.593 386.458M227.098 395.562L231.993 369.028M227.098 395.562L210.66 384.904M233.454 511.686L217.718 526.895M233.454 511.686L197.374 514.871M273.917 494.367L287.518 502.471M273.917 494.367L285.382 497.365M287.518 502.471L285.382 497.365M287.518 502.471L305.614 512.241M287.518 502.471L298.258 517.257M298.533 517.348L298.258 517.257M298.533 517.348L313.145 519.79M298.258 517.257L305.614 512.241M305.614 512.241L325.846 517.257M313.145 519.79L325.846 517.348M455.329 404.761L404.234 371.915M404.234 371.915L398.905 391.01M231.993 369.028L201.593 386.458M231.993 369.028L216.369 360.702L233.341 348.046L231.993 369.028ZM231.993 369.028L240.31 355.262M235.477 350.933L240.31 355.262M240.31 355.262L224.462 360.702L222.663 355.262H240.31ZM201.633 350.267L210.66 359.737M257.507 347.167L267.061 350.539M276.615 353.911L274.142 353.038M267.061 350.539L274.142 353.038M272.445 347.167L274.142 353.038M311.683 402.334L285.719 364.699L325.284 393.23M311.683 402.334L325.284 393.23M325.284 393.23L346.977 414.212M325.284 393.23L317.405 406.219M325.284 393.23L351.81 389.154M325.284 393.23L367.209 405.22M346.977 414.212L367.209 405.22M346.977 414.212L359.453 417.106M346.977 414.212L345.74 396.117L328.164 412.88M346.977 414.212L328.234 412.928L328.164 412.88M370.805 415.323L387.553 426.979M370.805 415.323L359.903 417.21M370.805 415.323L390.138 412.88M387.553 426.979L361.886 436.71M387.553 426.979L403.851 404.665M405.986 416.766L403.851 405.22M405.986 416.766L390.138 412.88M390.138 412.88L383.844 398.226M390.138 412.88L389.576 412.532M390.138 412.88L396.095 409.311M383.844 398.226L370.879 415.313L358.441 408.773L359.903 417.21M383.844 398.226L398.905 391.01M383.844 398.226L403.851 404.665M383.844 398.226L396.095 409.311M359.903 417.21L367.209 405.22M359.903 417.21L359.453 417.106M367.209 405.22L351.81 389.154M359.453 417.106L339.558 422.095L353.383 428.978L359.453 417.106ZM403.851 404.665L398.905 391.01M403.851 404.665L396.095 409.311M375.357 392.564L389.576 412.532M389.576 412.532L351.81 389.154M174.444 8.88814L212.66 15.1051L193.552 8L174.444 8.88814ZM278.751 278.66L315.393 256.679L320.788 262.119L278.751 278.66ZM425.768 91.9291L429.478 103.031L469.941 59.179L425.768 91.9291ZM219.065 46.634L235.252 30.2035H258.069L219.065 46.634ZM271.669 26.984L298.645 25.2077L333.376 30.2035L271.669 26.984ZM308.424 49.0764L311.796 46.634L341.244 52.629L308.424 49.0764ZM341.244 58.8459L353.496 60.1162L354.62 54.1254L341.244 58.8459ZM345.965 67.3307L377.212 49.0764H381.371L345.965 67.3307ZM271.669 49.0764L286.956 50.6307L292.238 44.5247L271.669 49.0764ZM512.091 98.7012L585.15 96.2588L575.147 100.144L512.091 98.7012ZM178.041 534.999L194.227 540.217V524.564L178.041 534.999ZM488.15 232.255L515.126 239.36L546.372 235.697L488.15 232.255Z" stroke="white" stroke-width="0.5"/>
<ellipse cx="10.5706" cy="291.65" rx="2.13558" ry="2.10933" fill="white"/>
<ellipse cx="22.932" cy="299.643" rx="2.13558" ry="2.10933" fill="white"/>
<ellipse cx="38.2186" cy="310.967" rx="2.13558" ry="2.10933" fill="white"/>
<ellipse cx="64.2938" cy="307.858" rx="2.13558" ry="2.10933" fill="white"/>
<ellipse cx="44.7395" cy="310.301" rx="1.46119" ry="1.44323" fill="white"/>
<ellipse cx="90.8219" cy="304.749" rx="1.91078" ry="1.88729" fill="white"/>
<ellipse cx="97.3414" cy="296.756" rx="1.91078" ry="1.88729" fill="white"/>
<ellipse cx="101.163" cy="280.77" rx="1.91078" ry="1.88729" fill="white"/>
<ellipse cx="99.3644" cy="237.695" rx="1.91078" ry="1.88729" fill="white"/>
<ellipse cx="119.37" cy="226.815" rx="1.91078" ry="1.88729" fill="white"/>
<ellipse cx="129.036" cy="209.497" rx="1.91078" ry="1.88729" fill="white"/>
<ellipse cx="140.952" cy="204.612" rx="1.91078" ry="1.88729" fill="white"/>
<ellipse cx="130.16" cy="194.398" rx="1.91078" ry="1.88729" fill="white"/>
<ellipse cx="127.575" cy="201.836" rx="1.34879" ry="1.33221" fill="white"/>
<ellipse cx="110.716" cy="173.194" rx="1.34879" ry="1.33221" fill="white"/>
<ellipse cx="114.986" cy="167.865" rx="1.79838" ry="1.77628" fill="white"/>
<ellipse cx="126.451" cy="139.001" rx="1.79838" ry="1.77628" fill="white"/>
<ellipse cx="146.345" cy="197.951" rx="1.91078" ry="1.88729" fill="white"/>
<ellipse cx="155.112" cy="199.727" rx="1.91078" ry="1.88729" fill="white"/>
<ellipse cx="168.377" cy="185.295" rx="1.91078" ry="1.88729" fill="white"/>
<ellipse cx="188.384" cy="167.754" rx="1.91078" ry="1.88729" fill="white"/>
<ellipse cx="64.5187" cy="274.775" rx="1.91078" ry="1.88729" fill="white"/>
<ellipse cx="28.7775" cy="279.66" rx="1.91078" ry="1.88729" fill="white"/>
<ellipse cx="9.89418" cy="278.993" rx="1.91078" ry="1.88729" fill="white"/>
<ellipse cx="13.714" cy="264.339" rx="1.91078" ry="1.88729" fill="white"/>
<ellipse cx="40.4689" cy="291.427" rx="1.91078" ry="1.88729" fill="white"/>
<ellipse cx="20.0123" cy="252.793" rx="1.91078" ry="1.88729" fill="white"/>
<ellipse cx="35.0714" cy="233.921" rx="1.91078" ry="1.88729" fill="white"/>
<ellipse cx="64.5187" cy="254.57" rx="1.91078" ry="1.88729" fill="white"/>
<ellipse cx="80.9298" cy="230.146" rx="1.91078" ry="1.88729" fill="white"/>
<ellipse cx="89.2472" cy="247.909" rx="1.91078" ry="1.88729" fill="white"/>
<ellipse cx="78.0078" cy="274.997" rx="1.68598" ry="1.66526" fill="white"/>
<ellipse cx="43.6095" cy="213.715" rx="1.91078" ry="1.88729" fill="white"/>
<ellipse cx="22.0338" cy="196.397" rx="1.91078" ry="1.88729" fill="white"/>
<ellipse cx="21.8082" cy="209.941" rx="1.91078" ry="1.88729" fill="white"/>
<ellipse cx="16.6373" cy="170.863" rx="1.91078" ry="1.88729" fill="white"/>
<ellipse cx="33.9435" cy="159.983" rx="1.91078" ry="1.88729" fill="white"/>
<ellipse cx="50.0207" cy="153.433" rx="1.34879" ry="1.33221" fill="white"/>
<ellipse cx="70.4748" cy="152.767" rx="2.02318" ry="1.99831" fill="white"/>
<ellipse cx="61.9328" cy="142.553" rx="2.02318" ry="1.99831" fill="white"/>
<ellipse cx="52.0417" cy="145.44" rx="1.34879" ry="1.33221" fill="white"/>
<ellipse cx="53.3952" cy="136.558" rx="1.34879" ry="1.33221" fill="white"/>
<ellipse cx="31.2498" cy="141.332" rx="2.13558" ry="2.10933" fill="white"/>
<ellipse cx="77.448" cy="165.423" rx="2.02318" ry="1.99831" fill="white"/>
<ellipse cx="95.8772" cy="137.224" rx="2.02318" ry="1.99831" fill="white"/>
<ellipse cx="108.693" cy="131.674" rx="2.02318" ry="1.99831" fill="white"/>
<ellipse cx="110.829" cy="136.669" rx="1.46119" ry="1.44323" fill="white"/>
<ellipse cx="74.8596" cy="128.898" rx="1.46119" ry="1.44323" fill="white"/>
<ellipse cx="34.3969" cy="132.007" rx="1.68598" ry="1.66526" fill="white"/>
<ellipse cx="9.89204" cy="141.998" rx="1.68598" ry="1.66526" fill="white"/>
<ellipse cx="25.6303" cy="124.679" rx="1.68598" ry="1.66526" fill="white"/>
<ellipse cx="33.9473" cy="118.018" rx="1.23639" ry="1.22119" fill="white"/>
<ellipse cx="39.3423" cy="120.461" rx="1.23639" ry="1.22119" fill="white"/>
<ellipse cx="36.1925" cy="113.356" rx="1.91078" ry="1.88729" fill="white"/>
<ellipse cx="70.5861" cy="111.357" rx="1.91078" ry="1.88729" fill="white"/>
<ellipse cx="37.3209" cy="94.4829" rx="1.91078" ry="1.88729" fill="white"/>
<ellipse cx="57.5519" cy="98.2573" rx="1.91078" ry="1.88729" fill="white"/>
<ellipse cx="89.0211" cy="98.2573" rx="1.91078" ry="1.88729" fill="white"/>
<ellipse cx="92.8463" cy="104.253" rx="1.91078" ry="1.88729" fill="white"/>
<ellipse cx="126.563" cy="87.8216" rx="1.91078" ry="1.88729" fill="white"/>
<ellipse cx="213.561" cy="135.337" rx="1.91078" ry="1.88729" fill="white"/>
<ellipse cx="238.288" cy="120.239" rx="1.91078" ry="1.88729" fill="white"/>
<ellipse cx="227.05" cy="144.219" rx="1.68598" ry="1.66526" fill="white"/>
<ellipse cx="303.257" cy="176.858" rx="2.36038" ry="2.33136" fill="white"/>
<ellipse cx="254.022" cy="193.288" rx="2.36038" ry="2.33136" fill="white"/>
<ellipse cx="239.185" cy="192.178" rx="1.23639" ry="1.22119" fill="white"/>
<ellipse cx="235.145" cy="204.612" rx="2.13558" ry="2.10933" fill="white"/>
<ellipse cx="196.025" cy="203.946" rx="1.46119" ry="1.44323" fill="white"/>
<ellipse cx="199.286" cy="234.254" rx="1.79838" ry="1.77628" fill="white"/>
<ellipse cx="193.443" cy="251.794" rx="1.79838" ry="1.77628" fill="white"/>
<ellipse cx="148.707" cy="262.896" rx="1.57359" ry="1.55424" fill="white"/>
<ellipse cx="152.192" cy="271.667" rx="2.13558" ry="2.10933" fill="white"/>
<ellipse cx="128.362" cy="297.866" rx="2.13558" ry="2.10933" fill="white"/>
<ellipse cx="183.438" cy="299.865" rx="2.13558" ry="2.10933" fill="white"/>
<ellipse cx="242.106" cy="298.755" rx="2.13558" ry="2.10933" fill="white"/>
<ellipse cx="271.109" cy="302.973" rx="2.13558" ry="2.10933" fill="white"/>
<ellipse cx="303.255" cy="310.522" rx="2.13558" ry="2.10933" fill="white"/>
<ellipse cx="250.654" cy="344.494" rx="2.13558" ry="2.10933" fill="white"/>
<ellipse cx="137.355" cy="414.213" rx="2.13558" ry="2.10933" fill="white"/>
<ellipse cx="156.238" cy="419.764" rx="2.13558" ry="2.10933" fill="white"/>
<ellipse cx="169.838" cy="446.963" rx="1.57359" ry="1.55424" fill="white"/>
<ellipse cx="166.692" cy="494.034" rx="2.69758" ry="2.66442" fill="white"/>
<ellipse cx="189.056" cy="507.245" rx="1.68598" ry="1.66526" fill="white"/>
<ellipse cx="179.838" cy="518.569" rx="1.68598" ry="1.66526" fill="white"/>
<ellipse cx="174.561" cy="510.687" rx="1.12399" ry="1.11017" fill="white"/>
<ellipse cx="170.849" cy="516.127" rx="0.786793" ry="0.777121" fill="white"/>
<ellipse cx="156.352" cy="512.907" rx="1.12399" ry="1.11017" fill="white"/>
<ellipse cx="153.428" cy="505.58" rx="1.12399" ry="1.11017" fill="white"/>
<ellipse cx="172.422" cy="503.249" rx="1.68598" ry="1.66526" fill="white"/>
<ellipse cx="177.819" cy="504.359" rx="0.561995" ry="0.555087" fill="white"/>
<ellipse cx="151.517" cy="500.141" rx="1.46119" ry="1.44323" fill="white"/>
<ellipse cx="194.227" cy="524.342" rx="1.46119" ry="1.44323" fill="white"/>
<ellipse cx="178.158" cy="534.667" rx="1.12399" ry="1.11017" fill="white"/>
<ellipse cx="194.341" cy="540.217" rx="0.674394" ry="0.666104" fill="white"/>
<ellipse cx="187.372" cy="492.924" rx="1.12399" ry="1.11017" fill="white"/>
<ellipse cx="160.624" cy="483.377" rx="1.12399" ry="1.11017" fill="white"/>
<ellipse cx="158.375" cy="491.37" rx="1.12399" ry="1.11017" fill="white"/>
<ellipse cx="151.068" cy="484.82" rx="0.561995" ry="0.555087" fill="white"/>
<ellipse cx="147.695" cy="463.282" rx="0.561995" ry="0.555087" fill="white"/>
<ellipse cx="166.014" cy="414.546" rx="0.899192" ry="0.888139" fill="white"/>
<ellipse cx="168.264" cy="401.668" rx="1.34879" ry="1.33221" fill="white"/>
<ellipse cx="142.633" cy="398.115" rx="1.34879" ry="1.33221" fill="white"/>
<ellipse cx="97.2262" cy="391.676" rx="1.34879" ry="1.33221" fill="white"/>
<ellipse cx="94.4193" cy="383.794" rx="1.01159" ry="0.999156" fill="white"/>
<ellipse cx="99.9268" cy="371.915" rx="1.79838" ry="1.77628" fill="white"/>
<ellipse cx="94.6421" cy="369.584" rx="0.561995" ry="0.555087" fill="white"/>
<ellipse cx="108.353" cy="366.919" rx="1.01159" ry="0.999156" fill="white"/>
<ellipse cx="109.254" cy="373.58" rx="1.01159" ry="0.999156" fill="white"/>
<ellipse cx="119.82" cy="370.472" rx="2.13558" ry="2.10933" fill="white"/>
<ellipse cx="133.421" cy="365.254" rx="1.34879" ry="1.33221" fill="white"/>
<ellipse cx="99.9246" cy="399.225" rx="0.899192" ry="0.888139" fill="white"/>
<ellipse cx="174.111" cy="388.346" rx="0.674394" ry="0.666104" fill="white"/>
<ellipse cx="142.526" cy="484.82" rx="1.46119" ry="1.44323" fill="white"/>
<ellipse cx="135.218" cy="465.836" rx="2.02318" ry="1.99831" fill="white"/>
<ellipse cx="145.111" cy="454.734" rx="1.57359" ry="1.55424" fill="white"/>
<ellipse cx="154.663" cy="467.723" rx="1.01159" ry="0.999156" fill="white"/>
<ellipse cx="154.438" cy="455.733" rx="0.561995" ry="0.555087" fill="white"/>
<ellipse cx="147.021" cy="449.516" rx="0.561995" ry="0.555087" fill="white"/>
<ellipse cx="127.914" cy="451.736" rx="0.561995" ry="0.555087" fill="white"/>
<ellipse cx="158.596" cy="434.751" rx="0.899192" ry="0.888139" fill="white"/>
<ellipse cx="126.564" cy="432.863" rx="1.46119" ry="1.44323" fill="white"/>
<ellipse cx="120.267" cy="432.642" rx="0.786793" ry="0.777121" fill="white"/>
<ellipse cx="126.117" cy="418.653" rx="1.23639" ry="1.22119" fill="white"/>
<ellipse cx="107.004" cy="420.874" rx="1.23639" ry="1.22119" fill="white"/>
<ellipse cx="109.929" cy="399.336" rx="0.786793" ry="0.777121" fill="white"/>
<ellipse cx="126.001" cy="396.117" rx="1.34879" ry="1.33221" fill="white"/>
<ellipse cx="117.91" cy="379.242" rx="1.34879" ry="1.33221" fill="white"/>
<ellipse cx="133.871" cy="383.905" rx="1.79838" ry="1.77628" fill="white"/>
<ellipse cx="156.125" cy="370.805" rx="1.79838" ry="1.77628" fill="white"/>
<ellipse cx="161.742" cy="386.125" rx="1.79838" ry="1.77628" fill="white"/>
<ellipse cx="297.523" cy="361.035" rx="1.34879" ry="1.33221" fill="white"/>
<ellipse cx="187.371" cy="225.15" rx="1.34879" ry="1.33221" fill="white"/>
<ellipse cx="183.889" cy="144.219" rx="1.68598" ry="1.66526" fill="white"/>
<ellipse cx="164.107" cy="133.117" rx="2.13558" ry="2.10933" fill="white"/>
<ellipse cx="165.343" cy="111.913" rx="1.34879" ry="1.33221" fill="white"/>
<ellipse cx="175.007" cy="120.35" rx="1.34879" ry="1.33221" fill="white"/>
<ellipse cx="130.384" cy="112.023" rx="1.91078" ry="1.88729" fill="white"/>
<ellipse cx="104.757" cy="117.13" rx="1.23639" ry="1.22119" fill="white"/>
<ellipse cx="106.108" cy="122.903" rx="1.23639" ry="1.22119" fill="white"/>
<ellipse cx="78.2326" cy="194.398" rx="1.91078" ry="1.88729" fill="white"/>
<ellipse cx="87.2247" cy="219.932" rx="1.91078" ry="1.88729" fill="white"/>
<ellipse cx="106.783" cy="211.939" rx="1.91078" ry="1.88729" fill="white"/>
</g>
<defs>
<filter id="filter0_d_22_5555" x="0.983398" y="0.747925" width="599.06" height="568.494" filterUnits="userSpaceOnUse" color-interpolation-filters="sRGB">
<feFlood flood-opacity="0" result="BackgroundImageFix"/>
<feColorMatrix in="SourceAlpha" type="matrix" values="0 0 0 0 0 0 0 0 0 0 0 0 0 0 0 0 0 0 127 0" result="hardAlpha"/>
<feOffset/>
<feGaussianBlur stdDeviation="3.5"/>
<feComposite in2="hardAlpha" operator="out"/>
<feColorMatrix type="matrix" values="0 0 0 0 1 0 0 0 0 1 0 0 0 0 1 0 0 0 0.19 0"/>
<feBlend mode="normal" in2="BackgroundImageFix" result="effect1_dropShadow_22_5555"/>
<feBlend mode="normal" in="SourceGraphic" in2="effect1_dropShadow_22_5555" result="shape"/>
</filter>
</defs>
</svg>
