<svg width="78" height="87" viewBox="0 0 78 87" fill="none" xmlns="http://www.w3.org/2000/svg">
<path d="M38.9993 12.4279C31.9254 12.4387 25.1444 15.2794 20.1426 20.3273C15.1406 25.3752 12.3265 32.2183 12.3149 39.3569C12.307 45.9089 14.6895 52.2355 19.0065 57.1295C22.1793 61.931 24.1122 67.4564 24.6312 73.2043C24.788 74.6817 25.4688 76.0529 26.547 77.0651C27.6251 78.0773 29.0297 78.6625 30.5016 78.7138H47.497C49.0047 78.7123 50.4586 78.1495 51.5797 77.1323C52.7015 76.1158 53.411 74.7165 53.5728 73.2043C54.036 67.4897 55.8981 61.9801 58.9921 57.1713C63.3189 52.2665 65.7014 45.9234 65.6837 39.3569C65.6722 32.2182 62.858 25.375 57.856 20.3274C52.854 15.2795 46.073 12.4388 38.9993 12.4279V12.4279ZM53.6137 27.9637C50.9276 24.4511 47.0824 22.0259 42.7763 21.1278C42.2115 21.0483 41.7046 20.7355 41.3774 20.2644C41.0503 19.7926 40.9322 19.2053 41.0517 18.6425C41.1598 18.1057 41.4777 17.6361 41.9337 17.3399C42.3897 17.043 42.9453 16.9454 43.4736 17.0682C48.7111 18.1685 53.3939 21.1039 56.6927 25.3535C57.0349 25.784 57.1888 26.336 57.1194 26.8829C57.0492 27.4298 56.7622 27.9247 56.3233 28.2534C55.9711 28.5619 55.5165 28.7252 55.0512 28.7093C54.4899 28.6746 53.9687 28.4037 53.6136 27.9637H53.6137ZM58.2935 34.3438H58.2942C57.7587 34.3467 57.2425 34.1386 56.8574 33.7636C56.4522 33.3771 56.2281 32.8353 56.241 32.2725C56.2345 31.7227 56.4586 31.196 56.8574 30.8225C57.6635 30.0545 58.9241 30.0545 59.7311 30.8225C60.1298 31.196 60.3532 31.7227 60.3467 32.2725C60.3546 32.8338 60.132 33.3742 59.7311 33.7636C59.3452 34.1386 58.8297 34.3467 58.2943 34.3438H58.2935ZM49.2624 84.9277C49.2624 85.4768 49.0462 86.0042 48.6611 86.3922C48.2766 86.7809 47.7541 86.999 47.21 86.999H30.7885C29.6553 86.999 28.7361 86.0721 28.7361 84.9278C28.7361 83.7834 29.6553 82.8565 30.7885 82.8565H47.21C47.7541 82.8565 48.2766 83.0747 48.6611 83.4634C49.0463 83.8513 49.2624 84.3787 49.2624 84.9278V84.9277ZM36.9468 6.21281V2.07028C36.9468 0.925903 37.8653 -0.000976562 38.9993 -0.000976562C40.1332 -0.000976562 41.0517 0.92594 41.0517 2.07028V6.21281C41.0517 7.35719 40.1332 8.28481 38.9993 8.28481C37.8653 8.28481 36.9468 7.35717 36.9468 6.21281ZM66.5872 11.5157C67.3747 12.3357 67.3747 13.6384 66.5872 14.4575L63.6728 17.3986C63.2827 17.7663 62.7701 17.9737 62.236 17.9787C61.6891 17.9759 61.1629 17.7692 60.7577 17.3986C59.9709 16.5793 59.9709 15.2767 60.7577 14.4575L63.6728 11.5157C64.4846 10.7217 65.7754 10.7217 66.5872 11.5157H66.5872ZM78 39.3563C78 39.9054 77.7838 40.432 77.3987 40.8207C77.0135 41.2094 76.4916 41.4276 75.9475 41.4276H71.8419C70.7086 41.4276 69.7894 40.5 69.7894 39.3563C69.7894 38.212 70.7087 37.2843 71.8419 37.2843H75.9475C76.4916 37.2843 77.0135 37.5025 77.3987 37.8912C77.7838 38.2799 78 38.8066 78 39.3564V39.3563ZM66.5872 64.2136C67.3747 65.0329 67.3747 66.3356 66.5872 67.1547C65.7668 67.9285 64.4931 67.9285 63.6728 67.1547L60.7584 64.2136H60.7577C59.9531 63.4016 59.9531 62.0845 60.7577 61.2726C61.5631 60.4598 62.8675 60.4598 63.6728 61.2726L66.5872 64.2136ZM17.3241 61.2726C18.1116 62.0918 18.1116 63.3945 17.3241 64.2136L14.4097 67.1547C13.5893 67.9285 12.3149 67.9285 11.4953 67.1547C10.7078 66.3354 10.7078 65.0328 11.4953 64.2136L14.4097 61.2726C15.2215 60.5414 16.4522 60.5595 17.2425 61.3137L17.3241 61.2726ZM8.21056 39.3559C8.21056 39.905 7.99435 40.4317 7.60921 40.8204C7.22476 41.2091 6.70217 41.4272 6.15807 41.4272H2.05245C0.919176 41.4272 0 40.4996 0 39.356C0 38.2116 0.919213 37.284 2.05245 37.284H6.15807C6.70217 37.284 7.22476 37.5022 7.60921 37.8908C7.99437 38.2795 8.21056 38.8062 8.21056 39.356V39.3559ZM11.4128 14.4986V14.4979C10.6082 13.6858 10.6082 12.3687 11.4128 11.5568C12.2175 10.744 13.5227 10.744 14.3272 11.5568L17.2416 14.4979H17.2423C18.0291 15.3179 18.0291 16.6198 17.2423 17.4397C16.8371 17.8103 16.3109 18.0169 15.764 18.0191C15.2299 18.014 14.7173 17.8074 14.3272 17.4397L11.4128 14.4986Z" fill="#182056"/>
</svg>
