<svg width="109" height="30" viewBox="0 0 109 30" fill="none" xmlns="http://www.w3.org/2000/svg">
<path d="M82.4915 6.60919C83.8877 6.58482 85.208 6.83035 86.4524 7.34578C87.7237 7.86074 88.824 8.58011 89.7533 9.50391C90.6821 10.4009 91.426 11.4756 91.985 12.7281C92.5436 13.9538 92.8351 15.2648 92.8594 16.6609L92.8897 18.3927L76.1759 18.6845C76.3765 19.4061 76.6836 20.0722 77.0971 20.6827C77.5375 21.2927 78.0435 21.8211 78.6153 22.2677C79.2135 22.6869 79.8638 23.0113 80.5661 23.2408C81.2684 23.4702 82.0088 23.5782 82.7875 23.5646C83.9957 23.5435 85.0782 23.2426 86.0349 22.6619C87.0185 22.0807 87.4859 21.8157 88.113 20.8111L91.6302 20.7421C92.0233 20.7343 92.2696 21.1616 92.0532 21.4898C91.1167 22.9103 89.7253 24.6194 87.7799 25.6932C86.2431 26.5414 84.6207 27.0375 82.8486 27.0684C81.4525 27.0928 80.1187 26.8475 78.8474 26.3325C77.603 25.8171 76.5029 25.1111 75.5473 24.2147C74.618 23.2909 73.8741 22.2161 73.3155 20.9904C72.7565 19.7379 72.4648 18.4135 72.4405 17.0174C72.4161 15.6212 72.6616 14.3009 73.1771 13.0564C73.692 11.7851 74.398 10.6851 75.2949 9.75628C76.2182 8.80015 77.2927 8.04281 78.5184 7.48426C79.771 6.92525 81.0954 6.63356 82.4915 6.60919ZM89.124 14.9938C88.9234 14.2722 88.6029 13.6063 88.1625 12.9963C87.749 12.3858 87.2566 11.8707 86.6852 11.4509C86.1134 11.0043 85.463 10.6665 84.7338 10.4375C84.0315 10.2081 83.3045 10.0999 82.5527 10.113C81.774 10.1266 81.0378 10.2603 80.3439 10.5142C79.6501 10.768 79.0118 11.1283 78.4291 11.595C77.8727 12.0345 77.3851 12.5667 76.9663 13.1917C76.5744 13.8163 76.2907 14.4927 76.1154 15.2209L89.124 14.9938Z" fill="white"/>
<path fill-rule="evenodd" clip-rule="evenodd" d="M12.3969 0.938996V15.6436C12.3969 16.7446 12.1821 17.7785 11.7524 18.7452C11.3496 19.7119 10.7857 20.5578 10.0607 21.2828C9.36246 22.0079 8.53 22.5852 7.56328 23.0149C6.59655 23.4177 5.5627 23.6191 4.4617 23.6191H0V27.0832H4.4617C6.0192 27.0832 7.49615 26.7878 8.89253 26.197C10.2889 25.5794 11.4973 24.7604 12.5177 23.7399C13.565 22.6926 14.3841 21.4842 14.9748 20.1147C15.5925 18.7183 15.9013 17.228 15.9013 15.6436V0L12.3969 0.938996Z" fill="white"/>
<path d="M26.6966 6.60919C28.0928 6.58482 29.4131 6.83035 30.6575 7.34578C31.9288 7.86074 33.0291 8.58011 33.9584 9.50391C34.8872 10.4009 35.6311 11.4756 36.1901 12.7281C36.7487 13.9538 37.0401 15.2648 37.0645 16.6609L37.0947 18.3927L20.381 18.6845C20.5816 19.4061 20.8886 20.0722 21.3022 20.6827C21.7425 21.2927 22.2486 21.8211 22.8204 22.2677C23.4186 22.6869 24.0689 23.0113 24.7712 23.2408C25.4735 23.4702 26.2139 23.5782 26.9926 23.5646C28.2008 23.5435 29.2833 23.2426 30.24 22.6619C31.2236 22.0807 31.691 21.8157 32.3181 20.8111L35.8353 20.7421C36.2284 20.7343 36.4747 21.1616 36.2583 21.4898C35.3218 22.9103 33.9304 24.6194 31.9849 25.6932C30.4481 26.5414 28.8258 27.0375 27.0537 27.0684C25.6575 27.0928 24.3238 26.8475 23.0525 26.3325C21.8081 25.8171 20.708 25.1112 19.7524 24.2147C18.8231 23.2909 18.0792 22.2161 17.5206 20.9904C16.9616 19.7379 16.6699 18.4135 16.6455 17.0174C16.6212 15.6212 16.8667 14.3009 17.3821 13.0564C17.8971 11.7851 18.603 10.6851 19.5 9.75628C20.4233 8.80015 21.4978 8.04281 22.7235 7.48426C23.9761 6.92525 25.3004 6.63356 26.6966 6.60919ZM33.3291 14.9938C33.1285 14.2722 32.808 13.6063 32.3676 12.9963C31.9541 12.3858 31.4617 11.8707 30.8903 11.4509C30.3185 11.0043 29.668 10.6665 28.9389 10.4375C28.2366 10.2081 27.5095 10.0999 26.7578 10.113C25.9791 10.1266 25.2429 10.2603 24.549 10.5142C23.8551 10.768 23.2169 11.1283 22.6341 11.595C22.0778 12.0345 21.5902 12.5667 21.1714 13.1917C20.7794 13.8163 20.4958 14.4927 20.3205 15.2209L33.3291 14.9938Z" fill="white"/>
<path fill-rule="evenodd" clip-rule="evenodd" d="M57.4498 7.67848C57.4498 8.80097 57.8067 9.6556 58.5204 10.2424C59.2342 10.8036 60.1197 11.2628 61.1771 11.62C62.261 11.9516 63.4241 12.2577 64.6666 12.5384C65.909 12.819 67.059 13.2272 68.1164 13.7629C69.2002 14.2731 70.099 15.0002 70.8128 15.9441C71.5265 16.8625 71.8834 18.1508 71.8834 19.8091C71.8834 20.9826 71.6455 22.0286 71.1696 22.947C70.7202 23.8654 70.1122 24.6435 69.3456 25.2812C68.579 25.8935 67.6802 26.3655 66.6492 26.6971C65.6183 27.0288 64.5344 27.1946 63.3977 27.1946C62.2081 27.1946 61.0582 27.0288 59.9479 26.6971C58.8376 26.34 57.8463 25.8297 56.974 25.1664C56.128 24.5031 55.4407 23.6868 54.912 22.7174C54.58 22.1085 54.3418 21.4493 54.1974 20.7398L57.5146 19.851C57.6082 20.4256 57.7849 20.9346 58.0446 21.378C58.3882 21.9393 58.8244 22.4112 59.3531 22.7939C59.9083 23.1511 60.5295 23.4189 61.2168 23.5975C61.9305 23.7761 62.6707 23.8654 63.4374 23.8654C64.0454 23.8654 64.6534 23.7888 65.2614 23.6358C65.8694 23.4827 66.4113 23.2403 66.8871 22.9087C67.363 22.577 67.7463 22.1689 68.0371 21.6842C68.3279 21.1994 68.4732 20.6127 68.4732 19.9239C68.4732 19.0565 68.2618 18.3677 67.8388 17.8575C67.4423 17.3217 66.9004 16.888 66.213 16.5564C65.5257 16.1992 64.7459 15.9186 63.8735 15.7145C63.0276 15.4849 62.142 15.2553 61.2168 15.0257C60.318 14.7706 59.4324 14.49 58.5601 14.1838C57.7141 13.8522 56.9475 13.4185 56.2602 12.8828C55.5729 12.3215 55.0178 11.6327 54.5948 10.8164C54.1983 9.97449 54 8.91578 54 7.64021C54 6.49221 54.2247 5.47176 54.6741 4.57886C55.1499 3.66046 55.7712 2.89512 56.5378 2.28285C57.3308 1.64507 58.2428 1.17311 59.2738 0.866976C60.3048 0.53533 61.3754 0.369507 62.4857 0.369507C63.7017 0.369507 64.8648 0.548086 65.9751 0.905243C67.0854 1.23689 68.0635 1.73436 68.9094 2.39765C69.351 2.74386 69.7493 3.13177 70.1044 3.56138L66.2277 4.60016C65.7376 4.30326 65.1908 4.07932 64.5873 3.92833C63.9 3.74975 63.1862 3.66046 62.446 3.66046C61.8116 3.66046 61.1904 3.74975 60.5824 3.92833C59.9743 4.08139 59.4324 4.32375 58.9566 4.6554C58.5072 4.96153 58.1371 5.36971 57.8463 5.87994C57.582 6.39016 57.4498 6.98968 57.4498 7.67848Z" fill="white"/>
<path fill-rule="evenodd" clip-rule="evenodd" d="M40.2191 6.49971V3.3013L43.6688 2.37695V6.49971V8.20796L51.2405 8.0758L50.309 11.5524L43.6688 11.6683V20.4186C43.6688 20.854 43.749 21.2758 43.9095 21.684C44.0967 22.065 44.3373 22.4051 44.6315 22.7045C44.9257 23.0038 45.2599 23.2487 45.6343 23.4392C46.0354 23.6025 46.4499 23.6841 46.8778 23.6841C47.6533 23.6841 48.3219 23.4392 48.8834 22.9494C49.0887 22.801 49.476 22.2956 49.3837 21.4614L52.7298 20.7691C53.2837 23.0702 51.7518 25.3096 51.0896 25.6842C49.8595 26.691 48.4556 27.1944 46.8778 27.1944C45.9418 27.1944 45.0727 27.0176 44.2705 26.6638C43.4682 26.31 42.7596 25.8338 42.1445 25.2352C41.5562 24.6093 41.0882 23.8882 40.7406 23.0718C40.3929 22.2555 40.2191 21.3711 40.2191 20.4186V11.7285L37.5879 11.7744L38.5194 8.29785L40.2191 8.26818V6.49971Z" fill="white"/>
<path fill-rule="evenodd" clip-rule="evenodd" d="M95.974 6.50252V3.30398L99.4237 2.37964V6.50252V8.20909L107.062 8.07577L106.13 11.5524L99.4237 11.6694V20.4215C99.4237 20.8568 99.504 21.2786 99.6644 21.6868C99.8516 22.0678 100.092 22.4079 100.386 22.7073C100.681 23.0066 101.015 23.2515 101.389 23.442C101.79 23.6053 102.205 23.6869 102.633 23.6869C103.408 23.6869 104.077 23.442 104.638 22.9522C104.844 22.8038 105.231 22.2984 105.139 21.4642L108.485 20.7719C109.039 23.073 107.507 25.3124 106.845 25.687C105.614 26.6938 104.211 27.1972 102.633 27.1972C101.697 27.1972 100.828 27.0204 100.025 26.6666C99.2232 26.3128 98.5145 25.8366 97.8995 25.238C97.3111 24.6121 96.8432 23.891 96.4955 23.0746C96.1479 22.2583 95.974 21.3739 95.974 20.4215V11.7296L93.4082 11.7744L94.3398 8.29783L95.974 8.2693V6.50252Z" fill="white"/>
</svg>
