<svg width="24" height="14" viewBox="0 0 24 14" fill="none" xmlns="http://www.w3.org/2000/svg">
<path d="M6.8 0C5.90701 -1.36979e-08 5.02277 0.181061 4.19775 0.532843C3.37274 0.884626 2.62311 1.40024 1.99167 2.05025C1.36024 2.70026 0.859351 3.47194 0.517619 4.32122C0.175887 5.17049 0 6.08075 0 7C0 7.91925 0.175887 8.82951 0.517619 9.67878C0.859351 10.5281 1.36024 11.2997 1.99167 11.9497C2.62311 12.5998 3.37274 13.1154 4.19775 13.4672C5.02277 13.8189 5.90701 14 6.8 14C7.69299 14 8.57723 13.8189 9.40225 13.4672C10.2273 13.1154 10.9769 12.5998 11.6083 11.9497C12.2398 11.2997 12.7406 10.5281 13.0824 9.67878C13.4241 8.82951 13.6 7.91925 13.6 7C13.6 6.08075 13.4241 5.17049 13.0824 4.32122C12.7406 3.47194 12.2398 2.70026 11.6083 2.05025C10.9769 1.40024 10.2273 0.884626 9.40225 0.532843C8.57723 0.181061 7.69299 -1.36979e-08 6.8 0V0ZM17.6 0.823529C17.1798 0.823529 16.7637 0.983289 16.3754 1.29369C15.9872 1.60408 15.6344 2.05904 15.3373 2.63258C15.0401 3.20611 14.8044 3.887 14.6436 4.63637C14.4828 5.38573 14.4 6.18889 14.4 7C14.4 7.81111 14.4828 8.61427 14.6436 9.36363C14.8044 10.113 15.0401 10.7939 15.3373 11.3674C15.6344 11.941 15.9872 12.3959 16.3754 12.7063C16.7637 13.0167 17.1798 13.1765 17.6 13.1765C18.0202 13.1765 18.4363 13.0167 18.8246 12.7063C19.2128 12.3959 19.5656 11.941 19.8627 11.3674C20.1599 10.7939 20.3956 10.113 20.5564 9.36363C20.7172 8.61427 20.8 7.81111 20.8 7C20.8 6.18889 20.7172 5.38573 20.5564 4.63637C20.3956 3.887 20.1599 3.20611 19.8627 2.63258C19.5656 2.05904 19.2128 1.60408 18.8246 1.29369C18.4363 0.983289 18.0202 0.823529 17.6 0.823529V0.823529ZM22.8 1.64706C22.4817 1.64706 22.1765 2.21103 21.9515 3.2149C21.7264 4.21877 21.6 5.58031 21.6 7C21.6 8.41969 21.7264 9.78123 21.9515 10.7851C22.1765 11.789 22.4817 12.3529 22.8 12.3529C23.1183 12.3529 23.4235 11.789 23.6485 10.7851C23.8736 9.78123 24 8.41969 24 7C24 5.58031 23.8736 4.21877 23.6485 3.2149C23.4235 2.21103 23.1183 1.64706 22.8 1.64706V1.64706Z" fill="#D1D3DE"/>
</svg>
