<svg width="54" height="44" viewBox="0 0 54 44" fill="none" xmlns="http://www.w3.org/2000/svg">
<path d="M45.8507 7.0014C45.8507 7.00154 45.8505 7.00162 45.8504 7.00154C42.6444 4.70609 38.7797 3.46912 34.8123 3.46912C30.8449 3.46912 26.9801 4.70616 23.7739 7.00173C22.5978 7.84513 21.0674 8.06997 19.6836 7.6461C15.5195 6.37057 10.9501 6.90928 7.1777 9.20696C2.71483 11.9244 0 16.7155 0 21.873C0 27.0307 2.71483 31.8219 7.1777 34.539C10.8882 36.7985 15.3685 37.357 19.4761 36.1621C20.9902 35.7216 22.6563 35.9689 23.9524 36.867C27.1245 39.0828 30.9201 40.2732 34.8123 40.2732C38.7045 40.2732 42.4999 39.0828 45.6722 36.867C48.9089 34.6031 51.3294 31.3876 52.5838 27.6839C53.8386 23.9803 53.8625 19.9812 52.6523 16.2632C51.4417 12.5456 49.0599 9.30233 45.851 7.00126C45.8508 7.00118 45.8507 7.00126 45.8507 7.0014ZM21.4274 21.9038C21.4274 22.3879 21.0349 22.7804 20.5508 22.7804H20.5193C20.0352 22.7804 19.6427 22.3879 19.6427 21.9038C19.6427 21.4197 20.0352 21.0272 20.5193 21.0272H20.5508C21.0349 21.0272 21.4274 21.4197 21.4274 21.9038ZM33.92 7.87833C33.92 7.3942 34.3124 7.00173 34.7966 7.00173H34.828C35.3122 7.00173 35.7046 7.3942 35.7046 7.87833C35.7046 8.36246 35.3122 8.75492 34.828 8.75492H34.7966C34.3124 8.75492 33.92 8.36246 33.92 7.87833ZM24.0979 11.3562C24.443 11.0172 24.9964 11.0182 25.3403 11.3585C25.6912 11.7056 25.6901 12.2727 25.338 12.6186C24.9947 12.9559 24.4447 12.9569 24.1002 12.6209C23.745 12.2745 23.744 11.7039 24.0979 11.3562ZM25.3403 32.4488C24.9964 32.7891 24.443 32.7901 24.0979 32.451C23.744 32.1034 23.745 31.5327 24.1002 31.1864C24.4447 30.8503 24.9947 30.8513 25.338 31.1886C25.6901 31.5345 25.6912 32.1016 25.3403 32.4488ZM35.7045 35.9289C35.7045 36.413 35.3121 36.8055 34.8279 36.8055H34.7965C34.3123 36.8055 33.9199 36.413 33.9199 35.9289C33.9199 35.4448 34.3123 35.0523 34.7965 35.0523H34.8279C35.3121 35.0523 35.7045 35.4448 35.7045 35.9289ZM34.8122 31.5461C34.8122 31.546 34.8121 31.5459 34.8121 31.5459C32.8375 31.5447 30.9091 30.9585 29.2789 29.8636C28.007 29.0095 26.9628 27.8769 26.2241 26.5619C25.9242 26.0279 26.3395 25.4098 26.952 25.4098C27.1798 25.4098 27.3984 25.4994 27.5606 25.6594L29.7166 27.7851C29.7167 27.7851 29.7168 27.7852 29.7169 27.7852C29.7171 27.7852 29.7172 27.7852 29.7173 27.7853C29.8854 27.9496 30.1136 28.0407 30.3505 28.0396C31.5176 28.0396 32.5134 28.9259 33.5433 29.4747C33.6988 29.5576 33.8637 29.6259 34.0361 29.6777C34.848 29.9215 35.7292 29.7732 36.4115 29.2774C37.0939 28.7812 37.4967 27.997 37.4967 27.1631C37.4967 26.3292 37.094 25.5449 36.4115 25.0487C35.7292 24.5529 34.848 24.4046 34.0361 24.6484C33.5518 24.794 33.1267 25.0691 32.8024 25.4342C32.4049 25.8817 31.8966 26.2866 31.2981 26.2866C30.9253 26.2866 30.5674 26.1398 30.3019 25.878L28.3069 23.9111C28.1388 23.7468 27.9106 23.6556 27.6736 23.6568H25.5488C25.3271 23.6568 25.136 23.5005 25.1027 23.2814C25.0621 23.0142 25.2742 22.7802 25.5444 22.7802H32.4257C34.4315 22.7802 36.1598 24.5043 38.0442 25.1912C39.1397 25.5903 40.3647 25.4373 41.3239 24.7818C42.2831 24.1263 42.8548 23.0514 42.8548 21.9036C42.8548 20.7558 42.2832 19.6808 41.3239 19.0254C40.3646 18.37 39.1397 18.2169 38.0442 18.616C36.1598 19.3029 34.4315 21.027 32.4258 21.027H25.5255C25.258 21.027 25.044 20.8085 25.0905 20.5451C25.1311 20.3153 25.3355 20.1504 25.5688 20.1504H27.6736C27.9106 20.1516 28.1388 20.0604 28.3069 19.8961L30.3019 17.9292C30.5674 17.6674 30.9253 17.5206 31.2981 17.5206C31.8966 17.5206 32.4049 17.9255 32.8024 18.373C33.1267 18.7381 33.5519 19.0131 34.0361 19.1588C34.848 19.4026 35.7292 19.2543 36.4115 18.7585C37.0939 18.2623 37.4967 17.478 37.4967 16.6441C37.4967 15.8102 37.094 15.026 36.4115 14.5298C35.7292 14.034 34.848 13.8857 34.0361 14.1295C33.8637 14.1813 33.6988 14.2496 33.5433 14.3324C32.5133 14.8812 31.5175 15.7676 30.3505 15.7676C30.1135 15.7665 29.8853 15.8576 29.7171 16.022L27.5611 18.1478C27.3988 18.3077 27.1801 18.3974 26.9523 18.3974C26.3396 18.3974 25.9242 17.7791 26.2242 17.245C27.1614 15.5768 28.5861 14.2098 30.3278 13.3296C32.4562 12.2539 34.9109 11.9792 37.231 12.5571C39.5506 13.1347 41.5756 14.5255 42.9252 16.4673C44.2744 18.4088 44.8552 20.7681 44.5581 23.1009C44.2609 25.434 43.1065 27.5797 41.3114 29.1348C39.5168 30.6903 37.2056 31.5478 34.8123 31.5462C34.8123 31.5462 34.8122 31.5462 34.8122 31.5461ZM45.5266 32.451C45.1815 32.7901 44.6281 32.7891 44.2842 32.4488C43.9334 32.1016 43.9344 31.5345 44.2865 31.1886C44.6298 30.8513 45.1798 30.8503 45.5243 31.1864C45.8795 31.5327 45.8805 32.1034 45.5266 32.451ZM45.5243 12.6207C45.1798 12.9567 44.6298 12.9557 44.2865 12.6184C43.9344 12.2725 43.9334 11.7054 44.2842 11.3583C44.6281 11.018 45.1815 11.017 45.5266 11.356C45.8805 11.7037 45.8795 12.2743 45.5243 12.6207ZM49.9818 21.9036C49.9818 22.3877 49.5894 22.7802 49.1052 22.7802H49.0738C48.5896 22.7802 48.1972 22.3877 48.1972 21.9036C48.1972 21.4195 48.5896 21.027 49.0738 21.027H49.1052C49.5894 21.027 49.9818 21.4195 49.9818 21.9036Z" fill="#182056"/>
<path d="M47.7503 39.7422L46.7154 38.322C43.2392 40.7534 39.0783 42.0597 34.8112 42.0597C30.544 42.0597 26.3834 40.7534 22.907 38.322L21.8721 39.7422C25.6466 42.3935 30.1707 43.8187 34.8114 43.8187C39.452 43.8187 43.9757 42.3934 47.7507 39.7422H47.7503Z" fill="#182056"/>
<path d="M22.7474 5.6086C26.247 3.10485 30.4645 1.7559 34.7934 1.7559C39.1223 1.7559 43.3406 3.10485 46.8393 5.6086L47.8922 4.18842V4.18881C44.0803 1.46626 39.4884 0 34.7754 0C30.0624 0 25.4705 1.46636 21.6587 4.18881L22.7474 5.6086Z" fill="#182056"/>
<path d="M16.0732 13.1382C16.0732 14.5904 14.8745 15.768 13.3962 15.768C11.9179 15.768 10.7192 14.5904 10.7192 13.1382C10.7192 11.686 11.9179 10.5084 13.3962 10.5084C14.8745 10.5084 16.0732 11.686 16.0732 13.1382Z" fill="#182056"/>
<path d="M13.7767 22.0433V23.4593C13.7767 23.748 13.5395 23.982 13.2468 23.982H12.3412C12.0485 23.982 11.8113 23.748 11.8113 23.4593V22.0433C11.8113 20.9726 10.9314 20.1046 9.84588 20.1046C8.76041 20.1046 7.88046 20.9726 7.88046 22.0433V23.4593C7.88046 23.748 7.64322 23.982 7.35056 23.982H6.44494C6.15228 23.982 5.91504 23.748 5.91504 23.4593V22.0433C5.91504 19.9019 7.67494 18.166 9.84588 18.166C12.0168 18.166 13.7767 19.9019 13.7767 22.0433Z" fill="#182056"/>
<path d="M16.725 23.368L16.725 16.4303C16.4323 16.4303 14.7114 16.4303 14.7114 16.4303L14.7422 23.368C14.7422 24.4387 13.8622 25.3067 12.7768 25.3067C11.6913 25.3067 10.8113 24.4387 10.8113 23.368V21.952C10.8113 21.6633 10.5741 21.4293 10.2814 21.4293H9.37581C9.08316 21.4293 8.84591 21.6633 8.84591 21.952V23.368C8.84591 25.5094 10.6097 27.2453 12.7854 27.2453C14.9612 27.2453 16.725 25.5094 16.725 23.368Z" fill="#182056"/>
<path d="M9.88113 18.2636C9.9277 18.2281 9.90477 18.1538 9.84592 18.1538C7.67498 18.1538 5.91508 19.8897 5.91508 22.0311V23.4471C5.91508 23.7358 6.15232 23.9698 6.44498 23.9698H7.3506C7.64326 23.9698 7.8805 23.7358 7.8805 23.4471V22.0311C7.8805 21.5804 8.03641 21.1657 8.29792 20.8364C8.36233 20.7553 8.40953 20.6616 8.43023 20.5607C8.62071 19.6314 9.14805 18.8226 9.88113 18.2636Z" fill="#182056"/>
<path d="M12.9576 27.2459C12.8976 27.2486 12.8374 27.25 12.7768 27.25C10.6058 27.25 8.84592 25.514 8.84592 23.3726V21.4339H10.8113V23.3726C10.8113 23.8801 11.009 24.342 11.3325 24.6876C11.5037 25.7432 12.1068 26.6567 12.9576 27.2459Z" fill="#182056"/>
</svg>
