<svg width="392" height="112" viewBox="0 0 392 112" fill="none" xmlns="http://www.w3.org/2000/svg">
<path d="M144.925 79.6522C140.425 79.6522 136.639 78.6447 133.568 76.6298C130.549 74.6845 128.265 71.7863 127.077 68.3945L134.736 63.9145C136.502 68.5592 139.99 70.8816 145.2 70.8816C147.71 70.8816 149.548 70.4273 150.716 69.5186C151.885 68.6617 152.542 67.2719 152.463 65.8241C152.384 64.3764 151.58 63.0663 150.326 62.3416C148.897 61.4522 146.345 60.4914 142.671 59.4592C140.911 58.9555 139.182 58.3506 137.492 57.6475C135.999 56.9819 134.583 56.1533 133.272 55.1769C131.888 54.1861 130.782 52.8562 130.059 51.3145C129.291 49.599 128.915 47.7339 128.957 45.8545C128.957 41.7369 130.417 38.4565 133.338 36.0133C136.258 33.5702 139.772 32.3473 143.88 32.3445C147.308 32.2742 150.681 33.2104 153.583 35.0374C156.414 36.8817 158.672 39.4819 160.103 42.5439L152.576 46.8963C150.76 42.9955 147.862 41.0465 143.88 41.0492C142.021 41.0492 140.562 41.4706 139.504 42.3133C138.474 43.0905 137.881 44.3168 137.912 45.6075C137.888 46.9919 138.558 48.2962 139.697 49.0827C140.884 49.9722 143.166 50.9329 146.541 51.9651C147.929 52.3988 148.979 52.7351 149.692 52.9739C150.404 53.2127 151.379 53.5792 152.609 54.0775C153.608 54.4556 154.572 54.9228 155.488 55.4733C156.292 56.0082 157.062 56.5941 157.791 57.2274C158.573 57.8696 159.241 58.6378 159.77 59.5004C160.27 60.3935 160.662 61.3432 160.938 62.3292C161.272 63.5007 161.435 64.7141 161.423 65.9322C161.423 70.1376 159.899 73.4729 156.849 75.938C153.8 78.4031 149.831 79.6384 144.941 79.6439L144.925 79.6522Z" fill="#222337"/>
<path d="M281.499 79.0095C277.948 79.0095 275.017 77.8182 272.705 75.4354C270.393 73.0527 269.236 69.7586 269.234 65.5531V54.316H263.586V46.2619H269.234V39.6984L277.604 37.166V46.2619H281.499V54.316H277.604V64.5237C277.604 66.6868 278.188 68.3435 279.356 69.4937C279.964 70.0885 280.696 70.5413 281.499 70.8195V79.0095Z" fill="#222337"/>
<path d="M356.568 48.9051C350.677 49.0121 347.362 52.8539 347.362 58.6968V78.7415H344.071V58.6968C344.071 50.898 348.9 45.8086 356.563 45.8086V48.9051H356.568Z" fill="#222337"/>
<path d="M374.679 45.5449C365.218 45.5449 357.613 52.8867 357.613 62.5014C357.613 72.1161 365.202 79.4702 374.679 79.4702C384.09 79.4702 391.679 72.1285 391.679 62.5137C391.679 52.899 384.09 45.5449 374.679 45.5449ZM374.679 76.3367C367.046 76.3367 360.858 70.1424 360.858 62.5014C360.858 54.8604 367.046 48.6661 374.679 48.6661C382.4 48.6661 388.372 54.7726 388.372 62.5014C388.372 70.2302 382.4 76.3367 374.679 76.3367Z" fill="#222337"/>
<path d="M326.771 33.2705H311.33V78.7417H314.768V61.3982H326.771C334.948 61.3982 340.921 55.3534 340.921 47.3652C340.921 39.3111 334.948 33.2705 326.771 33.2705ZM326.771 58.1493H314.768V36.5152H326.771C333.003 36.5152 337.466 41.0446 337.466 47.3652C337.482 53.5993 333.003 58.1493 326.771 58.1493Z" fill="#222337"/>
<path d="M290.648 42.3626C287.836 42.3164 285.569 40.0462 285.523 37.232C285.517 35.8616 286.067 34.5477 287.049 33.592C287.978 32.5922 289.283 32.0277 290.648 32.0356C292.034 32.0177 293.365 32.5822 294.317 33.592C295.298 34.5477 295.849 35.8616 295.843 37.232C295.851 38.5921 295.299 39.8954 294.317 40.835C293.357 41.8291 292.029 42.382 290.648 42.3626Z" fill="#222337"/>
<path d="M286.497 78.7417V46.2617H294.868V78.7417H286.497Z" fill="#222337"/>
<path d="M258.588 40.4147C254.02 40.0688 251.727 41.9094 251.711 45.9364V46.2617H258.588V54.3159H251.711V78.7417H243.34V54.3159H238.667V46.2617H243.34V45.9364C243.34 41.3439 244.617 37.8576 247.17 35.4776C249.723 33.0976 253.529 32.0586 258.588 32.3606V40.4147Z" fill="#222337"/>
<path d="M225.295 46.2617H233.67V78.7417H225.295V75.1058C223.263 78.1254 220.041 79.6352 215.629 79.6352C212.08 79.6352 209.149 78.4439 206.834 76.0611C204.52 73.6784 203.363 70.3843 203.363 66.1788V46.2617H211.733V65.1658C211.733 67.3317 212.318 68.9884 213.486 70.1358C214.654 71.2833 216.211 71.857 218.158 71.857C220.322 71.857 222.052 71.1858 223.349 69.8435C224.647 68.5011 225.295 66.4862 225.295 63.7988V46.2617Z" fill="#222337"/>
<path d="M184.898 45.3517C188.446 45.3517 191.378 46.5431 193.692 48.9258C196.007 51.3085 197.164 54.6027 197.164 58.8082V78.7499H188.802V59.8376C188.802 57.6717 188.217 56.015 187.049 54.8676C185.881 53.7201 184.323 53.1464 182.377 53.1464C180.213 53.1464 178.483 53.8176 177.186 55.1599C175.888 56.5023 175.236 58.5158 175.228 61.2005V78.7417H166.857V33.2705H175.228V49.9017C177.26 46.8656 180.482 45.3558 184.894 45.3723L184.898 45.3517Z" fill="#222337"/>
<path d="M55.7849 10.4135C80.8489 10.4135 101.167 30.7532 101.167 55.8435C101.167 80.9338 80.8489 101.274 55.7849 101.274V111.687C24.9758 111.687 0 86.6851 0 55.8435C0 25.002 24.9758 0 55.7849 0V10.4135ZM76.6148 35C66.6715 25.0541 51.0944 23.5245 39.41 31.3468C27.7256 39.1691 23.1882 54.1645 28.5727 67.1624C33.9572 80.1604 47.7639 87.5406 61.5491 84.7898C75.3344 82.0389 85.2587 69.923 85.2528 55.8518C85.2604 48.0274 82.1516 40.5228 76.6148 35Z" fill="#EF5350"/>
</svg>
