<svg width="493" height="75" viewBox="0 0 493 75" fill="none" xmlns="http://www.w3.org/2000/svg">
<path d="M266.536 14.333V30.833C269.217 27.233 273.09 25.433 278.154 25.433C280.537 25.433 282.622 25.733 284.409 26.633C286.495 27.233 288.282 28.433 289.771 29.933C291.559 31.433 292.75 33.233 293.644 35.333C294.538 37.433 294.835 40.133 294.835 43.133C294.835 46.433 294.24 49.433 293.048 52.433C291.857 55.133 290.069 57.533 287.388 59.333C284.707 61.133 281.728 62.033 277.856 62.033C272.494 62.033 268.622 60.233 266.238 56.933V61.133H255.812V14.333H266.536ZM226.918 24.533C247.174 24.533 245.386 46.433 245.386 46.433H217.981C219.173 50.633 222.747 53.633 227.811 53.633C234.067 53.633 237.344 50.033 237.344 50.033L243.301 56.033C240.322 59.033 236.152 61.733 227.811 61.733C215.002 61.733 208.151 53.033 208.151 44.033C208.151 35.033 212.917 24.533 226.918 24.533ZM477.439 24.233C486.078 24.233 491.738 27.533 491.738 27.533L487.865 35.333C476.247 29.333 471.183 33.533 471.183 35.633C471.183 37.733 473.269 38.033 481.312 39.533C489.354 41.033 492.929 44.333 492.929 49.733C492.929 55.133 488.163 61.133 476.843 61.133C465.524 61.133 460.46 57.533 460.46 57.533L464.034 50.033C472.971 55.733 483.099 53.933 483.099 50.633C483.099 48.233 479.822 47.633 476.248 47.033L474.758 46.733C474.162 46.733 473.269 46.433 472.673 46.433C468.205 45.833 461.353 43.133 461.353 36.233C461.055 29.033 468.8 24.233 477.439 24.233ZM426.799 11.633V39.833L441.991 25.433H454.204L439.31 39.833L455.693 61.433H443.48L432.16 46.733L426.799 51.833V61.433H416.67V11.633H426.799ZM390.754 24.233C397.904 24.233 404.159 27.833 407.734 33.233L399.095 38.333C397.606 35.333 394.329 33.233 390.754 33.233C385.393 33.233 381.222 37.433 381.222 42.833C381.222 48.233 385.393 52.433 390.754 52.433C394.329 52.433 397.308 50.633 398.797 47.633L407.436 52.433C403.861 57.533 397.904 61.133 390.754 61.133C379.733 61.133 371.094 52.733 371.094 42.533C370.796 32.333 379.733 24.233 390.754 24.233ZM343.986 24.233C355.008 24.233 363.647 32.633 363.647 42.833C363.647 53.033 354.71 61.433 343.986 61.433C332.965 61.433 324.326 53.033 324.326 42.833C324.028 32.333 332.965 24.233 343.986 24.233ZM164.957 25.133V60.833H153.936V25.133H164.957ZM144.403 14.333V23.333H119.977V35.333H141.425V44.033H119.977V60.833H108.955V14.333H144.403ZM188.49 29.633C188.49 29.633 192.363 23.633 200.406 24.533V34.433C200.406 34.433 191.767 32.333 188.49 41.333V61.133H178.064V25.133H187.895L188.49 29.633ZM313.602 11.633V60.833H302.58V11.633H313.602ZM275.175 33.233C269.217 33.233 266.238 36.833 266.238 44.333C266.238 47.033 267.132 49.433 268.622 51.533C270.111 53.333 272.494 54.233 275.771 54.233C277.856 54.233 279.643 53.633 280.835 52.733C282.026 51.533 282.92 50.333 283.516 48.833C284.112 47.333 284.409 45.533 284.409 44.033C284.409 41.033 283.814 38.333 282.324 36.533C280.537 34.133 278.154 33.233 275.175 33.233ZM343.986 32.933C338.625 32.933 334.454 37.133 334.454 42.533C334.454 47.933 338.625 52.133 343.986 52.133C349.348 52.133 353.519 47.933 353.519 42.533C353.221 37.433 349.051 32.933 343.986 32.933ZM226.918 32.033C221.556 32.033 218.577 35.333 217.683 39.533H235.556C235.556 38.633 233.769 32.033 226.918 32.033ZM159.596 8.33301C163.17 8.33301 166.149 11.033 166.149 14.333C166.149 17.633 163.17 20.333 159.596 20.333C156.021 20.333 153.042 17.633 153.042 14.333C153.042 11.033 156.021 8.33301 159.596 8.33301Z" fill="#212121"/>
<path d="M72.3861 0C74.1734 0 75.3649 1.2 75.3649 3V72C75.3649 73.8 74.1734 75 72.3861 75H2.97885C1.19154 75 0 73.8 0 72V3C0 1.2 1.19154 0 2.97885 0H72.3861ZM37.8314 20.7L16.9795 54H58.9813L37.8314 20.7Z" fill="#212121"/>
</svg>
