<svg width="402" height="88" viewBox="0 0 402 88" fill="none" xmlns="http://www.w3.org/2000/svg">
<path d="M99.9984 16.5671C104.787 16.5671 110.086 17.1504 114.452 19.1034C114.821 19.2684 115.576 19.6845 116.291 20.3457C116.428 20.4722 118.914 19.8412 123.747 18.4526C124.856 18.1339 126.011 18.6588 126.518 19.6514L126.677 20.0448L128.374 25.6403C128.677 26.7654 128.118 27.9195 127.101 28.4016L126.698 28.5496L123.2 29.4914C123.499 31.3309 123.649 32.7651 123.649 33.794C123.649 44.076 117.33 50.7503 100.089 50.7503C97.2903 50.7503 94.492 50.5699 91.784 50.1189C90.4299 50.7503 89.7078 51.6522 89.7078 52.7345C89.7078 53.9747 90.6938 54.7601 93.0136 55.0908L93.6796 55.1697L109.206 55.8011C124.1 56.4324 129.245 61.5734 129.245 69.781C129.245 80.9649 121.031 88 100.54 88C82.5766 88 75.4454 81.5061 75.4454 73.1182C75.4454 69.781 76.9799 66.7144 79.8685 64.4596C77.4313 62.5656 75.7162 59.8598 75.7162 56.2521C75.7162 52.5541 77.8826 48.9464 83.0279 46.6014C78.8756 44.076 76.3481 40.0173 76.3481 33.794C76.3481 23.9629 82.6669 16.5671 99.9984 16.5671ZM90.8813 67.436C89.2565 68.6085 88.5343 70.1418 88.5343 71.4045C88.5343 74.9416 91.5075 76.7458 99.113 76.896L100.179 76.9063C112.636 76.9964 115.615 75.0122 115.615 72.0358C115.615 69.904 114.272 68.7412 108.467 68.2763L106.588 68.1575L90.8813 67.436ZM293.273 16.3298C312.425 16.3298 320.548 25.9499 320.548 44.8305C320.548 63.7111 312.425 73.1514 293.273 73.1514C274.205 73.1514 265.912 63.7111 265.912 44.8305C265.912 25.9499 274.205 16.3298 293.273 16.3298ZM23.5601 16.4722C28.5016 16.4722 33.4431 17.1893 37.9961 18.494L39.4234 18.938C40.5556 19.328 41.2017 20.4389 41.0308 21.5512L40.9278 21.967L38.478 29.0617C38.1719 29.948 37.3185 30.5026 36.4122 30.4565L36.022 30.3991L35.0462 30.1683C30.7745 29.2151 26.2442 28.7384 22.9282 28.7384C17.7829 28.7384 14.8943 30.3619 14.8943 32.9775C14.8943 40.8243 44.051 35.3225 44.051 54.5336C44.051 65.1764 37.2809 73.1134 20.4007 73.1134C13.8876 73.1134 8.11957 72.1829 3.19957 70.219L2.23074 69.8034C1.23687 69.3554 0.691818 68.3008 0.862823 67.2578L0.961037 66.8685L3.4473 59.6463C3.76872 58.7987 4.63856 58.3194 5.50042 58.4587L5.86767 58.557L7.50296 59.1285C11.9325 60.5551 16.8465 61.2079 20.6715 61.2079C26.9 61.2079 29.5178 58.9531 29.5178 56.0669C29.5178 47.8594 0 53.5415 0 33.6991C0 23.417 7.58255 16.4722 23.5601 16.4722ZM67.4708 20.3757C67.5224 20.5682 67.5485 20.7667 67.5485 20.966V69.9512C67.5485 71.2123 66.5254 72.2345 65.2633 72.2345H54.2133C52.9512 72.2345 51.9281 71.2123 51.9281 69.9512V23.9211C51.9281 22.8875 52.6231 21.9827 53.6225 21.7155L64.6725 18.7604C65.8916 18.4343 67.1445 19.1575 67.4708 20.3757ZM148.512 16.0397L148.662 16.441L150.653 23.7183C155.437 19.8897 161.576 16.3298 168.075 16.3298C181.151 16.3298 189.45 24.0845 189.901 38.1699L189.92 39.3927V69.8427C189.92 71.0079 189.08 71.977 187.971 72.178L187.545 72.2162H176.769C175.603 72.2162 174.633 71.3766 174.432 70.2694L174.394 69.8427V39.3927C174.394 32.647 170.693 29.73 163.742 29.73C159.867 29.73 155.677 32.4006 153.154 35.1284L152.639 35.7128V69.8427C152.639 71.0079 151.799 71.977 150.691 72.178L150.264 72.2162H139.488C138.322 72.2162 137.352 71.3766 137.151 70.2694L137.113 69.8427V18.9445C137.113 18.0083 137.662 17.1733 138.491 16.7903L138.863 16.6549L145.744 14.7769C146.728 14.5088 147.737 14.8998 148.3 15.6815L148.512 16.0397ZM214.192 0.806865L214.468 1.12761L242.941 40.8718L242.772 2.63774L242.784 2.38812C242.901 1.22885 243.835 0.349287 244.958 0.260898L245.387 0.265838L255.879 1.32753C256.958 1.43664 257.807 2.25503 257.982 3.29116L258.016 3.68896V69.8285C258.016 70.9937 257.175 71.9628 256.067 72.1637L255.64 72.202H247.729C247.095 72.202 246.495 71.9494 246.054 71.5118L245.756 71.1498L214.654 24.7794L214.739 69.8262C214.739 70.9934 213.899 71.9627 212.791 72.1637L212.364 72.202H201.774C200.607 72.202 199.638 71.3624 199.436 70.2551L199.398 69.8285V3.67397C199.398 2.59671 200.12 1.67324 201.128 1.38967L201.518 1.31427L212.281 0.149406C212.991 0.072528 213.69 0.319335 214.192 0.806865ZM325.484 16.4117L336.912 19.4112C337.799 19.6442 338.474 20.3676 338.643 21.2692L344.922 54.7138L345.579 59.2617L346.462 54.6835L353.075 24.0702C353.314 22.9645 354.301 22.1808 355.433 22.1978L370.294 22.4206C371.402 22.4372 372.352 23.218 372.582 24.3018L379.029 54.7057L379.724 59.1572L380.483 54.6936L386.979 21.9057C387.174 20.9216 387.967 20.1662 388.96 20.0189L399.276 18.4892C400.574 18.2968 401.782 19.1919 401.974 20.4885C402.019 20.7926 402.005 21.1026 401.932 21.4013L389.931 70.3906C389.671 71.4528 388.718 72.1999 387.624 72.1999H372.364C371.254 72.1999 370.291 71.4317 370.047 70.3498L363.595 41.8392L362.905 37.0409L361.882 41.8859L354.716 70.4044C354.45 71.4598 353.501 72.1999 352.412 72.1999H337.208C336.11 72.1999 335.155 71.4485 334.898 70.3823L322.572 19.2632C322.264 17.9888 323.049 16.7068 324.325 16.3998C324.706 16.3079 325.105 16.312 325.484 16.4117ZM293.273 28.6471C284.466 28.6471 281.131 32.603 281.131 44.7406C281.131 56.968 284.466 60.9239 293.273 60.9239C301.994 60.9239 305.157 56.8781 305.157 44.7406C305.157 32.603 301.994 28.6471 293.273 28.6471ZM100.179 27.7511C93.8601 27.7511 91.6937 29.7353 91.6937 34.1548C91.6937 39.2056 94.9434 40.4683 99.8179 40.4683C106.769 40.4683 108.664 38.6644 108.664 34.1548C108.664 29.5549 106.317 27.7511 100.179 27.7511ZM67.4815 1.69317C67.5332 1.88583 67.5593 2.08442 67.5593 2.28387V8.50135C67.5593 9.53489 66.8645 10.4395 65.8653 10.7069L54.8252 13.6612C53.6061 13.9875 52.3531 13.2645 52.0266 12.0464C51.9749 11.8537 51.9488 11.6551 51.9488 11.4557V5.2382C51.9488 4.20466 52.6436 3.3 53.6428 3.03262L64.6829 0.0782983C65.902 -0.247937 67.155 0.475066 67.4815 1.69317Z" fill="#0777CF"/>
</svg>
