<svg width="88" height="87" viewBox="0 0 88 87" fill="none" xmlns="http://www.w3.org/2000/svg">
<path d="M33.0973 29.4901C33.0973 31.2044 31.7073 32.5944 29.993 32.5944C28.2787 32.5944 26.8887 31.2044 26.8887 29.4901C26.8887 27.7758 28.2787 26.3857 29.993 26.3857C31.7073 26.3857 33.0973 27.7758 33.0973 29.4901Z" fill="#182056"/>
<path d="M23.7849 29.49C23.7849 26.8514 25.4923 24.5231 27.9757 23.5918C23.164 24.0574 18.5075 26.0753 14.9375 29.49C18.5075 32.9048 23.0088 34.9226 27.9757 35.3883C25.4923 34.457 23.7849 32.1287 23.7849 29.49Z" fill="#182056"/>
<path d="M36.2016 29.49C36.2016 32.1287 34.4942 34.457 32.0107 35.3883C36.8225 34.9226 41.479 32.9048 45.049 29.49C41.479 26.0753 36.9777 24.0574 32.0107 23.5918C34.4942 24.5231 36.2016 26.8514 36.2016 29.49Z" fill="#182056"/>
<path d="M52.4988 53.083L62.7431 64.5691L65.2266 62.0856L54.827 50.4443C54.0509 51.3756 53.2749 52.3069 52.4988 53.083Z" fill="#182056"/>
<path d="M29.9935 52.7731C42.8765 52.7731 53.276 42.3736 53.276 29.4905C53.276 16.6075 42.8765 6.20801 29.9935 6.20801C17.1105 6.20801 6.71094 16.6075 6.71094 29.4905C6.71094 42.3736 17.1105 52.7731 29.9935 52.7731ZM11.6779 30.4219L11.057 29.4905L11.8331 28.404C20.9909 18.3149 36.6678 17.6941 46.7578 26.8519C47.2234 27.3175 47.8443 27.7832 48.31 28.404L48.4652 28.5592L49.2413 29.4905L48.4652 30.5771C39.3074 40.6662 23.6305 41.287 13.5405 32.1292C12.7644 31.5084 12.2987 31.0427 11.6779 30.4219Z" fill="#182056"/>
<path d="M56.845 47.9614C56.845 47.9618 56.8451 47.9621 56.8453 47.9623L67.2988 59.7224C67.7579 60.239 68.416 60.5345 69.1071 60.5345C70.3489 60.5345 71.5906 61.0002 72.3667 61.9315L74.5406 64.1053C76.4305 65.9952 79.6619 64.6567 79.6619 61.984V12.4173C79.6619 9.77856 77.6441 7.76074 75.0054 7.76074H60.9563C58.3568 7.76074 56.8744 10.9552 58.1821 13.2018C64.4033 23.89 64.0838 37.4316 56.8452 47.9607C56.8451 47.9609 56.845 47.9612 56.845 47.9614ZM76.5567 52.7737C76.5567 53.6309 75.8617 54.3258 75.0045 54.3258H68.7958C67.9386 54.3258 67.2436 53.6309 67.2436 52.7737C67.2436 51.9164 67.9386 51.2215 68.7958 51.2215H75.0045C75.8617 51.2215 76.5567 51.9164 76.5567 52.7737ZM76.5567 45.0128C76.5567 45.87 75.8617 46.565 75.0045 46.565H67.2436C66.3864 46.565 65.6915 45.87 65.6915 45.0128C65.6915 44.1556 66.3864 43.4606 67.2436 43.4606H75.0045C75.8617 43.4606 76.5567 44.1556 76.5567 45.0128ZM76.5567 37.252C76.5567 38.1092 75.8617 38.8041 75.0045 38.8041H67.2436C66.3864 38.8041 65.6915 38.1092 65.6915 37.252C65.6915 36.3947 66.3864 35.6998 67.2436 35.6998H75.0045C75.8617 35.6998 76.5567 36.3947 76.5567 37.252ZM76.5567 29.4911C76.5567 30.3484 75.8617 31.0433 75.0045 31.0433H67.2436C66.3864 31.0433 65.6915 30.3484 65.6915 29.4911C65.6915 28.6339 66.3864 27.9389 67.2436 27.9389H75.0045C75.8617 27.9389 76.5567 28.6339 76.5567 29.4911ZM76.5567 21.7303C76.5567 22.5875 75.8617 23.2824 75.0045 23.2824H67.2436C66.3864 23.2824 65.6915 22.5875 65.6915 21.7303C65.6915 20.873 66.3864 20.1781 67.2436 20.1781H75.0045C75.8617 20.1781 76.5567 20.873 76.5567 21.7303ZM62.5871 13.9694C62.5871 13.1122 63.2821 12.4173 64.1393 12.4173H75.0045C75.8617 12.4173 76.5567 13.1122 76.5567 13.9694C76.5567 14.8267 75.8617 15.5216 75.0045 15.5216H64.1393C63.2821 15.5216 62.5871 14.8267 62.5871 13.9694Z" fill="#182056"/>
<path d="M29.9932 58.9815C46.291 58.9815 59.4844 45.788 59.4844 29.4902C59.4844 13.1925 46.291 -0.000976562 29.9932 -0.000976562C13.6954 -0.000976562 0.501953 13.1925 0.501953 29.4902C0.501953 45.788 13.6954 58.9815 29.9932 58.9815ZM29.9932 3.10336C44.5836 3.10336 56.3801 14.8998 56.3801 29.4902C56.3801 44.0806 44.5836 55.8771 29.9932 55.8771C15.4028 55.8771 3.60629 44.0806 3.60629 29.4902C3.60629 14.8998 15.4028 3.10336 29.9932 3.10336Z" fill="#182056"/>
<path d="M86.3376 80.2469L70.1951 64.1043C69.8846 63.7939 69.5742 63.6387 69.1085 63.6387H67.8668L64.1416 67.3639V68.6056C64.1416 69.0713 64.2968 69.3817 64.6073 69.6921L80.7498 85.8347C82.302 87.3869 84.7855 87.3869 86.3376 85.8347C87.7346 84.2825 87.8898 81.7991 86.3376 80.2469Z" fill="#182056"/>
<path d="M61.0366 68.6049V68.5011C61.0366 67.768 60.7681 67.0602 60.2819 66.5115L52.0488 57.2198C50.9948 56.0303 49.2029 55.8829 47.8745 56.7553C37.527 63.5509 24.2675 63.8683 13.7161 57.7074C11.4678 56.3946 8.26282 57.8763 8.26282 60.4798V74.5032C8.26282 77.1419 10.2806 79.1597 12.9193 79.1597H62.4861C65.1588 79.1597 66.4973 75.9283 64.6074 74.0384L62.4335 71.8645C61.5022 70.9332 61.0366 69.8467 61.0366 68.6049ZM11.3672 66.7423C11.3672 65.8851 12.0621 65.1902 12.9193 65.1902H51.7236C52.5808 65.1902 53.2757 65.8851 53.2757 66.7423C53.2757 67.5996 52.5808 68.2945 51.7236 68.2945H12.9193C12.0621 68.2945 11.3672 67.5996 11.3672 66.7423ZM59.4844 72.951C59.4844 73.8082 58.7895 74.5032 57.9322 74.5032H12.9193C12.0621 74.5032 11.3672 73.8082 11.3672 72.951C11.3672 72.0938 12.0621 71.3988 12.9193 71.3988H57.9322C58.7895 71.3988 59.4844 72.0938 59.4844 72.951Z" fill="#182056"/>
</svg>
