<svg width="34" height="34" viewBox="0 0 34 34" fill="none" xmlns="http://www.w3.org/2000/svg">
<path d="M24.727 17.6385V22.0882C24.727 22.9953 23.9808 23.7307 23.0603 23.7307H20.2119C19.2914 23.7307 18.5452 22.9953 18.5452 22.0882V17.6385C18.5452 14.2739 15.7776 11.5464 12.3635 11.5464C8.9494 11.5464 6.18174 14.2739 6.18174 17.6385V22.0882C6.18174 22.9953 5.43555 23.7307 4.51508 23.7307H1.66667C0.746192 23.7307 0 22.9953 0 22.0882V17.6385C1.1462e-06 10.9093 5.53532 5.45417 12.3635 5.45417C19.1917 5.45417 24.727 10.9093 24.727 17.6385Z" fill="#182056"/>
<path d="M34 21.8011L34 2.7804e-06C33.0795 2.7804e-06 27.6667 0 27.6667 0L27.7636 21.8012C27.7636 25.1658 24.9959 27.8933 21.5818 27.8933C18.1677 27.8933 15.4001 25.1658 15.4001 21.8012V17.3515C15.4001 16.4444 14.6539 15.709 13.7334 15.709H10.885C9.96453 15.709 9.21834 16.4444 9.21834 17.3515V21.8011C9.21834 28.5304 14.7659 33.9855 21.6092 33.9855C28.4524 33.9855 34 28.5304 34 21.8011Z" fill="#182056"/>
<path d="M12.4744 5.76118C12.6208 5.6496 12.5487 5.41591 12.3636 5.41591C5.53544 5.41591 0.00012207 10.871 0.00012207 17.6002V22.0498C0.00012207 22.957 0.746314 23.6923 1.66679 23.6923H4.51521C5.43569 23.6923 6.18188 22.957 6.18188 22.0498V17.6002C6.18188 16.184 6.67223 14.8806 7.49475 13.846C7.69736 13.5912 7.84581 13.2967 7.91092 12.9793C8.51 10.0592 10.1686 7.51764 12.4744 5.76118Z" fill="#182056"/>
<path d="M22.1505 33.9873C21.962 33.9957 21.7724 34 21.5818 34C14.7537 34 9.21834 28.5449 9.21834 21.8157V15.7235H15.4001V21.8157C15.4001 23.4104 16.0218 24.862 17.0394 25.9479C17.5777 29.2653 19.4748 32.1357 22.1505 33.9873Z" fill="#182056"/>
</svg>
