<svg width="60" height="60" viewBox="0 0 60 60" fill="none" xmlns="http://www.w3.org/2000/svg">
<g filter="url(#filter0_d_22_5370)">
<path d="M37.727 30.6385V35.0882C37.727 35.9953 36.9808 36.7307 36.0603 36.7307H33.2119C32.2914 36.7307 31.5452 35.9953 31.5452 35.0882V30.6385C31.5452 27.2739 28.7776 24.5464 25.3635 24.5464C21.9494 24.5464 19.1817 27.2739 19.1817 30.6385V35.0882C19.1817 35.9953 18.4355 36.7307 17.5151 36.7307H14.6667C13.7462 36.7307 13 35.9953 13 35.0882V30.6385C13 23.9093 18.5353 18.4542 25.3635 18.4542C32.1917 18.4542 37.727 23.9093 37.727 30.6385Z" fill="#182056"/>
<path d="M47 34.8011L47 13C46.0795 13 40.6667 13 40.6667 13L40.7636 34.8012C40.7636 38.1658 37.9959 40.8933 34.5818 40.8933C31.1677 40.8933 28.4001 38.1658 28.4001 34.8012V30.3515C28.4001 29.4444 27.6539 28.709 26.7334 28.709H23.885C22.9645 28.709 22.2183 29.4444 22.2183 30.3515V34.8011C22.2183 41.5304 27.7659 46.9855 34.6092 46.9855C41.4524 46.9855 47 41.5304 47 34.8011Z" fill="#182056"/>
<path d="M25.4744 18.7612C25.6208 18.6496 25.5487 18.4159 25.3636 18.4159C18.5354 18.4159 13.0001 23.871 13.0001 30.6002V35.0498C13.0001 35.957 13.7463 36.6923 14.6668 36.6923H17.5152C18.4357 36.6923 19.1819 35.957 19.1819 35.0498V30.6002C19.1819 29.184 19.6722 27.8806 20.4947 26.846C20.6974 26.5912 20.8458 26.2967 20.9109 25.9793C21.51 23.0592 23.1686 20.5176 25.4744 18.7612Z" fill="#182056"/>
<path d="M35.1505 46.9873C34.962 46.9957 34.7724 47 34.5818 47C27.7537 47 22.2183 41.5449 22.2183 34.8157V28.7235H28.4001V34.8157C28.4001 36.4104 29.0218 37.862 30.0394 38.9479C30.5777 42.2653 32.4748 45.1357 35.1505 46.9873Z" fill="#182056"/>
</g>
<defs>
<filter id="filter0_d_22_5370" x="0" y="0" width="60" height="60" filterUnits="userSpaceOnUse" color-interpolation-filters="sRGB">
<feFlood flood-opacity="0" result="BackgroundImageFix"/>
<feColorMatrix in="SourceAlpha" type="matrix" values="0 0 0 0 0 0 0 0 0 0 0 0 0 0 0 0 0 0 127 0" result="hardAlpha"/>
<feOffset/>
<feGaussianBlur stdDeviation="6.5"/>
<feComposite in2="hardAlpha" operator="out"/>
<feColorMatrix type="matrix" values="0 0 0 0 1 0 0 0 0 1 0 0 0 0 1 0 0 0 0.25 0"/>
<feBlend mode="normal" in2="BackgroundImageFix" result="effect1_dropShadow_22_5370"/>
<feBlend mode="normal" in="SourceGraphic" in2="effect1_dropShadow_22_5370" result="shape"/>
</filter>
</defs>
</svg>
