<svg width="1918" height="1138" viewBox="0 0 1918 1138" fill="none" xmlns="http://www.w3.org/2000/svg">
<path fill-rule="evenodd" clip-rule="evenodd" d="M-2 0L38 100.137C78 201.768 158 402.041 238 458.835C318 517.124 398 430.438 478 416.987C558 402.041 638 458.835 718 387.095C798 315.356 878 115.082 958 115.082C1038 115.082 1118 315.356 1198 330.302C1278 345.247 1358 171.876 1438 130.028C1518 86.6855 1598 171.876 1678 171.876C1758 171.876 1838 86.6855 1878 43.3427L1918 0V689H1878C1838 689 1758 689 1678 689C1598 689 1518 689 1438 689C1358 689 1278 689 1198 689C1118 689 1038 689 958 689C878 689 798 689 718 689C638 689 558 689 478 689C398 689 318 689 238 689C158 689 78 689 38 689H-2V0Z" fill="#F8F9FB"/>
<path fill-rule="evenodd" clip-rule="evenodd" d="M1918 1138L1878 1071C1838 1003 1758 869 1678 831C1598 792 1518 850 1438 859C1358 869 1278 831 1198 879C1118 927 1038 1061 958 1061C878 1061 798 927 718 917C638 907 558 1023 478 1051C398 1080 318 1023 238 1023C158 1023 78 1080 38 1109L-2 1138V677H38C78 677 158 677 238 677C318 677 398 677 478 677C558 677 638 677 718 677C798 677 878 677 958 677C1038 677 1118 677 1198 677C1278 677 1358 677 1438 677C1518 677 1598 677 1678 677C1758 677 1838 677 1878 677H1918V1138Z" fill="#F8F9FB"/>
</svg>
